<svg preserveAspectRatio="none" width="100%" height="100%" overflow="visible" style="display: block;" viewBox="0 0 17.68 17.5" fill="none" xmlns="http://www.w3.org/2000/svg">
<g id="Icon">
<path id="Vector" d="M5.025 16.03C5.03667 16.03 5.08333 16.03 5.165 16.03C6.12167 16.0417 7.0025 16.0475 7.8075 16.0475H10.1C10.3333 16.0475 10.485 16.0417 10.555 16.03C10.625 16.0183 10.6833 16.0008 10.73 15.9775L10.7475 15.96C10.8058 15.925 11.465 15.2746 12.725 14.0088C13.985 12.7429 14.6325 12.0779 14.6675 12.0138C14.7025 11.9496 14.7258 11.8825 14.7375 11.8125C14.7492 11.7425 14.7608 11.5792 14.7725 11.3225V10.0625C14.7725 8.93083 14.7667 8.34167 14.755 8.295C14.72 8.06167 14.6092 7.88667 14.4225 7.77C14.2358 7.65333 14.0375 7.62417 13.8275 7.6825C13.6175 7.74083 13.4658 7.875 13.3725 8.085L13.3025 8.19V10.9375H12.0775L10.8525 10.955L10.6775 11.0075C10.4442 11.0892 10.2429 11.2146 10.0738 11.3838C9.90458 11.5529 9.785 11.7483 9.715 11.97C9.69167 12.075 9.67417 12.2267 9.6625 12.425C9.65083 12.6233 9.645 12.9908 9.645 13.5275V14.5775H7.37L5.1125 14.56C4.9725 14.5017 4.87333 14.4433 4.815 14.385C4.69833 14.2917 4.6225 14.1692 4.5875 14.0175C4.56417 13.9008 4.5525 12.145 4.5525 8.75C4.5525 5.355 4.56417 3.59917 4.5875 3.4825C4.6225 3.33083 4.69833 3.20833 4.815 3.115C4.87333 3.05667 4.9725 2.99833 5.1125 2.94L7.09 2.9225H8.7875C8.98583 2.91083 9.10833 2.89917 9.155 2.8875C9.37667 2.80583 9.52542 2.66 9.60125 2.45C9.67708 2.24 9.66542 2.03875 9.56625 1.84625C9.46708 1.65375 9.30083 1.52833 9.0675 1.47C9.02083 1.45833 8.32083 1.4525 6.9675 1.4525C6.08083 1.4525 5.50333 1.45833 5.235 1.47C5.04833 1.47 4.91417 1.48167 4.8325 1.505C4.43583 1.61 4.10333 1.77917 3.835 2.0125C3.46167 2.3275 3.2225 2.7475 3.1175 3.2725C3.10583 3.35417 3.09417 3.6575 3.0825 4.1825V13.3175C3.09417 13.8425 3.10583 14.1458 3.1175 14.2275C3.1525 14.4725 3.24583 14.7175 3.3975 14.9625C3.5725 15.2425 3.78833 15.47 4.045 15.645C4.33667 15.855 4.66333 15.9833 5.025 16.03ZM11.115 13.545V12.4075H12.2525L11.6925 12.985L11.115 13.545ZM9.9075 5.8275C10.1525 6.34083 10.5025 6.72583 10.9575 6.9825C11.3892 7.21583 11.8588 7.315 12.3663 7.28C12.8738 7.245 13.3258 7.08167 13.7225 6.79C14.1542 6.475 14.4575 6.055 14.6325 5.53C14.7142 5.27333 14.755 4.99917 14.755 4.7075C14.755 4.27583 14.6558 3.885 14.4575 3.535L15.91 2.065C16.0383 1.925 16.1171 1.82875 16.1463 1.77625C16.1754 1.72375 16.1958 1.65667 16.2075 1.575C16.2425 1.33 16.1754 1.12 16.0063 0.945C15.8371 0.77 15.63 0.7 15.385 0.735C15.3033 0.746667 15.2333 0.77 15.175 0.805C15.1167 0.84 15.0263 0.912917 14.9038 1.02375C14.7813 1.13458 14.5625 1.3475 14.2475 1.6625L13.425 2.485C13.145 2.35667 12.9117 2.275 12.725 2.24C12.3867 2.17 12.0425 2.17 11.6925 2.24C11.1558 2.36833 10.7096 2.62208 10.3538 3.00125C9.99792 3.38042 9.77625 3.82375 9.68875 4.33125C9.60125 4.83875 9.67417 5.3375 9.9075 5.8275ZM11.955 5.7925C11.78 5.74583 11.6225 5.66417 11.4825 5.5475C11.2492 5.34917 11.1325 5.075 11.1325 4.725C11.1325 4.49167 11.2083 4.27 11.36 4.06C11.5583 3.79167 11.8442 3.6575 12.2175 3.6575C12.5208 3.6575 12.7746 3.7625 12.9788 3.9725C13.1829 4.1825 13.285 4.43333 13.285 4.725C13.285 4.99333 13.215 5.21792 13.075 5.39875C12.935 5.57958 12.7629 5.70208 12.5588 5.76625C12.3546 5.83042 12.1533 5.83917 11.955 5.7925Z" fill="var(--fill-0, #1E293B)"/>
</g>
</svg>
