<svg preserveAspectRatio="none" width="100%" height="100%" overflow="visible" style="display: block;" viewBox="0 0 17.68 17.5" fill="none" xmlns="http://www.w3.org/2000/svg">
<g id="Icon">
<path id="Vector" d="M8.6825 14.5425C8.60083 14.5192 8.525 14.4725 8.455 14.4025C8.385 14.3325 8.32667 14.2625 8.28 14.1925V14.175C8.245 14.1167 8.22167 14.0525 8.21 13.9825C8.19833 13.8775 8.1925 13.6617 8.1925 13.335V9.485H4.3425C4.01583 9.485 3.8 9.47917 3.695 9.4675C3.625 9.45583 3.56083 9.43833 3.5025 9.415L3.485 9.3975C3.415 9.3625 3.345 9.31 3.275 9.24C3.17 9.11167 3.1175 8.94833 3.1175 8.75C3.1175 8.55167 3.17 8.38833 3.275 8.26C3.345 8.19 3.415 8.1375 3.485 8.1025L3.5025 8.085C3.56083 8.06167 3.625 8.04417 3.695 8.0325C3.8 8.02083 4.01583 8.015 4.3425 8.015H8.1925V4.165C8.1925 3.83833 8.19833 3.6225 8.21 3.5175C8.22167 3.4475 8.23917 3.38333 8.2625 3.325L8.28 3.3075C8.315 3.2375 8.3675 3.1675 8.4375 3.0975C8.56583 2.9925 8.72917 2.94 8.9275 2.94C9.12583 2.94 9.28917 2.9925 9.4175 3.0975C9.4875 3.1675 9.54 3.2375 9.575 3.3075L9.5925 3.325C9.61583 3.38333 9.63333 3.4475 9.645 3.5175C9.65667 3.6225 9.6625 3.83833 9.6625 4.165V8.015H13.5125C13.8392 8.015 14.055 8.02083 14.16 8.0325C14.23 8.04417 14.2942 8.06167 14.3525 8.085L14.37 8.1025C14.44 8.1375 14.51 8.19 14.58 8.26C14.685 8.38833 14.7375 8.55167 14.7375 8.75C14.7375 8.94833 14.685 9.11167 14.58 9.24C14.51 9.31 14.44 9.3625 14.37 9.3975L14.3525 9.415C14.2942 9.43833 14.23 9.45583 14.16 9.4675C14.055 9.47917 13.8392 9.485 13.5125 9.485H9.6625V13.335C9.6625 13.6617 9.65667 13.8775 9.645 13.9825C9.63333 14.0525 9.61583 14.1167 9.5925 14.175L9.575 14.1925C9.55167 14.2508 9.49917 14.315 9.4175 14.385C9.2775 14.5133 9.12583 14.5775 8.9625 14.5775C8.8225 14.5775 8.72917 14.5658 8.6825 14.5425Z" fill="var(--fill-0, #1E293B)"/>
</g>
</svg>
