<svg preserveAspectRatio="none" width="100%" height="100%" overflow="visible" style="display: block;" viewBox="0 0 118.811 112" fill="none" xmlns="http://www.w3.org/2000/svg">
<g id="attachment_placeholder.svg" clip-path="url(#clip0_338_698)">
<g id="Group" filter="url(#filter0_d_338_698)">
<path id="Vector" d="M85.5884 81.6192H98.8468C100.512 81.6192 101.94 80.1928 101.94 78.5279V16.7036C101.94 15.039 100.512 13.6123 98.8468 13.6123H86.0001" fill="url(#paint0_linear_338_698)"/>
</g>
<g id="Group_2" filter="url(#filter1_d_338_698)">
<path id="Vector_2" d="M32.9462 81.6192H20.0992C18.4338 81.6192 17.0064 80.1928 17.0064 78.5279V16.7036C17.0064 15.039 18.4338 13.6123 20.0992 13.6123H32.6816" fill="url(#paint1_linear_338_698)"/>
</g>
<path id="Vector_3" d="M25.944 25.9772H32.3675" stroke="var(--stroke-0, #D6DCE8)" stroke-width="1.51351" stroke-miterlimit="10" stroke-linecap="round"/>
<path id="Vector_4" d="M25.944 34.2997H32.3675" stroke="var(--stroke-0, #D6DCE8)" stroke-width="1.51351" stroke-miterlimit="10" stroke-linecap="round"/>
<path id="Vector_5" d="M25.944 42.8601H32.3675" stroke="var(--stroke-0, #D6DCE8)" stroke-width="1.51351" stroke-miterlimit="10" stroke-linecap="round"/>
<path id="Vector_6" d="M25.944 51.4205H32.3675" stroke="var(--stroke-0, #D6DCE8)" stroke-width="1.51351" stroke-miterlimit="10" stroke-linecap="round"/>
<path id="Vector_7" d="M25.944 68.0654H32.3675" stroke="var(--stroke-0, #D6DCE8)" stroke-width="1.51351" stroke-miterlimit="10" stroke-linecap="round"/>
<path id="Vector_8" d="M92.1851 25.9772H86.0001" stroke="var(--stroke-0, #D6DCE8)" stroke-width="1.51351" stroke-miterlimit="10"/>
<path id="Vector_9" d="M92.1851 34.2997H86.0001" stroke="var(--stroke-0, #D6DCE8)" stroke-width="1.51351" stroke-miterlimit="10" stroke-linecap="round"/>
<path id="Vector_10" d="M92.1851 42.8601H86.0001" stroke="var(--stroke-0, #D6DCE8)" stroke-width="1.51351" stroke-miterlimit="10" stroke-linecap="round"/>
<path id="Vector_11" d="M92.1851 51.4205H86.0001" stroke="var(--stroke-0, #D6DCE8)" stroke-width="1.51351" stroke-miterlimit="10" stroke-linecap="round"/>
<path id="Vector_12" d="M92.1851 68.0654H86.0001" stroke="var(--stroke-0, #D6DCE8)" stroke-width="1.51351" stroke-miterlimit="10" stroke-linecap="round"/>
<g id="Group_3" filter="url(#filter2_d_338_698)">
<path id="Vector_13" d="M82.9072 86.8507H35.8011C34.1358 86.8507 32.7083 85.4235 32.7083 83.7594V11.9479C32.7083 10.2834 34.1358 8.8567 35.8011 8.8567H82.9072C84.5721 8.8567 86.0001 10.2834 86.0001 11.9479V83.7594C86.0001 85.4235 84.5721 86.8507 82.9072 86.8507Z" fill="url(#paint2_linear_338_698)"/>
</g>
<path id="Vector_14" d="M77.1968 32.1219H44.3657C43.652 32.1219 43.1762 31.6909 43.1762 31.0445V28.2435C43.1762 27.597 43.652 27.1661 44.3657 27.1661H77.1968C77.9111 27.1661 78.3864 27.597 78.3864 28.2435V31.0445C78.3864 31.4755 77.9111 32.1219 77.1968 32.1219Z" fill="var(--fill-0, #D5DDEA)"/>
<path id="Vector_15" d="M77.1968 44.9624H44.3657C43.652 44.9624 43.1762 44.5314 43.1762 43.885V41.0839C43.1762 40.4374 43.652 40.0065 44.3657 40.0065H77.1968C77.9111 40.0065 78.3864 40.4374 78.3864 41.0839V43.885C78.3864 44.5314 77.9111 44.9624 77.1968 44.9624Z" fill="var(--fill-0, #D5DDEA)"/>
<path id="Vector_16" d="M77.1968 58.0405H44.3657C43.652 58.0405 43.1762 57.6096 43.1762 56.9632V54.1621C43.1762 53.5156 43.652 53.0847 44.3657 53.0847H77.1968C77.9111 53.0847 78.3864 53.5156 78.3864 54.1621V56.9632C78.3864 57.6096 77.9111 58.0405 77.1968 58.0405Z" fill="var(--fill-0, #D5DDEA)"/>
<path id="Vector_17" d="M77.1975 71.3566H64.1125C63.3988 71.3566 62.923 70.9256 62.923 70.2792V67.478C62.923 66.8316 63.3988 66.4007 64.1125 66.4007H77.1975C77.9111 66.4007 78.3871 66.8316 78.3871 67.478V70.2792C78.3871 70.9256 77.9111 71.3566 77.1975 71.3566Z" fill="var(--fill-0, #D5DDEA)"/>
<path id="Vector_18" d="M73.8197 95.0252C73.5226 96.2875 73.0771 97.6239 72.5572 98.7378C71.1463 101.486 68.9186 103.639 66.171 105.05C63.3492 106.461 60.0075 107.055 56.6659 106.312C48.7944 104.679 43.7449 96.9557 45.3785 89.0847C47.0122 81.2129 54.6609 76.0889 62.5323 77.7969C65.3541 78.3909 67.8047 79.8023 69.8839 81.7328C73.3741 85.2229 74.8593 90.2728 73.8197 95.0252Z" fill="url(#paint3_linear_338_698)"/>
<path id="Vector_19" d="M64.2403 90.7926H60.8986V87.4508C60.8986 86.7826 60.3789 86.1885 59.6363 86.1885C58.9679 86.1885 58.3739 86.7084 58.3739 87.4508V90.7926H55.0323C54.3639 90.7926 53.7698 91.3125 53.7698 92.0549C53.7698 92.7973 54.2897 93.3172 55.0323 93.3172H58.3739V96.659C58.3739 97.3272 58.8937 97.9213 59.6363 97.9213C60.3046 97.9213 60.8986 97.4014 60.8986 96.659V93.3172H64.2403C64.9086 93.3172 65.5027 92.7973 65.5027 92.0549C65.5027 91.3125 64.9086 90.7926 64.2403 90.7926Z" fill="var(--fill-0, white)"/>
</g>
<defs>
<filter id="filter0_d_338_698" x="68.9398" y="5.28799" width="49.6485" height="101.304" filterUnits="userSpaceOnUse" color-interpolation-filters="sRGB">
<feFlood flood-opacity="0" result="BackgroundImageFix"/>
<feColorMatrix in="SourceAlpha" type="matrix" values="0 0 0 0 0 0 0 0 0 0 0 0 0 0 0 0 0 0 127 0" result="hardAlpha"/>
<feOffset dy="8.32432"/>
<feGaussianBlur stdDeviation="8.32432"/>
<feColorMatrix type="matrix" values="0 0 0 0 0.397708 0 0 0 0 0.47749 0 0 0 0 0.575 0 0 0 0.27 0"/>
<feBlend mode="normal" in2="BackgroundImageFix" result="effect1_dropShadow_338_698"/>
<feBlend mode="normal" in="SourceGraphic" in2="effect1_dropShadow_338_698" result="shape"/>
</filter>
<filter id="filter1_d_338_698" x="0.357721" y="5.28799" width="49.2372" height="101.304" filterUnits="userSpaceOnUse" color-interpolation-filters="sRGB">
<feFlood flood-opacity="0" result="BackgroundImageFix"/>
<feColorMatrix in="SourceAlpha" type="matrix" values="0 0 0 0 0 0 0 0 0 0 0 0 0 0 0 0 0 0 127 0" result="hardAlpha"/>
<feOffset dy="8.32432"/>
<feGaussianBlur stdDeviation="8.32432"/>
<feColorMatrix type="matrix" values="0 0 0 0 0.397708 0 0 0 0 0.47749 0 0 0 0 0.575 0 0 0 0.27 0"/>
<feBlend mode="normal" in2="BackgroundImageFix" result="effect1_dropShadow_338_698"/>
<feBlend mode="normal" in="SourceGraphic" in2="effect1_dropShadow_338_698" result="shape"/>
</filter>
<filter id="filter2_d_338_698" x="16.0597" y="0.532379" width="86.5891" height="111.291" filterUnits="userSpaceOnUse" color-interpolation-filters="sRGB">
<feFlood flood-opacity="0" result="BackgroundImageFix"/>
<feColorMatrix in="SourceAlpha" type="matrix" values="0 0 0 0 0 0 0 0 0 0 0 0 0 0 0 0 0 0 127 0" result="hardAlpha"/>
<feOffset dy="8.32432"/>
<feGaussianBlur stdDeviation="8.32432"/>
<feColorMatrix type="matrix" values="0 0 0 0 0.397708 0 0 0 0 0.47749 0 0 0 0 0.575 0 0 0 0.27 0"/>
<feBlend mode="normal" in2="BackgroundImageFix" result="effect1_dropShadow_338_698"/>
<feBlend mode="normal" in="SourceGraphic" in2="effect1_dropShadow_338_698" result="shape"/>
</filter>
<linearGradient id="paint0_linear_338_698" x1="93.7584" y1="12.0392" x2="93.7584" y2="82.3525" gradientUnits="userSpaceOnUse">
<stop stop-color="#FDFEFF"/>
<stop offset="0.9964" stop-color="#ECF0F5"/>
</linearGradient>
<linearGradient id="paint1_linear_338_698" x1="24.9711" y1="12.0392" x2="24.9711" y2="82.3525" gradientUnits="userSpaceOnUse">
<stop stop-color="#FDFEFF"/>
<stop offset="0.9964" stop-color="#ECF0F5"/>
</linearGradient>
<linearGradient id="paint2_linear_338_698" x1="59.3367" y1="7.05262" x2="59.3367" y2="87.6915" gradientUnits="userSpaceOnUse">
<stop stop-color="#FDFEFF"/>
<stop offset="0.9964" stop-color="#ECF0F5"/>
</linearGradient>
<linearGradient id="paint3_linear_338_698" x1="45.0582" y1="92.0542" x2="74.1507" y2="92.0542" gradientUnits="userSpaceOnUse">
<stop stop-color="#B0BACC"/>
<stop offset="1" stop-color="#969EAE"/>
</linearGradient>
<clipPath id="clip0_338_698">
<rect width="118.811" height="112" fill="white"/>
</clipPath>
</defs>
</svg>
