<svg preserveAspectRatio="none" width="100%" height="100%" overflow="visible" style="display: block;" viewBox="0 0 22 24" fill="none" xmlns="http://www.w3.org/2000/svg">
<g id="SVG">
<path id="Vector" fill-rule="evenodd" clip-rule="evenodd" d="M6.6 3.2C6.30826 3.2 6.02847 3.31589 5.82218 3.52218C5.61589 3.72847 5.5 4.00826 5.5 4.3V5.4H4.4C3.81652 5.4 3.25694 5.63178 2.84436 6.04436C2.43178 6.45694 2.2 7.01652 2.2 7.6V18.6C2.2 19.1835 2.43178 19.7431 2.84436 20.1556C3.25694 20.5682 3.81652 20.8 4.4 20.8H17.6C18.1835 20.8 18.7431 20.5682 19.1556 20.1556C19.5682 19.7431 19.8 19.1835 19.8 18.6V7.6C19.8 7.01652 19.5682 6.45694 19.1556 6.04436C18.7431 5.63178 18.1835 5.4 17.6 5.4H16.5V4.3C16.5 4.00826 16.3841 3.72847 16.1778 3.52218C15.9715 3.31589 15.6917 3.2 15.4 3.2C15.1083 3.2 14.8285 3.31589 14.6222 3.52218C14.4159 3.72847 14.3 4.00826 14.3 4.3V5.4H7.7V4.3C7.7 4.00826 7.58411 3.72847 7.37782 3.52218C7.17153 3.31589 6.89174 3.2 6.6 3.2ZM6.6 8.7C6.30826 8.7 6.02847 8.81589 5.82218 9.02218C5.61589 9.22847 5.5 9.50826 5.5 9.8C5.5 10.0917 5.61589 10.3715 5.82218 10.5778C6.02847 10.7841 6.30826 10.9 6.6 10.9H15.4C15.6917 10.9 15.9715 10.7841 16.1778 10.5778C16.3841 10.3715 16.5 10.0917 16.5 9.8C16.5 9.50826 16.3841 9.22847 16.1778 9.02218C15.9715 8.81589 15.6917 8.7 15.4 8.7H6.6Z" fill="var(--fill-0, white)"/>
</g>
</svg>
