<svg preserveAspectRatio="none" width="100%" height="100%" overflow="visible" style="display: block;" viewBox="0 0 24 21" fill="none" xmlns="http://www.w3.org/2000/svg">
<g id="SVG">
<path id="Vector" d="M9.375 4.375H7.625C7.16087 4.375 6.71575 4.55937 6.38756 4.88756C6.05937 5.21575 5.875 5.66087 5.875 6.125V16.625C5.875 17.0891 6.05937 17.5342 6.38756 17.8624C6.71575 18.1906 7.16087 18.375 7.625 18.375H16.375C16.8391 18.375 17.2842 18.1906 17.6124 17.8624C17.9406 17.5342 18.125 17.0891 18.125 16.625V6.125C18.125 5.66087 17.9406 5.21575 17.6124 4.88756C17.2842 4.55937 16.8391 4.375 16.375 4.375H14.625" stroke="var(--stroke-0, #64748B)" stroke-width="1.3125" stroke-linecap="round" stroke-linejoin="round"/>
<path id="Vector_2" d="M9.375 4.375C9.375 3.91087 9.55937 3.46575 9.88756 3.13756C10.2158 2.80937 10.6609 2.625 11.125 2.625H12.875C13.3391 2.625 13.7842 2.80937 14.1124 3.13756C14.4406 3.46575 14.625 3.91087 14.625 4.375C14.625 4.83913 14.4406 5.28425 14.1124 5.61244C13.7842 5.94063 13.3391 6.125 12.875 6.125H11.125C10.6609 6.125 10.2158 5.94063 9.88756 5.61244C9.55937 5.28425 9.375 4.83913 9.375 4.375Z" stroke="var(--stroke-0, #64748B)" stroke-width="1.3125" stroke-linecap="round" stroke-linejoin="round"/>
<path id="Vector_3" d="M9.375 10.5H9.38375" stroke="var(--stroke-0, #64748B)" stroke-width="1.3125" stroke-linecap="round" stroke-linejoin="round"/>
<path id="Vector_4" d="M12.875 10.5H14.625" stroke="var(--stroke-0, #64748B)" stroke-width="1.3125" stroke-linecap="round" stroke-linejoin="round"/>
<path id="Vector_5" d="M9.375 14H9.38375" stroke="var(--stroke-0, #64748B)" stroke-width="1.3125" stroke-linecap="round" stroke-linejoin="round"/>
<path id="Vector_6" d="M12.875 14H14.625" stroke="var(--stroke-0, #64748B)" stroke-width="1.3125" stroke-linecap="round" stroke-linejoin="round"/>
</g>
</svg>
