<svg preserveAspectRatio="none" width="100%" height="100%" overflow="visible" style="display: block;" viewBox="0 0 14.14 14" fill="none" xmlns="http://www.w3.org/2000/svg">
<g id="Icon">
<path id="Vector" d="M2.324 1.764C2.128 1.82933 1.988 1.96933 1.904 2.184V4.816L1.946 4.914C1.974 4.96067 2.13733 5.13333 2.436 5.432L7.476 10.486C7.94267 10.9433 8.25067 11.2373 8.4 11.368C8.50267 11.4613 8.60533 11.5313 8.708 11.578L8.75 11.606C9.16067 11.8207 9.59933 11.8953 10.066 11.83C10.5327 11.7647 10.9387 11.578 11.284 11.27C11.648 10.9433 11.8767 10.528 11.97 10.024C11.998 9.87467 12.0073 9.688 11.998 9.464C11.9607 9.03467 11.8253 8.65667 11.592 8.33C11.5453 8.25533 10.4673 7.16333 8.358 5.054C6.23 2.93533 5.12867 1.85267 5.054 1.806L4.956 1.764H2.324ZM10.766 9.282C10.8407 9.51533 10.8383 9.74633 10.759 9.975C10.6797 10.2037 10.542 10.3833 10.346 10.514C10.15 10.6447 9.94 10.7053 9.716 10.696C9.45467 10.668 9.212 10.5513 8.988 10.346L8.848 10.206C9.34267 9.702 9.842 9.20267 10.346 8.708L10.486 8.848C10.6167 8.97867 10.71 9.12333 10.766 9.282ZM5.53 6.902L3.052 4.41V2.912H4.564C6.216 4.564 7.868 6.22067 9.52 7.882C9.016 8.37667 8.512 8.876 8.008 9.38L5.53 6.902Z" fill="var(--fill-0, #4F5E71)"/>
</g>
</svg>
