<svg preserveAspectRatio="none" width="100%" height="100%" overflow="visible" style="display: block;" viewBox="0 0 21.21 21" fill="none" xmlns="http://www.w3.org/2000/svg">
<g id="Icon">
<path id="Vector" d="M9.66 16.611C9.66 16.611 9.653 16.611 9.639 16.611C9.555 16.597 9.464 16.555 9.366 16.485C9.24 16.373 8.974 16.121 8.568 15.729L6.573 13.734C4.809 11.97 3.885 11.0145 3.801 10.8675C3.717 10.7205 3.689 10.556 3.717 10.374V10.332C3.745 10.234 3.794 10.143 3.864 10.059C3.976 9.919 4.221 9.646 4.599 9.24C4.935 8.904 5.593 8.246 6.573 7.266L8.589 5.271C8.981 4.879 9.247 4.627 9.387 4.515C9.485 4.445 9.576 4.403 9.66 4.389H9.702C9.912 4.361 10.1115 4.4065 10.3005 4.5255C10.4895 4.6445 10.6155 4.809 10.6785 5.019C10.7415 5.229 10.717 5.446 10.605 5.67C10.549 5.754 9.891 6.426 8.631 7.686L6.72 9.618H11.802C15.204 9.618 16.933 9.625 16.989 9.639C17.129 9.653 17.255 9.709 17.367 9.807C17.479 9.905 17.57 10.017 17.64 10.143C17.668 10.199 17.682 10.276 17.682 10.374V10.626C17.682 10.724 17.668 10.801 17.64 10.857C17.57 10.983 17.479 11.095 17.367 11.193C17.255 11.291 17.129 11.347 16.989 11.361C16.933 11.375 15.204 11.382 11.802 11.382H6.72L8.631 13.314C9.891 14.574 10.549 15.246 10.605 15.33C10.731 15.554 10.7555 15.7745 10.6785 15.9915C10.6015 16.2085 10.465 16.3765 10.269 16.4955C10.073 16.6145 9.87 16.653 9.66 16.611Z" fill="var(--fill-0, #94A3B8)"/>
</g>
</svg>
