<svg preserveAspectRatio="none" width="100%" height="100%" overflow="visible" style="display: block;" viewBox="0 0 17.68 17.5" fill="none" xmlns="http://www.w3.org/2000/svg">
<g id="Icon">
<path id="Vector" d="M2.4 13.4925C2.55167 14.1225 3.07083 14.6592 3.9575 15.1025C4.77417 15.4992 5.80083 15.7733 7.0375 15.925C8.2275 16.0767 9.42333 16.0883 10.625 15.96C11.8733 15.82 12.9175 15.5575 13.7575 15.1725C14.6792 14.7408 15.2392 14.1983 15.4375 13.545L15.4725 13.405L15.49 8.82C15.49 5.76333 15.4842 4.20583 15.4725 4.1475C15.3675 3.47083 14.8717 2.905 13.985 2.45C13.18 2.03 12.1475 1.73833 10.8875 1.575C9.6625 1.42333 8.4375 1.4175 7.2125 1.5575C5.92917 1.6975 4.8675 1.96583 4.0275 2.3625C3.10583 2.80583 2.56333 3.35417 2.4 4.0075C2.38833 4.0425 2.3825 4.14167 2.3825 4.305V13.195C2.3825 13.3583 2.38833 13.4575 2.4 13.4925ZM8.2625 14.56C8.0175 14.56 7.65583 14.5308 7.1775 14.4725C6.34917 14.3675 5.6375 14.2042 5.0425 13.9825C4.70417 13.8542 4.41833 13.7083 4.185 13.545C3.95167 13.3817 3.835 13.2417 3.835 13.125C3.835 13.0433 3.905 12.9442 4.045 12.8275C4.20833 12.6758 4.43 12.5358 4.71 12.4075C5.06 12.2442 5.47417 12.1042 5.9525 11.9875C6.52417 11.8592 7.16583 11.7658 7.8775 11.7075C8.09917 11.6842 8.40833 11.6725 8.805 11.6725C9.54 11.6725 10.2342 11.7192 10.8875 11.8125C11.7975 11.9408 12.5675 12.1508 13.1975 12.4425C13.4425 12.5592 13.6408 12.6788 13.7925 12.8013C13.9442 12.9238 14.02 13.0317 14.02 13.125C14.02 13.2533 13.88 13.405 13.6 13.58C13.2733 13.8017 12.8417 13.9883 12.305 14.14C11.6633 14.3383 10.9283 14.4725 10.1 14.5425C9.93667 14.5542 9.61583 14.5629 9.1375 14.5688C8.65917 14.5746 8.3675 14.5717 8.2625 14.56ZM3.8175 9.9575V8.715C3.9225 8.575 4.01583 8.47 4.0975 8.4C4.22583 8.28333 4.40083 8.1725 4.6225 8.0675C5.29917 7.74083 6.15083 7.51917 7.1775 7.4025C8.09917 7.28583 9.0675 7.26833 10.0825 7.35C11.0508 7.43167 11.8908 7.58917 12.6025 7.8225C13.3375 8.05583 13.7983 8.33 13.985 8.645L14.0375 8.715V9.9575C14.0375 10.7858 14.0317 11.2 14.02 11.2C14.0083 11.2 13.9442 11.1767 13.8275 11.13C13.2792 10.8733 12.8008 10.6983 12.3925 10.605C11.3308 10.3367 10.1817 10.2025 8.945 10.2025C7.90667 10.2142 6.90333 10.3192 5.935 10.5175C5.07167 10.6925 4.42417 10.8967 3.9925 11.13C3.89917 11.1767 3.84667 11.2 3.835 11.2C3.82333 11.2 3.8175 10.7858 3.8175 9.9575ZM3.8175 5.6175C3.8175 4.78917 3.82333 4.36333 3.835 4.34C3.89333 4.17667 4.07417 4.0075 4.3775 3.8325C4.71583 3.63417 5.15333 3.45917 5.69 3.3075C6.33167 3.1325 7.06083 3.01583 7.8775 2.9575C8.09917 2.93417 8.46667 2.92833 8.98 2.94C9.84333 2.94 10.625 3.00417 11.325 3.1325C12.305 3.29583 13.0633 3.5525 13.6 3.9025C13.705 3.9725 13.7983 4.05125 13.88 4.13875C13.9617 4.22625 14.0083 4.29333 14.02 4.34C14.0317 4.38667 14.0375 4.8125 14.0375 5.6175C14.0375 6.4225 14.0317 6.825 14.02 6.825C14.0083 6.825 13.9442 6.80167 13.8275 6.755C13.2792 6.49833 12.8008 6.32333 12.3925 6.23C11.3308 5.96167 10.1817 5.8275 8.945 5.8275C7.90667 5.83917 6.90333 5.94417 5.935 6.1425C5.07167 6.3175 4.42417 6.52167 3.9925 6.755C3.89917 6.80167 3.84667 6.825 3.835 6.825C3.82333 6.825 3.8175 6.4225 3.8175 5.6175Z" fill="var(--fill-0, #475569)"/>
</g>
</svg>
