<svg preserveAspectRatio="none" width="100%" height="100%" overflow="visible" style="display: block;" viewBox="0 0 24 21" fill="none" xmlns="http://www.w3.org/2000/svg">
<g id="SVG">
<path id="Vector" d="M9.375 12.25L14.625 7M9.8125 7.4375H9.82125M14.1875 11.8125H14.1963M18.125 18.375V4.375C18.125 3.91087 17.9406 3.46575 17.6124 3.13756C17.2842 2.80937 16.8391 2.625 16.375 2.625H7.625C7.16087 2.625 6.71575 2.80937 6.38756 3.13756C6.05937 3.46575 5.875 3.91087 5.875 4.375V18.375L8.9375 16.625L12 18.375L15.0625 16.625L18.125 18.375ZM10.25 7.4375C10.25 7.55353 10.2039 7.66481 10.1219 7.74686C10.0398 7.82891 9.92853 7.875 9.8125 7.875C9.69647 7.875 9.58519 7.82891 9.50314 7.74686C9.42109 7.66481 9.375 7.55353 9.375 7.4375C9.375 7.32147 9.42109 7.21019 9.50314 7.12814C9.58519 7.04609 9.69647 7 9.8125 7C9.92853 7 10.0398 7.04609 10.1219 7.12814C10.2039 7.21019 10.25 7.32147 10.25 7.4375ZM14.625 11.8125C14.625 11.9285 14.5789 12.0398 14.4969 12.1219C14.4148 12.2039 14.3035 12.25 14.1875 12.25C14.0715 12.25 13.9602 12.2039 13.8781 12.1219C13.7961 12.0398 13.75 11.9285 13.75 11.8125C13.75 11.6965 13.7961 11.5852 13.8781 11.5031C13.9602 11.4211 14.0715 11.375 14.1875 11.375C14.3035 11.375 14.4148 11.4211 14.4969 11.5031C14.5789 11.5852 14.625 11.6965 14.625 11.8125Z" stroke="var(--stroke-0, #64748B)" stroke-width="1.3125" stroke-linecap="round" stroke-linejoin="round"/>
</g>
</svg>
