<svg preserveAspectRatio="none" width="100%" height="100%" overflow="visible" style="display: block;" viewBox="0 0 18 16.9801" fill="none" xmlns="http://www.w3.org/2000/svg">
<g id="Group">
<path id="tox-icon-highlight-bg-color__color" fill-rule="evenodd" clip-rule="evenodd" d="M0 13.9801H18V16.9801H0V13.9801Z" fill="var(--fill-0, black)"/>
<path id="Vector" d="M4.7 12.6801H0L3.3 9.38013L2.6 8.58013L7.2 3.98013L11.2 8.08013L7.2 12.2801C7 12.4801 6.6 12.4801 6.4 12.2801L5.8 11.5801L4.7 12.6801ZM9.7 5.18013L8 3.38013L11 0.480132C11.3623 0.170273 11.8233 0 12.3 0C12.7767 0 13.2377 0.170273 13.6 0.480132L15 1.98013C15.7 2.68013 15.7 3.98013 15 4.68013L12.1 7.58013L10.3 5.78013L9.8 5.18013" fill="var(--fill-0, #222F3E)"/>
</g>
</svg>
