<svg preserveAspectRatio="none" width="100%" height="100%" overflow="visible" style="display: block;" viewBox="0 0 21 21" fill="none" xmlns="http://www.w3.org/2000/svg">
<g id="SVG">
<path id="Vector" d="M1.96875 18.375H19.0312M3.28125 2.625V18.375M12.4688 2.625V18.375M17.7188 6.5625V18.375M5.90625 5.90625H6.5625M5.90625 8.53125H6.5625M5.90625 11.1562H6.5625M9.1875 5.90625H9.84375M9.1875 8.53125H9.84375M9.1875 11.1562H9.84375M5.90625 18.375V15.4219C5.90625 14.8785 6.34725 14.4375 6.89062 14.4375H8.85938C9.40275 14.4375 9.84375 14.8785 9.84375 15.4219V18.375M2.625 2.625H13.125M12.4688 6.5625H18.375M15.0938 9.84375H15.1007V9.85075H15.0938V9.84375ZM15.0938 12.4688H15.1007V12.4758H15.0938V12.4688ZM15.0938 15.0938H15.1007V15.1007H15.0938V15.0938Z" stroke="var(--stroke-0, #64748B)" stroke-width="1.3125" stroke-linecap="round" stroke-linejoin="round"/>
</g>
</svg>
