<svg preserveAspectRatio="none" width="100%" height="100%" overflow="visible" style="display: block;" viewBox="0 0 16.625 18.375" fill="none" xmlns="http://www.w3.org/2000/svg">
<g id="Group">
<path id="Vector" d="M0.875 14.875C0.875 15.3391 1.05937 15.7842 1.38756 16.1124C1.71574 16.4406 2.16087 16.625 2.625 16.625C3.08913 16.625 3.53425 16.4406 3.86243 16.1124C4.19062 15.7842 4.375 15.3391 4.375 14.875C4.375 14.4109 4.19062 13.9658 3.86243 13.6376C3.53425 13.3094 3.08913 13.125 2.625 13.125C2.16087 13.125 1.71574 13.3094 1.38756 13.6376C1.05937 13.9658 0.875 14.4109 0.875 14.875Z" stroke="var(--stroke-0, #94A3B8)" stroke-width="1.75" stroke-linecap="round" stroke-linejoin="round"/>
<path id="Vector_2" d="M8.74997 13.125H2.625V0.875H0.875" stroke="var(--stroke-0, #94A3B8)" stroke-width="1.75" stroke-linecap="round" stroke-linejoin="round"/>
<path id="Vector_3" d="M2.625 2.625L14.875 3.5L14.3718 7.01925M10.0625 9.625H2.625" stroke="var(--stroke-0, #94A3B8)" stroke-width="1.75" stroke-linecap="round" stroke-linejoin="round"/>
<path id="Vector_4" d="M15.75 11.375H13.5625C13.2144 11.375 12.8806 11.5132 12.6344 11.7594C12.3883 12.0055 12.25 12.3394 12.25 12.6875C12.25 13.0356 12.3883 13.3695 12.6344 13.6156C12.8806 13.8617 13.2144 14 13.5625 14H14.4375C14.7856 14 15.1194 14.1383 15.3656 14.3844C15.6117 14.6305 15.75 14.9644 15.75 15.3125C15.75 15.6606 15.6117 15.9945 15.3656 16.2406C15.1194 16.4867 14.7856 16.625 14.4375 16.625H12.25" stroke="var(--stroke-0, #94A3B8)" stroke-width="1.75" stroke-linecap="round" stroke-linejoin="round"/>
<path id="Vector_5" d="M14 16.625V17.5M14 10.5V11.375" stroke="var(--stroke-0, #94A3B8)" stroke-width="1.75" stroke-linecap="round" stroke-linejoin="round"/>
</g>
</svg>
