<svg preserveAspectRatio="none" width="100%" height="100%" overflow="visible" style="display: block;" viewBox="0 0 24 24" fill="none" xmlns="http://www.w3.org/2000/svg">
<g id="SVG">
<path id="Vector" d="M17.6 10H12C9.2 10 7.6 11.4 7.1 13.5C6.7 15.5 7.4 17.5 8.5 18.1C8.73869 18.2326 8.91493 18.4546 8.98995 18.7172C9.06496 18.9797 9.03261 19.2613 8.9 19.5C8.76739 19.7387 8.54539 19.9149 8.28284 19.99C8.02029 20.065 7.73869 20.0326 7.5 19.9C5.5 18.7 4.6 15.8 5.2 13.1C5.8 10.1 8.2 8 12 8H17.6L14.3 4.7C14.1854 4.61404 14.0906 4.50445 14.022 4.37866C13.9534 4.25286 13.9127 4.1138 13.9025 3.97089C13.8924 3.82798 13.913 3.68455 13.9631 3.55032C14.0132 3.4161 14.0916 3.2942 14.1929 3.19289C14.2942 3.09158 14.4161 3.01323 14.5503 2.96313C14.6846 2.91303 14.828 2.89236 14.9709 2.90252C15.1138 2.91267 15.2529 2.95342 15.3787 3.022C15.5044 3.09057 15.614 3.18538 15.7 3.3L20.7 8.3C20.8832 8.48693 20.9859 8.73825 20.9859 9C20.9859 9.26175 20.8832 9.51307 20.7 9.7L15.7 14.7C15.5074 14.8444 15.2692 14.9145 15.0291 14.8975C14.789 14.8804 14.5631 14.7773 14.3929 14.6071C14.2227 14.4369 14.1196 14.211 14.1025 13.9709C14.0855 13.7308 14.1556 13.4926 14.3 13.3L17.6 10Z" fill="var(--fill-0, #222F3E)" fill-opacity="0.5"/>
</g>
</svg>
