<svg preserveAspectRatio="none" width="100%" height="100%" overflow="visible" style="display: block;" viewBox="0 0 17.68 17.5" fill="none" xmlns="http://www.w3.org/2000/svg">
<g id="Icon">
<path id="Vector" d="M4.3425 16.03C4.3425 16.03 4.36583 16.03 4.4125 16.03C5.9525 16.0417 7.48083 16.0475 8.9975 16.0475L13.6175 16.03C13.9908 15.9367 14.2883 15.82 14.51 15.68C14.93 15.4117 15.2217 15.0267 15.385 14.525L15.4025 14.4725C15.4375 14.3792 15.4608 14.2508 15.4725 14.0875C15.4842 13.8658 15.49 13.37 15.49 12.6V8.75C15.49 5.29667 15.4783 3.47667 15.455 3.29C15.385 2.84667 15.1896 2.45875 14.8688 2.12625C14.5479 1.79375 14.16 1.58083 13.705 1.4875C13.6583 1.47583 13.5475 1.47 13.3725 1.47H4.4825C4.3075 1.47 4.19667 1.47583 4.15 1.4875C3.75333 1.56917 3.40625 1.74125 3.10875 2.00375C2.81125 2.26625 2.59833 2.59 2.47 2.975L2.4525 3.0275C2.4175 3.12083 2.39417 3.24917 2.3825 3.4125C2.37083 3.63417 2.365 4.13 2.365 4.9V12.6C2.365 13.37 2.37083 13.8658 2.3825 14.0875C2.39417 14.2508 2.4175 14.3792 2.4525 14.4725L2.47 14.525C2.785 15.4117 3.40917 15.9133 4.3425 16.03ZM13.4775 2.94C13.7458 3.02167 13.9208 3.19667 14.0025 3.465V14.035C13.9325 14.21 13.8683 14.3238 13.81 14.3763C13.7517 14.4288 13.6408 14.49 13.4775 14.56L8.9625 14.5775C5.92917 14.5775 4.40083 14.5717 4.3775 14.56C4.22583 14.525 4.10333 14.4433 4.01 14.315C3.96333 14.2567 3.91083 14.1633 3.8525 14.035V3.465C3.93417 3.19667 4.10917 3.02167 4.3775 2.94H13.4775ZM6.4775 13.1075C6.5475 13.1192 7.36125 13.125 8.91875 13.125C10.4763 13.125 11.29 13.1192 11.36 13.1075C11.5817 13.0725 11.7888 12.985 11.9813 12.845C12.1738 12.705 12.3254 12.5271 12.4363 12.3113C12.5471 12.0954 12.6025 11.76 12.6025 11.305C12.5908 10.8967 12.5413 10.5846 12.4538 10.3688C12.3663 10.1529 12.2292 9.96625 12.0425 9.80875C11.8558 9.65125 11.6458 9.54917 11.4125 9.5025C11.3542 9.49083 11.0392 9.485 10.4675 9.485H7.3875C6.81583 9.485 6.50083 9.49083 6.4425 9.5025C6.17417 9.56083 5.94083 9.68333 5.7425 9.87C5.4275 10.1733 5.27 10.605 5.27 11.165C5.25833 11.5267 5.27292 11.8008 5.31375 11.9875C5.35458 12.1742 5.43917 12.355 5.5675 12.53C5.6725 12.6817 5.80667 12.81 5.97 12.915C6.13333 13.02 6.3025 13.0842 6.4775 13.1075ZM6.74 11.655V10.9375H11.115V11.655H6.74ZM5.2875 7.28C5.2875 7.51333 5.375 7.7 5.55 7.84C5.69 7.95667 5.81833 8.015 5.935 8.015C6.11 8.02667 6.26458 7.98875 6.39875 7.90125C6.53292 7.81375 6.62917 7.69417 6.6875 7.5425C6.74583 7.39083 6.75167 7.23333 6.705 7.07C6.62333 6.81333 6.46875 6.65292 6.24125 6.58875C6.01375 6.52458 5.79792 6.55958 5.59375 6.69375C5.38958 6.82792 5.2875 7.02333 5.2875 7.28ZM8.21 7.1575C8.175 7.37917 8.21583 7.56583 8.3325 7.7175C8.44917 7.86917 8.60667 7.9625 8.805 7.9975C9.00333 8.0325 9.18417 8.00042 9.3475 7.90125C9.51083 7.80208 9.61 7.64167 9.645 7.42C9.68 7.22167 9.63625 7.03792 9.51375 6.86875C9.39125 6.69958 9.23083 6.60042 9.0325 6.57125C8.83417 6.54208 8.65625 6.58583 8.49875 6.7025C8.34125 6.81917 8.245 6.97083 8.21 7.1575ZM11.15 7.5075C11.2317 7.7525 11.3892 7.91 11.6225 7.98C11.8558 8.05 12.0717 8.01792 12.27 7.88375C12.4683 7.74958 12.5675 7.54833 12.5675 7.28C12.5675 7.105 12.515 6.95042 12.41 6.81625C12.305 6.68208 12.165 6.5975 11.99 6.5625C11.815 6.5275 11.6517 6.55375 11.5 6.64125C11.3483 6.72875 11.2404 6.85125 11.1763 7.00875C11.1121 7.16625 11.1033 7.3325 11.15 7.5075ZM5.2875 5.11C5.2875 5.27333 5.33417 5.41333 5.4275 5.53C5.4975 5.62333 5.59083 5.69917 5.7075 5.7575C5.80083 5.80417 5.87667 5.8275 5.935 5.8275C6.11 5.83917 6.26458 5.80125 6.39875 5.71375C6.53292 5.62625 6.62917 5.50667 6.6875 5.355C6.74583 5.20333 6.75167 5.04583 6.705 4.8825C6.62333 4.62583 6.46875 4.46542 6.24125 4.40125C6.01375 4.33708 5.79792 4.37208 5.59375 4.50625C5.38958 4.64042 5.2875 4.84167 5.2875 5.11ZM8.21 4.97C8.175 5.19167 8.21583 5.37833 8.3325 5.53C8.44917 5.68167 8.60667 5.775 8.805 5.81C9.00333 5.845 9.18417 5.81292 9.3475 5.71375C9.51083 5.61458 9.61 5.45417 9.645 5.2325C9.68 5.03417 9.63625 4.85042 9.51375 4.68125C9.39125 4.51208 9.23083 4.41292 9.0325 4.38375C8.83417 4.35458 8.65625 4.39833 8.49875 4.515C8.34125 4.63167 8.245 4.78333 8.21 4.97ZM11.745 5.8275C11.6167 5.81583 11.4971 5.76042 11.3863 5.66125C11.2754 5.56208 11.1967 5.44833 11.15 5.32C11.1033 5.145 11.1121 4.97875 11.1763 4.82125C11.2404 4.66375 11.3483 4.54125 11.5 4.45375C11.6517 4.36625 11.815 4.34 11.99 4.375C12.165 4.41 12.305 4.49458 12.41 4.62875C12.515 4.76292 12.5675 4.9175 12.5675 5.0925C12.5675 5.32583 12.4858 5.5125 12.3225 5.6525C12.1592 5.7925 11.9667 5.85083 11.745 5.8275Z" fill="var(--fill-0, #697D95)"/>
</g>
</svg>
