<svg preserveAspectRatio="none" width="100%" height="100%" overflow="visible" style="display: block;" viewBox="0 0 17.68 17.5" fill="none" xmlns="http://www.w3.org/2000/svg">
<g id="Icon">
<path id="Vector" d="M3.6075 15.295C3.6075 15.295 3.63083 15.295 3.6775 15.295C4.2375 15.3067 4.76833 15.3125 5.27 15.3125C6.285 15.3125 6.87417 15.3008 7.0375 15.2775C7.29417 15.2308 7.52167 15.1171 7.72 14.9363C7.91833 14.7554 8.05833 14.5367 8.14 14.28C8.175 14.175 8.19833 14.0058 8.21 13.7725C8.21 13.5858 8.21 13.0783 8.21 12.25C8.21 11.515 8.20417 11.0483 8.1925 10.85C8.18083 10.6983 8.15167 10.5642 8.105 10.4475L8.0875 10.395C8.02917 10.2317 7.92125 10.0713 7.76375 9.91375C7.60625 9.75625 7.44583 9.64833 7.2825 9.59L7.23 9.5725C7.11333 9.52583 6.97917 9.49667 6.8275 9.485C6.62917 9.47333 6.1625 9.4675 5.4275 9.4675C4.5875 9.4675 4.07417 9.47333 3.8875 9.485C3.66583 9.485 3.5025 9.5025 3.3975 9.5375C3.14083 9.61917 2.925 9.75917 2.75 9.9575C2.575 10.1558 2.45833 10.3892 2.4 10.6575C2.37667 10.8208 2.365 11.4217 2.365 12.46L2.3825 14.14C2.47583 14.5017 2.63917 14.7817 2.8725 14.98C3.05917 15.1317 3.30417 15.2367 3.6075 15.295ZM11.85 14.6825C11.8967 14.9158 12.0075 15.0879 12.1825 15.1988C12.3575 15.3096 12.5471 15.3417 12.7513 15.295C12.9554 15.2483 13.11 15.1317 13.215 14.945C13.2617 14.8633 13.2879 14.7788 13.2938 14.6913C13.2996 14.6038 13.3025 14.3442 13.3025 13.9125V13.125H14.09C14.4517 13.125 14.6908 13.1192 14.8075 13.1075C14.9708 13.0958 15.0875 13.0667 15.1575 13.02C15.2275 12.9733 15.3033 12.8829 15.385 12.7488C15.4667 12.6146 15.4988 12.4688 15.4813 12.3113C15.4638 12.1538 15.3996 12.0138 15.2888 11.8913C15.1779 11.7688 15.035 11.6958 14.86 11.6725C14.825 11.6608 14.5508 11.655 14.0375 11.655H13.3025V10.01L13.2325 9.905C13.1158 9.68333 12.9525 9.54917 12.7425 9.5025C12.5325 9.45583 12.3371 9.49375 12.1563 9.61625C11.9754 9.73875 11.8733 9.89917 11.85 10.0975C11.8383 10.1442 11.8325 10.4242 11.8325 10.9375V11.655H11.115C10.765 11.655 10.5375 11.655 10.4325 11.655C10.2692 11.6667 10.1554 11.6871 10.0913 11.7163C10.0271 11.7454 9.95417 11.8008 9.8725 11.8825C9.68583 12.0692 9.61583 12.2821 9.6625 12.5213C9.70917 12.7604 9.84917 12.9383 10.0825 13.055L10.1875 13.125H11.8325V13.86C11.8325 14.3733 11.8383 14.6475 11.85 14.6825ZM3.835 13.8425V10.9375H6.74V13.8425H3.835ZM3.66 8.015C3.67167 8.015 3.71833 8.015 3.8 8.015C4.38333 8.02667 4.9025 8.0325 5.3575 8.0325C6.1275 8.0325 6.61167 8.02667 6.81 8.015C6.97333 8.00333 7.11333 7.97417 7.23 7.9275L7.2825 7.91C7.44583 7.85167 7.60625 7.74375 7.76375 7.58625C7.92125 7.42875 8.02917 7.26833 8.0875 7.105L8.105 7.0525C8.15167 6.93583 8.18083 6.80167 8.1925 6.65C8.20417 6.45167 8.21 5.985 8.21 5.25C8.21 4.42167 8.21 3.91417 8.21 3.7275C8.19833 3.49417 8.175 3.325 8.14 3.22C8.05833 2.96333 7.91833 2.74458 7.72 2.56375C7.52167 2.38292 7.29417 2.26917 7.0375 2.2225C6.87417 2.19917 6.2675 2.1875 5.2175 2.1875L3.5375 2.205C3.21083 2.31 2.96583 2.43833 2.8025 2.59C2.60417 2.77667 2.46417 3.03333 2.3825 3.36L2.365 5.04V6.335C2.37667 6.59167 2.38833 6.76667 2.4 6.86C2.41167 6.93 2.435 7.0175 2.47 7.1225C2.575 7.3675 2.73542 7.57167 2.95125 7.735C3.16708 7.89833 3.40333 7.99167 3.66 8.015ZM11.01 8.015C11.01 8.015 11.0333 8.015 11.08 8.015C11.6517 8.02667 12.1825 8.0325 12.6725 8.0325C13.3608 8.0325 13.8158 8.02667 14.0375 8.015C14.1892 8.015 14.3 8.00333 14.37 7.98H14.3875C14.5625 7.92167 14.7258 7.84 14.8775 7.735C15.1108 7.57167 15.28 7.36167 15.385 7.105V7.0875C15.4433 6.97083 15.4754 6.825 15.4813 6.65C15.4871 6.475 15.49 5.93833 15.49 5.04L15.4725 3.36C15.3558 2.99833 15.2042 2.73583 15.0175 2.5725C14.8658 2.4325 14.6325 2.31 14.3175 2.205L12.6375 2.1875C11.5058 2.1875 10.905 2.19333 10.835 2.205C10.2283 2.32167 9.8375 2.73 9.6625 3.43V6.16C9.6625 6.56833 9.66833 6.80167 9.68 6.86C9.76167 7.18667 9.92208 7.455 10.1613 7.665C10.4004 7.875 10.6833 7.99167 11.01 8.015ZM3.835 6.5625V3.6575H6.74V6.5625H3.835ZM11.115 5.11V3.6575H14.02V6.5625H11.115V5.11Z" fill="var(--fill-0, #475569)"/>
</g>
</svg>
