<svg preserveAspectRatio="none" width="100%" height="100%" overflow="visible" style="display: block;" viewBox="0 0 14 17.5" fill="none" xmlns="http://www.w3.org/2000/svg">
<g id="Group">
<path id="Vector" d="M4.375 2.625H2.625C2.16087 2.625 1.71575 2.80937 1.38757 3.13757C1.05937 3.46575 0.875 3.91087 0.875 4.375V14.875C0.875 15.3391 1.05937 15.7842 1.38757 16.1124C1.71575 16.4406 2.16087 16.625 2.625 16.625H11.375C11.8391 16.625 12.2842 16.4406 12.6124 16.1124C12.9406 15.7842 13.125 15.3391 13.125 14.875V4.375C13.125 3.91087 12.9406 3.46575 12.6124 3.13757C12.2842 2.80937 11.8391 2.625 11.375 2.625H9.625" stroke="var(--stroke-0, #E44A19)" stroke-width="1.75" stroke-linecap="round" stroke-linejoin="round"/>
<path id="Vector_2" d="M4.375 2.625C4.375 2.16087 4.55937 1.71575 4.88757 1.38757C5.21575 1.05937 5.6609 0.875 6.125 0.875H7.875C8.3391 0.875 8.78421 1.05937 9.11242 1.38757C9.44064 1.71575 9.625 2.16087 9.625 2.625C9.625 3.08913 9.44064 3.53425 9.11242 3.86243C8.78421 4.19063 8.3391 4.375 7.875 4.375H6.125C5.6609 4.375 5.21575 4.19063 4.88757 3.86243C4.55937 3.53425 4.375 3.08913 4.375 2.625Z" stroke="var(--stroke-0, #E44A19)" stroke-width="1.75" stroke-linecap="round" stroke-linejoin="round"/>
<path id="Vector_3" d="M4.375 10.5L6.125 12.25L9.625 8.75" stroke="var(--stroke-0, #E44A19)" stroke-width="1.75" stroke-linecap="round" stroke-linejoin="round"/>
</g>
</svg>
