<svg preserveAspectRatio="none" width="100%" height="100%" overflow="visible" style="display: block;" viewBox="0 0 17.68 17.5" fill="none" xmlns="http://www.w3.org/2000/svg">
<g id="Icon">
<path id="Vector" d="M8.3675 16.0825H9.0325C10.1992 16.0825 11.29 15.82 12.305 15.295C13.25 14.805 14.0492 14.1313 14.7025 13.2738C15.3558 12.4163 15.7992 11.4683 16.0325 10.43C16.2775 9.35667 16.2833 8.295 16.05 7.245C15.805 6.11333 15.3033 5.08667 14.545 4.165C13.915 3.43 13.2092 2.84667 12.4275 2.415C11.5292 1.91333 10.5375 1.62167 9.4525 1.54C9.2775 1.52833 9.05 1.52542 8.77 1.53125C8.49 1.53708 8.27417 1.54583 8.1225 1.5575C7.27083 1.6625 6.46583 1.90167 5.7075 2.275C4.94917 2.64833 4.27833 3.13833 3.695 3.745C3.345 4.13 3.15833 4.34 3.135 4.375V3.605C3.135 3.22 3.12917 2.96917 3.1175 2.8525C3.10583 2.68917 3.07083 2.56667 3.0125 2.485C2.95417 2.40333 2.84917 2.3275 2.6975 2.2575C2.65083 2.23417 2.61 2.21667 2.575 2.205H2.4175C2.2775 2.205 2.14917 2.23417 2.0325 2.2925C1.88083 2.37417 1.77 2.5025 1.7 2.6775C1.68833 2.72417 1.67667 2.84083 1.665 3.0275V4.6725C1.665 5.9675 1.67083 6.63833 1.6825 6.685C1.70583 6.83667 1.77292 6.96792 1.88375 7.07875C1.99458 7.18958 2.12 7.25667 2.26 7.28C2.31833 7.29167 2.96875 7.2975 4.21125 7.2975C5.45375 7.2975 6.11 7.29167 6.18 7.28C6.27333 7.26833 6.3725 7.2275 6.4775 7.1575C6.66417 7.0175 6.7575 6.81917 6.7575 6.5625C6.7575 6.27083 6.6525 6.06667 6.4425 5.95L6.425 5.9325C6.355 5.88583 6.27917 5.85958 6.1975 5.85375C6.11583 5.84792 5.87083 5.83917 5.4625 5.8275L3.9225 5.81L4.0625 5.6C4.61083 4.74833 5.37208 4.08333 6.34625 3.605C7.32042 3.12667 8.34417 2.92833 9.4175 3.01C10.5608 3.09167 11.5992 3.5 12.5325 4.235C13.0108 4.60833 13.4192 5.04583 13.7575 5.5475C14.2592 6.2825 14.5742 7.09333 14.7025 7.98C14.7258 8.13167 14.7433 8.35042 14.755 8.63625C14.7667 8.92208 14.7608 9.14667 14.7375 9.31C14.6442 10.4183 14.2767 11.4042 13.635 12.2675C13.0283 13.0842 12.2525 13.7025 11.3075 14.1225C10.3625 14.5425 9.3825 14.7058 8.3675 14.6125C7.29417 14.5192 6.32 14.14 5.445 13.475C4.80333 12.9967 4.28417 12.4192 3.8875 11.7425C3.49083 11.0658 3.24 10.325 3.135 9.52C3.11167 9.35667 3.09417 9.2575 3.0825 9.2225C3.02417 9.0475 2.91333 8.91917 2.75 8.8375C2.58667 8.75583 2.4175 8.7325 2.2425 8.7675C2.0675 8.8025 1.92458 8.89583 1.81375 9.0475C1.70292 9.19917 1.65917 9.3975 1.6825 9.6425C1.7875 10.5175 2.05583 11.375 2.4875 12.215C3.02417 13.23 3.73 14.0642 4.605 14.7175C5.66667 15.4875 6.92083 15.9425 8.3675 16.0825ZM8.6825 12.355C8.49583 12.285 8.36167 12.1683 8.28 12.005C8.23333 11.9117 8.20708 11.7921 8.20125 11.6463C8.19542 11.5004 8.1925 11.025 8.1925 10.22C8.1925 9.19333 8.19833 8.65667 8.21 8.61C8.23333 8.49333 8.28583 8.38542 8.3675 8.28625C8.44917 8.18708 8.68833 7.93917 9.085 7.5425C9.62167 7.00583 9.9075 6.72583 9.9425 6.7025C10.1292 6.5625 10.3333 6.5275 10.555 6.5975C10.7767 6.6675 10.94 6.80458 11.045 7.00875C11.15 7.21292 11.1383 7.43167 11.01 7.665C10.9983 7.7 10.765 7.945 10.31 8.4L9.6625 9.065V11.41C9.65083 11.62 9.63917 11.7571 9.6275 11.8213C9.61583 11.8854 9.5925 11.9525 9.5575 12.0225C9.4875 12.1508 9.36792 12.2558 9.19875 12.3375C9.02958 12.4192 8.8575 12.425 8.6825 12.355Z" fill="var(--fill-0, #1E293B)"/>
</g>
</svg>
