<svg preserveAspectRatio="none" width="100%" height="100%" overflow="visible" style="display: block;" viewBox="0 0 15.91 15.5" fill="none" xmlns="http://www.w3.org/2000/svg">
<g id="Icon">
<path id="Vector" d="M3.8785 13.547C3.8785 13.547 3.91467 13.547 3.987 13.547C5.165 13.5573 6.2965 13.5625 7.3815 13.5625L10.7915 13.547C10.9155 13.485 11.0447 13.392 11.179 13.268C11.3133 13.144 11.7112 12.7513 12.3725 12.09C13.0338 11.4287 13.4265 11.0308 13.5505 10.8965C13.6745 10.7622 13.7675 10.633 13.8295 10.509L13.845 7.13C13.845 4.84633 13.8398 3.6735 13.8295 3.6115C13.7778 3.21883 13.6202 2.87525 13.3567 2.58075C13.0932 2.28625 12.7652 2.08733 12.3725 1.984L12.1865 1.953H3.8475C3.42383 2.046 3.08283 2.2165 2.8245 2.4645C2.53517 2.73317 2.33883 3.1 2.2355 3.565L2.22 7.657C2.22 10.416 2.22517 11.8265 2.2355 11.8885C2.2975 12.3225 2.48608 12.6945 2.80125 13.0045C3.11642 13.3145 3.4755 13.4953 3.8785 13.547ZM4.4055 12.2605C4.1575 12.2605 3.98183 12.2398 3.8785 12.1985C3.73383 12.1468 3.62017 12.0177 3.5375 11.811V3.689C3.5995 3.46167 3.74417 3.317 3.9715 3.255H12.0935C12.1865 3.286 12.2588 3.32217 12.3105 3.3635C12.4035 3.43583 12.4758 3.54433 12.5275 3.689L12.543 6.882V10.0595C11.8093 10.7932 11.0808 11.5268 10.3575 12.2605H9.97V11.253C9.97 10.7053 9.96742 10.3824 9.96225 10.2842C9.95708 10.1861 9.92867 10.0957 9.877 10.013C9.80467 9.89933 9.72717 9.81667 9.6445 9.765L9.629 9.7495C9.58767 9.72883 9.54117 9.71333 9.4895 9.703C9.43783 9.69267 9.319 9.6875 9.133 9.6875H8.1875L5.2735 9.703C5.09783 9.796 4.98417 9.86833 4.9325 9.92C4.8705 10.0027 4.82917 10.1422 4.8085 10.3385C4.79817 10.4728 4.793 10.7932 4.793 11.2995V12.2605H4.4055ZM6.095 12.2605V10.9895H8.668V12.2605H6.095ZM7.8465 8.3855C8.10483 8.42683 8.39417 8.3855 8.7145 8.2615C9.06583 8.12717 9.35517 7.9205 9.5825 7.6415C9.84083 7.31083 9.97 6.913 9.97 6.448C9.97 6.03467 9.84858 5.66008 9.60575 5.32425C9.36292 4.98842 9.05033 4.75333 8.668 4.619C8.25467 4.47433 7.83617 4.47433 7.4125 4.619C6.95783 4.774 6.61683 5.04267 6.3895 5.425C6.1725 5.77633 6.0795 6.16642 6.1105 6.59525C6.1415 7.02408 6.29133 7.39867 6.56 7.719C6.84933 8.07033 7.2265 8.28733 7.6915 8.37C7.73283 8.38033 7.7845 8.3855 7.8465 8.3855ZM7.8775 7.0835C7.76383 7.0525 7.67083 7.00083 7.5985 6.9285C7.4745 6.8045 7.4125 6.64433 7.4125 6.448C7.4125 6.22067 7.49258 6.05017 7.65275 5.9365C7.81292 5.82283 7.99117 5.79183 8.1875 5.8435C8.38383 5.89517 8.5285 6.014 8.6215 6.2C8.63183 6.24133 8.64217 6.27233 8.6525 6.293V6.448C8.6525 6.70633 8.56467 6.89233 8.389 7.006C8.24433 7.099 8.07383 7.12483 7.8775 7.0835Z" fill="var(--fill-0, #334155)"/>
</g>
</svg>
