<svg preserveAspectRatio="none" width="100%" height="100%" overflow="visible" style="display: block;" viewBox="0 0 17.68 17.5" fill="none" xmlns="http://www.w3.org/2000/svg">
<g id="Icon">
<path id="Vector" d="M6.145 14.6125C6.145 14.6358 6.17417 14.7058 6.2325 14.8225C6.3025 14.9742 6.39583 15.12 6.5125 15.26C6.67583 15.4467 6.85667 15.6042 7.055 15.7325C7.32333 15.8842 7.615 15.9833 7.93 16.03C7.97667 16.0417 8.3325 16.0475 8.9975 16.0475C9.47583 16.0475 9.785 16.0417 9.925 16.03C10.0417 16.0183 10.1758 15.9892 10.3275 15.9425L10.3625 15.925C10.7358 15.7967 11.0567 15.575 11.325 15.26C11.5467 15.015 11.675 14.7933 11.71 14.595H12.2525C12.5792 14.595 12.8125 14.5833 12.9525 14.56C13.3492 14.49 13.7021 14.3179 14.0113 14.0438C14.3204 13.7696 14.5392 13.44 14.6675 13.055L14.685 12.985C14.72 12.8917 14.7433 12.775 14.755 12.635C14.7667 12.4367 14.7725 12.005 14.7725 11.34V4.0775C14.7608 3.6225 14.7492 3.35417 14.7375 3.2725C14.6442 2.8175 14.4429 2.42958 14.1338 2.10875C13.8246 1.78792 13.4425 1.58083 12.9875 1.4875C12.9408 1.47583 12.8417 1.47 12.69 1.47H5.165C5.01333 1.47 4.91417 1.47583 4.8675 1.4875C4.54083 1.56917 4.24917 1.70333 3.9925 1.89C3.51417 2.21667 3.2225 2.67167 3.1175 3.255C3.10583 3.33667 3.09417 3.605 3.0825 4.06V11.935C3.09417 12.425 3.10583 12.705 3.1175 12.775C3.19917 13.1833 3.37125 13.5363 3.63375 13.8338C3.89625 14.1313 4.22583 14.3442 4.6225 14.4725C4.75083 14.5192 4.87333 14.5483 4.99 14.56C5.10667 14.5717 5.31083 14.5833 5.6025 14.595C5.96417 14.595 6.145 14.6008 6.145 14.6125ZM7.965 14.5425C7.65 14.4258 7.4925 14.1983 7.4925 13.86C7.4925 13.6267 7.56833 13.4458 7.72 13.3175C7.81333 13.2358 7.91833 13.1833 8.035 13.16C8.11667 13.1483 8.41417 13.1425 8.9275 13.1425C9.44083 13.1425 9.73833 13.1483 9.82 13.16C10.0533 13.2183 10.2138 13.3438 10.3013 13.5363C10.3888 13.7288 10.3917 13.9271 10.31 14.1313C10.2283 14.3354 10.0825 14.4725 9.8725 14.5425C9.82583 14.5542 9.75583 14.5658 9.6625 14.5775H8.1925C8.09917 14.5658 8.02333 14.5542 7.965 14.5425ZM13.3025 12.565C13.1858 12.7517 13.1042 12.8742 13.0575 12.9325C12.9758 13.0142 12.8825 13.0667 12.7775 13.09C12.6725 13.1133 12.4917 13.125 12.235 13.125H11.7275C11.5875 12.7633 11.395 12.4717 11.15 12.25C10.8467 11.9583 10.4733 11.7717 10.03 11.69C9.96 11.6783 9.79083 11.6725 9.5225 11.6725H8.3325C8.0525 11.6725 7.8775 11.6783 7.8075 11.69C7.51583 11.7483 7.24167 11.8592 6.985 12.0225C6.6 12.2908 6.31417 12.6583 6.1275 13.125H5.6725C5.55583 13.125 5.39833 13.1192 5.2 13.1075H5.13C4.99 13.0842 4.8675 13.0171 4.7625 12.9063C4.6575 12.7954 4.59333 12.67 4.57 12.53C4.55833 12.4833 4.5525 10.9783 4.5525 8.015V4.8125C4.5525 4.17083 4.55833 3.7625 4.57 3.5875C4.58167 3.45917 4.605 3.37167 4.64 3.325L4.6575 3.29C4.70417 3.19667 4.77417 3.12083 4.8675 3.0625C4.92583 3.0275 5.0075 2.98667 5.1125 2.94H12.7425C12.8708 2.99833 12.97 3.05667 13.04 3.115C13.1683 3.20833 13.25 3.33667 13.285 3.5C13.2967 3.54667 13.3025 5.075 13.3025 8.085V12.565ZM6.565 9.4675C6.62333 9.49083 7.40792 9.5025 8.91875 9.5025C10.4296 9.5025 11.2142 9.49083 11.2725 9.4675C11.5058 9.40917 11.6692 9.275 11.7625 9.065C11.8558 8.855 11.8588 8.645 11.7713 8.435C11.6838 8.225 11.5175 8.09083 11.2725 8.0325C11.2258 8.02083 10.4471 8.015 8.93625 8.015C7.42542 8.015 6.64083 8.02083 6.5825 8.0325C6.34917 8.09083 6.18583 8.22208 6.0925 8.42625C5.99917 8.63042 5.99333 8.8375 6.075 9.0475C6.15667 9.2575 6.32 9.3975 6.565 9.4675ZM6.5475 6.545C6.3025 6.475 6.14208 6.32917 6.06625 6.1075C5.99042 5.88583 6.00792 5.67 6.11875 5.46C6.22958 5.25 6.4075 5.13333 6.6525 5.11C6.73417 5.09833 7.4925 5.0925 8.9275 5.0925C10.3625 5.0925 11.1208 5.09833 11.2025 5.11C11.3775 5.13333 11.5379 5.2325 11.6838 5.4075C11.8296 5.5825 11.885 5.76917 11.85 5.9675C11.8033 6.20083 11.6225 6.39333 11.3075 6.545L8.9625 6.5625C7.3875 6.5625 6.5825 6.55667 6.5475 6.545Z" fill="var(--fill-0, #697D95)"/>
</g>
</svg>
