<svg preserveAspectRatio="none" width="100%" height="100%" overflow="visible" style="display: block;" viewBox="0 0 17.68 17.5" fill="none" xmlns="http://www.w3.org/2000/svg">
<g id="Icon">
<path id="Vector" d="M2.8725 15.2775C2.91917 15.2892 3.065 15.3008 3.31 15.3125H5.3225L7.6675 15.295C7.81917 15.225 7.92417 15.155 7.9825 15.085C8.09917 14.98 8.16917 14.8458 8.1925 14.6825C8.20417 14.6125 8.21 13.8483 8.21 12.39C8.21 10.9317 8.20417 10.1675 8.1925 10.0975C8.18083 9.9575 8.11083 9.82333 7.9825 9.695C7.85417 9.56667 7.72 9.49667 7.58 9.485C7.49833 9.47333 6.72833 9.4675 5.27 9.4675C3.81167 9.4675 3.0475 9.47333 2.9775 9.485C2.82583 9.50833 2.69167 9.58417 2.575 9.7125C2.51667 9.7825 2.4525 9.88167 2.3825 10.01L2.365 12.355C2.365 13.86 2.37958 14.6708 2.40875 14.7875C2.43792 14.9042 2.49333 15.0063 2.575 15.0938C2.65667 15.1813 2.75583 15.2425 2.8725 15.2775ZM10.1875 15.295C10.2342 15.3067 11.0275 15.3125 12.5675 15.3125H14.265C14.6033 15.3125 14.8192 15.3067 14.9125 15.295C14.9942 15.2833 15.0583 15.2658 15.105 15.2425L15.1225 15.225C15.2158 15.1667 15.3033 15.0733 15.385 14.945L15.4025 14.9275C15.4375 14.8692 15.455 14.805 15.455 14.735C15.4783 14.63 15.49 14.4083 15.49 14.07V12.355L15.4725 10.01C15.4025 9.85833 15.3325 9.75333 15.2625 9.695C15.1575 9.57833 15.0233 9.50833 14.86 9.485C14.79 9.47333 14.0258 9.4675 12.5675 9.4675C11.1092 9.4675 10.345 9.47333 10.275 9.485C10.135 9.49667 10.0008 9.56667 9.8725 9.695C9.74417 9.82333 9.67417 9.9575 9.6625 10.0975C9.65083 10.1675 9.645 10.9317 9.645 12.39C9.645 13.8483 9.65083 14.6125 9.6625 14.6825C9.68583 14.8225 9.74708 14.9508 9.84625 15.0675C9.94542 15.1842 10.0592 15.26 10.1875 15.295ZM3.835 13.8425V10.9375H6.74V13.8425H3.835ZM11.115 13.8425V10.9375H14.02V13.8425H11.115ZM2.9775 8.015C3.03583 8.02667 3.8 8.0325 5.27 8.0325C6.74 8.0325 7.51 8.02667 7.58 8.015C7.72 8.00333 7.85417 7.93333 7.9825 7.805C8.11083 7.67667 8.18083 7.5425 8.1925 7.4025C8.20417 7.3325 8.21 6.56833 8.21 5.11C8.21 3.65167 8.20417 2.8875 8.1925 2.8175C8.16917 2.65417 8.09917 2.52 7.9825 2.415C7.92417 2.345 7.81917 2.275 7.6675 2.205L5.3225 2.1875H3.6075C3.26917 2.1875 3.0475 2.19917 2.9425 2.2225C2.8725 2.2225 2.80833 2.24 2.75 2.275L2.7325 2.2925C2.60417 2.37417 2.51083 2.46167 2.4525 2.555L2.435 2.5725C2.41167 2.61917 2.39417 2.67167 2.3825 2.73C2.37083 2.78833 2.365 2.9225 2.365 3.1325V4.2L2.3825 7.49C2.4525 7.61833 2.51667 7.7175 2.575 7.7875C2.69167 7.91583 2.82583 7.99167 2.9775 8.015ZM15.4725 5.11C15.4725 4.56167 15.3471 4.06583 15.0963 3.6225C14.8454 3.17917 14.4983 2.83208 14.055 2.58125C13.6117 2.33042 13.1158 2.205 12.5675 2.205C11.9492 2.205 11.4008 2.3625 10.9225 2.6775C10.5025 2.96917 10.1788 3.35708 9.95125 3.84125C9.72375 4.32542 9.6275 4.81833 9.6625 5.32C9.70917 5.89167 9.90167 6.39917 10.24 6.8425C10.5783 7.28583 11.0042 7.6125 11.5175 7.8225C12.0308 8.0325 12.5558 8.085 13.0925 7.98C13.6758 7.875 14.2008 7.58917 14.6675 7.1225C14.8775 6.90083 15.0408 6.67917 15.1575 6.4575C15.3675 6.06083 15.4725 5.61167 15.4725 5.11ZM3.835 6.5625V3.6575H6.74V6.5625H3.835ZM12.3575 6.545C12.1475 6.52167 11.9375 6.43417 11.7275 6.2825C11.5408 6.1425 11.4008 5.99083 11.3075 5.8275C11.1558 5.55917 11.0946 5.27042 11.1238 4.96125C11.1529 4.65208 11.2667 4.38083 11.465 4.1475C11.6633 3.91417 11.9142 3.7625 12.2175 3.6925C12.6025 3.59917 12.9554 3.64875 13.2763 3.84125C13.5971 4.03375 13.8217 4.30792 13.95 4.66375C14.0783 5.01958 14.0608 5.3725 13.8975 5.7225C13.7925 5.9675 13.6 6.17167 13.32 6.335C13.005 6.52167 12.6842 6.59167 12.3575 6.545Z" fill="var(--fill-0, #697D95)"/>
</g>
</svg>
