<svg preserveAspectRatio="none" width="100%" height="100%" overflow="visible" style="display: block;" viewBox="0 0 15.91 15.5" fill="none" xmlns="http://www.w3.org/2000/svg">
<g id="Icon">
<path id="Vector" d="M7.8155 12.8805C7.74317 12.8598 7.676 12.8185 7.614 12.7565C7.552 12.6945 7.50033 12.6325 7.459 12.5705V12.555C7.428 12.5033 7.40733 12.4465 7.397 12.3845C7.38667 12.2915 7.3815 12.1003 7.3815 11.811V8.401H3.9715C3.68217 8.401 3.491 8.39583 3.398 8.3855C3.336 8.37517 3.27917 8.35967 3.2275 8.339L3.212 8.3235C3.15 8.2925 3.088 8.246 3.026 8.184C2.933 8.07033 2.8865 7.92567 2.8865 7.75C2.8865 7.57433 2.933 7.42967 3.026 7.316C3.088 7.254 3.15 7.2075 3.212 7.1765L3.2275 7.161C3.27917 7.14033 3.336 7.12483 3.398 7.1145C3.491 7.10417 3.68217 7.099 3.9715 7.099H7.3815V3.689C7.3815 3.39967 7.38667 3.2085 7.397 3.1155C7.40733 3.0535 7.42283 2.99667 7.4435 2.945L7.459 2.9295C7.49 2.8675 7.5365 2.8055 7.5985 2.7435C7.71217 2.6505 7.85683 2.604 8.0325 2.604C8.20817 2.604 8.35283 2.6505 8.4665 2.7435C8.5285 2.8055 8.575 2.8675 8.606 2.9295L8.6215 2.945C8.64217 2.99667 8.65767 3.0535 8.668 3.1155C8.67833 3.2085 8.6835 3.39967 8.6835 3.689V7.099H12.0935C12.3828 7.099 12.574 7.10417 12.667 7.1145C12.729 7.12483 12.7858 7.14033 12.8375 7.161L12.853 7.1765C12.915 7.2075 12.977 7.254 13.039 7.316C13.132 7.42967 13.1785 7.57433 13.1785 7.75C13.1785 7.92567 13.132 8.07033 13.039 8.184C12.977 8.246 12.915 8.2925 12.853 8.3235L12.8375 8.339C12.7858 8.35967 12.729 8.37517 12.667 8.3855C12.574 8.39583 12.3828 8.401 12.0935 8.401H8.6835V11.811C8.6835 12.1003 8.67833 12.2915 8.668 12.3845C8.65767 12.4465 8.64217 12.5033 8.6215 12.555L8.606 12.5705C8.58533 12.6222 8.53883 12.679 8.4665 12.741C8.3425 12.8547 8.20817 12.9115 8.0635 12.9115C7.9395 12.9115 7.85683 12.9012 7.8155 12.8805Z" fill="var(--fill-0, #005AA3)"/>
</g>
</svg>
