<svg preserveAspectRatio="none" width="100%" height="100%" overflow="visible" style="display: block;" viewBox="0 0 17.68 17.5" fill="none" xmlns="http://www.w3.org/2000/svg">
<g id="Icon">
<path id="Vector" d="M7.195 16.03C7.20667 16.03 7.25333 16.03 7.335 16.03C7.95333 16.0417 8.5075 16.0475 8.9975 16.0475C9.81417 16.0475 10.3333 16.0417 10.555 16.03C10.7183 16.0183 10.87 15.9892 11.01 15.9425L11.08 15.925C11.395 15.82 11.6779 15.6421 11.9287 15.3913C12.1796 15.1404 12.3575 14.8575 12.4625 14.5425C12.5092 14.4142 12.5383 14.2917 12.55 14.175C12.5617 14.0583 12.5733 13.8658 12.585 13.5975V13.125H13.4075C13.8975 13.125 14.2242 13.1133 14.3875 13.09C14.8425 13.02 15.2333 12.8246 15.56 12.5038C15.8867 12.1829 16.0967 11.795 16.19 11.34C16.2017 11.2933 16.2075 11.2 16.2075 11.06V4.2525C16.2075 4.1125 16.2017 4.01917 16.19 3.9725C16.1083 3.5875 15.9333 3.24333 15.665 2.94C15.3967 2.63667 15.0758 2.42083 14.7025 2.2925L14.65 2.275C14.5567 2.24 14.4575 2.21667 14.3525 2.205C14.2008 2.19333 13.8742 2.1875 13.3725 2.1875H8.9275C5.4975 2.1875 3.6775 2.19917 3.4675 2.2225C3.0125 2.30417 2.62167 2.5025 2.295 2.8175C1.96833 3.1325 1.75833 3.5175 1.665 3.9725C1.65333 4.01917 1.6475 4.1125 1.6475 4.2525V11.06C1.6475 11.2 1.65333 11.2933 1.665 11.34C1.74667 11.725 1.91875 12.0692 2.18125 12.3725C2.44375 12.6758 2.7675 12.8917 3.1525 13.02C3.2925 13.0667 3.42667 13.0958 3.555 13.1075C3.68333 13.1192 3.98083 13.125 4.4475 13.125H5.27V13.615C5.28167 13.93 5.30208 14.1663 5.33125 14.3238C5.36042 14.4813 5.42167 14.6475 5.515 14.8225C5.67833 15.1492 5.91167 15.4204 6.215 15.6363C6.51833 15.8521 6.845 15.9833 7.195 16.03ZM7.2475 14.5425C7.02583 14.4608 6.88 14.3208 6.81 14.1225C6.76333 14.0058 6.74 13.8075 6.74 13.5275V13.125H11.115V13.5275C11.115 13.8542 11.0829 14.0788 11.0187 14.2013C10.9546 14.3238 10.8058 14.4433 10.5725 14.56L8.9625 14.5775H7.58C7.405 14.5658 7.29417 14.5542 7.2475 14.5425ZM3.6775 11.655C3.51417 11.5967 3.38583 11.5208 3.2925 11.4275C3.23417 11.3692 3.17583 11.27 3.1175 11.13L3.1 9.8V8.47L3.415 8.3475C4.92 7.69417 6.46583 7.315 8.0525 7.21C10.2108 7.07 12.3167 7.4375 14.37 8.3125L14.755 8.47V9.8L14.7375 11.13C14.6558 11.2933 14.5946 11.3954 14.5537 11.4363C14.5129 11.4771 14.3992 11.55 14.2125 11.655H3.6775ZM8.42 9.2575C8.57167 9.40917 8.73792 9.485 8.91875 9.485C9.09958 9.485 9.25708 9.42375 9.39125 9.30125C9.52542 9.17875 9.61 9.02417 9.645 8.8375C9.68 8.65083 9.63917 8.47583 9.5225 8.3125C9.3825 8.11417 9.18417 8.015 8.9275 8.015C8.70583 8.015 8.53083 8.08792 8.4025 8.23375C8.27417 8.37958 8.21 8.55167 8.21 8.75C8.21 8.94833 8.28 9.1175 8.42 9.2575ZM3.1 5.53L3.1175 4.2C3.1875 4.025 3.25167 3.91125 3.31 3.85875C3.36833 3.80625 3.47917 3.745 3.6425 3.675H14.2125C14.3875 3.745 14.5012 3.80917 14.5537 3.8675C14.6062 3.92583 14.6675 4.03667 14.7375 4.2L14.755 5.53C14.755 6.42833 14.7492 6.8775 14.7375 6.8775L14.5975 6.825C14.0142 6.59167 13.4192 6.39333 12.8125 6.23C11.6808 5.93833 10.5317 5.775 9.365 5.74C7.79 5.69333 6.24417 5.88583 4.7275 6.3175C4.26083 6.44583 3.72417 6.6325 3.1175 6.8775C3.10583 6.8775 3.1 6.42833 3.1 5.53Z" fill="var(--fill-0, #697D95)"/>
</g>
</svg>
