<svg preserveAspectRatio="none" width="100%" height="100%" overflow="visible" style="display: block;" viewBox="0 0 24 21" fill="none" xmlns="http://www.w3.org/2000/svg">
<g id="SVG">
<g id="Vector">
</g>
<path id="Vector_2" d="M19 5.25V15.75C19 16.2141 18.8156 16.6592 18.4874 16.9874C18.1592 17.3156 17.7141 17.5 17.25 17.5H8.5C8.03587 17.5 7.59075 17.3156 7.26256 16.9874C6.93437 16.6592 6.75 16.2141 6.75 15.75V5.25C6.75 4.78587 6.93437 4.34075 7.26256 4.01256C7.59075 3.68437 8.03587 3.5 8.5 3.5H17.25C17.7141 3.5 18.1592 3.68437 18.4874 4.01256C18.8156 4.34075 19 4.78587 19 5.25Z" stroke="var(--stroke-0, #94A3B8)" stroke-width="1.3125" stroke-linecap="round" stroke-linejoin="round"/>
<path id="Vector_3" d="M10.25 14H15.5" stroke="var(--stroke-0, #94A3B8)" stroke-width="1.3125" stroke-linecap="round" stroke-linejoin="round"/>
<path id="Vector_4" d="M11.125 9.625C11.125 10.0891 11.3094 10.5342 11.6376 10.8624C11.9658 11.1906 12.4109 11.375 12.875 11.375C13.3391 11.375 13.7842 11.1906 14.1124 10.8624C14.4406 10.5342 14.625 10.0891 14.625 9.625C14.625 9.16087 14.4406 8.71575 14.1124 8.38756C13.7842 8.05937 13.3391 7.875 12.875 7.875C12.4109 7.875 11.9658 8.05937 11.6376 8.38756C11.3094 8.71575 11.125 9.16087 11.125 9.625Z" stroke="var(--stroke-0, #94A3B8)" stroke-width="1.3125" stroke-linecap="round" stroke-linejoin="round"/>
<path id="Vector_5" d="M5 7H7.625" stroke="var(--stroke-0, #94A3B8)" stroke-width="1.3125" stroke-linecap="round" stroke-linejoin="round"/>
<path id="Vector_6" d="M5 10.5H7.625" stroke="var(--stroke-0, #94A3B8)" stroke-width="1.3125" stroke-linecap="round" stroke-linejoin="round"/>
<path id="Vector_7" d="M5 14H7.625" stroke="var(--stroke-0, #94A3B8)" stroke-width="1.3125" stroke-linecap="round" stroke-linejoin="round"/>
</g>
</svg>
