<svg preserveAspectRatio="none" width="100%" height="100%" overflow="visible" style="display: block;" viewBox="0 0 21.46 21" fill="none" xmlns="http://www.w3.org/2000/svg">
<g id="Icon">
<path id="Vector" d="M4.493 17.493C4.507 17.493 4.584 17.493 4.724 17.493C6.922 17.507 9.001 17.514 10.961 17.514H16.337C16.981 17.5 17.345 17.486 17.429 17.472C17.933 17.374 18.367 17.157 18.731 16.821C19.137 16.457 19.403 15.988 19.529 15.414L19.571 15.204V5.796L19.529 5.586C19.431 5.152 19.249 4.774 18.983 4.452C18.605 3.962 18.08 3.654 17.408 3.528C17.31 3.514 16.946 3.5 16.316 3.486H5.354C4.724 3.5 4.36 3.514 4.262 3.528C3.912 3.598 3.569 3.745 3.233 3.969C2.645 4.361 2.274 4.914 2.12 5.628C2.106 5.684 2.099 5.803 2.099 5.985V15.015C2.099 15.197 2.106 15.316 2.12 15.372C2.246 15.932 2.512 16.408 2.918 16.8C3.366 17.22 3.891 17.451 4.493 17.493ZM4.493 15.708C4.297 15.652 4.15 15.568 4.052 15.456C3.982 15.386 3.947 15.33 3.947 15.288L7.391 12.978L10.835 10.689L14.279 12.978L17.723 15.288C17.723 15.316 17.688 15.372 17.618 15.456C17.506 15.582 17.352 15.673 17.156 15.729C17.072 15.743 14.9615 15.75 10.8245 15.75C6.6875 15.75 4.577 15.736 4.493 15.708ZM3.842 9.576L3.863 5.922C3.933 5.754 4.003 5.635 4.073 5.565C4.185 5.425 4.332 5.334 4.514 5.292C4.654 5.264 6.761 5.25 10.835 5.25C14.909 5.25 17.016 5.264 17.156 5.292C17.338 5.334 17.485 5.425 17.597 5.565C17.667 5.635 17.737 5.754 17.807 5.922L17.828 9.576V13.23L13.208 10.143C11.85 9.247 11.143 8.792 11.087 8.778C11.031 8.764 10.947 8.757 10.835 8.757C10.723 8.757 10.639 8.764 10.583 8.778C10.527 8.792 9.82 9.247 8.462 10.143L3.842 13.23V9.576Z" fill="var(--fill-0, #1E293B)"/>
</g>
</svg>
