<svg preserveAspectRatio="none" width="100%" height="100%" overflow="visible" style="display: block;" viewBox="0 0 17.68 17.5" fill="none" xmlns="http://www.w3.org/2000/svg">
<g id="Icon">
<path id="Vector" d="M3.555 16.03C3.64833 16.0417 4.95208 16.0475 7.46625 16.0475C9.98042 16.0475 11.2842 16.0417 11.3775 16.03C11.6342 15.995 11.8558 15.925 12.0425 15.82C12.3575 15.6333 12.6317 15.3242 12.865 14.8925C12.8883 14.8458 12.9058 14.805 12.9175 14.77V14.595C12.9175 14.315 12.8183 14.1108 12.62 13.9825C12.4567 13.8658 12.2613 13.8338 12.0338 13.8863C11.8063 13.9388 11.6517 14.0525 11.57 14.2275C11.535 14.2975 11.4913 14.3617 11.4388 14.42C11.3863 14.4783 11.3425 14.5163 11.3075 14.5338C11.2725 14.5513 11.08 14.5658 10.73 14.5775H4.745C4.20833 14.5775 3.86417 14.5717 3.7125 14.56C3.6075 14.5483 3.53167 14.525 3.485 14.49L3.45 14.4725C3.31 14.3792 3.19917 14.2333 3.1175 14.035L3.1 10.255V6.9475C3.11167 6.60917 3.12333 6.41083 3.135 6.3525C3.17 6.25917 3.21667 6.1775 3.275 6.1075C3.32167 6.06083 3.39458 5.99375 3.49375 5.90625C3.59292 5.81875 3.66583 5.74583 3.7125 5.6875C3.7825 5.59417 3.82333 5.48333 3.835 5.355C3.84667 5.19167 3.8 5.03417 3.695 4.8825C3.56667 4.68417 3.36833 4.585 3.1 4.585C2.83167 4.585 2.5575 4.73083 2.2775 5.0225C1.9625 5.32583 1.75833 5.69917 1.665 6.1425C1.65333 6.20083 1.64167 6.4225 1.63 6.8075V10.0975C1.63 12.6758 1.63583 14.0058 1.6475 14.0875C1.70583 14.6008 1.91292 15.0383 2.26875 15.4C2.62458 15.7617 3.05333 15.9717 3.555 16.03ZM6.9325 13.1075C6.9325 13.1075 6.95583 13.1075 7.0025 13.1075C8.18083 13.1192 9.33 13.125 10.45 13.125L13.8975 13.1075L14.0725 13.0725C14.4925 12.9792 14.8658 12.8042 15.1925 12.5475C15.7292 12.1392 16.0617 11.585 16.19 10.885C16.2017 10.8383 16.2075 10.7392 16.2075 10.5875V5.9325C16.2075 4.82417 16.2046 4.165 16.1988 3.955C16.1929 3.745 16.1725 3.57 16.1375 3.43L16.12 3.395C16.0033 2.95167 15.7729 2.56375 15.4288 2.23125C15.0846 1.89875 14.6908 1.67417 14.2475 1.5575L14.195 1.54C14.055 1.505 13.8246 1.48458 13.5038 1.47875C13.1829 1.47292 12.1417 1.47 10.38 1.47H7.09C6.93833 1.47 6.83917 1.47583 6.7925 1.4875C6.24417 1.5925 5.77458 1.82875 5.38375 2.19625C4.99292 2.56375 4.73333 3.02167 4.605 3.57L4.5525 3.78V10.325C4.56417 10.6633 4.57583 10.8733 4.5875 10.955C4.66917 11.3517 4.83833 11.7192 5.095 12.0575C5.53833 12.6642 6.15083 13.0142 6.9325 13.1075ZM6.9325 11.6375C6.67583 11.5792 6.4775 11.4625 6.3375 11.2875C6.25583 11.1825 6.15083 10.99 6.0225 10.71V4.3575C6.03417 4.06583 6.04583 3.885 6.0575 3.815C6.11583 3.59333 6.22375 3.40958 6.38125 3.26375C6.53875 3.11792 6.72833 3.01583 6.95 2.9575C7.02 2.94583 7.20667 2.93417 7.51 2.9225H10.4325L13.7925 2.94C14.1075 3.02167 14.3467 3.1675 14.51 3.3775C14.6033 3.50583 14.6792 3.675 14.7375 3.885L14.755 7.245V10.1675C14.7433 10.4708 14.7317 10.6575 14.72 10.7275C14.6617 10.9492 14.5596 11.1388 14.4138 11.2963C14.2679 11.4538 14.0842 11.5617 13.8625 11.62C13.8042 11.6317 13.6292 11.6433 13.3375 11.655H10.38C8.12833 11.655 6.97917 11.6492 6.9325 11.6375Z" fill="var(--fill-0, #94A3B8)"/>
</g>
</svg>
