<svg preserveAspectRatio="none" width="100%" height="100%" overflow="visible" style="display: block;" viewBox="0 0 17.93 17.5" fill="none" xmlns="http://www.w3.org/2000/svg">
<g id="Icon">
<path id="Vector" d="M4.5025 13.8425C4.31583 13.7958 4.17 13.6908 4.065 13.5275C3.96 13.3642 3.925 13.1892 3.96 13.0025V12.9675C3.98333 12.8858 4.01833 12.81 4.065 12.74C4.14667 12.635 4.3275 12.4367 4.6075 12.145L8.0025 8.75L4.6075 5.355C4.3275 5.06333 4.14667 4.865 4.065 4.76C4.01833 4.69 3.98333 4.61417 3.96 4.5325V4.4975C3.93667 4.34583 3.96292 4.2 4.03875 4.06C4.11458 3.92 4.2225 3.81208 4.3625 3.73625C4.5025 3.66042 4.64833 3.63417 4.8 3.6575H4.835C4.905 3.68083 4.975 3.71 5.045 3.745C5.12667 3.80333 5.27833 3.94333 5.5 4.165L9.0525 7.7L12.4475 4.305C12.7392 4.025 12.9375 3.84417 13.0425 3.7625C13.1125 3.71583 13.1883 3.68083 13.27 3.6575H13.305C13.55 3.6225 13.76 3.68958 13.935 3.85875C14.11 4.02792 14.18 4.24083 14.145 4.4975V4.5325C14.1217 4.61417 14.0867 4.69 14.04 4.76C13.9583 4.865 13.7775 5.06333 13.4975 5.355L10.1025 8.75L13.4975 12.145C13.7775 12.4367 13.9583 12.635 14.04 12.74C14.0867 12.81 14.1217 12.8858 14.145 12.9675V13.0025C14.1683 13.1542 14.1421 13.3 14.0663 13.44C13.9904 13.58 13.8825 13.6879 13.7425 13.7637C13.6025 13.8396 13.4567 13.8658 13.305 13.8425H13.27C13.1883 13.8192 13.1125 13.7842 13.0425 13.7375C12.9375 13.6558 12.7392 13.475 12.4475 13.195L9.0525 9.8L5.64 13.195C5.34833 13.475 5.15583 13.6558 5.0625 13.7375C4.9925 13.7842 4.91667 13.8192 4.835 13.8425H4.7825C4.65417 13.8658 4.56083 13.8658 4.5025 13.8425Z" fill="var(--fill-0, #C2410C)"/>
</g>
</svg>
