<svg preserveAspectRatio="none" width="100%" height="100%" overflow="visible" style="display: block;" viewBox="0 0 24 21" fill="none" xmlns="http://www.w3.org/2000/svg">
<g id="SVG">
<g id="Vector">
</g>
<path id="Vector_2" d="M5.875 6.125C5.875 7.05326 6.24375 7.9435 6.90013 8.59987C7.5565 9.25625 8.44674 9.625 9.375 9.625C10.3033 9.625 11.1935 9.25625 11.8499 8.59987C12.5063 7.9435 12.875 7.05326 12.875 6.125C12.875 5.19674 12.5063 4.3065 11.8499 3.65013C11.1935 2.99375 10.3033 2.625 9.375 2.625C8.44674 2.625 7.5565 2.99375 6.90013 3.65013C6.24375 4.3065 5.875 5.19674 5.875 6.125Z" stroke="var(--stroke-0, #64748B)" stroke-width="1.3125" stroke-linecap="round" stroke-linejoin="round"/>
<path id="Vector_3" d="M4.125 18.375V16.625C4.125 15.6967 4.49375 14.8065 5.15013 14.1501C5.8065 13.4937 6.69674 13.125 7.625 13.125H11.125C12.0533 13.125 12.9435 13.4937 13.5999 14.1501C14.2563 14.8065 14.625 15.6967 14.625 16.625V18.375" stroke="var(--stroke-0, #64748B)" stroke-width="1.3125" stroke-linecap="round" stroke-linejoin="round"/>
<path id="Vector_4" d="M15.5 2.73875C16.2529 2.93151 16.9202 3.36936 17.3967 3.98327C17.8732 4.59718 18.1319 5.35223 18.1319 6.12937C18.1319 6.90652 17.8732 7.66157 17.3967 8.27548C16.9202 8.88939 16.2529 9.32724 15.5 9.52" stroke="var(--stroke-0, #64748B)" stroke-width="1.3125" stroke-linecap="round" stroke-linejoin="round"/>
<path id="Vector_5" d="M19.875 18.375V16.625C19.8706 15.8525 19.6107 15.1032 19.1359 14.4939C18.661 13.8845 17.998 13.4494 17.25 13.2562" stroke="var(--stroke-0, #64748B)" stroke-width="1.3125" stroke-linecap="round" stroke-linejoin="round"/>
</g>
</svg>
