<svg preserveAspectRatio="none" width="100%" height="100%" overflow="visible" style="display: block;" viewBox="0 0 24 24" fill="none" xmlns="http://www.w3.org/2000/svg">
<g id="SVG">
<path id="Vector" fill-rule="evenodd" clip-rule="evenodd" d="M11 5H19C19.6 5 20 5.4 20 6C20 6.6 19.6 7 19 7H11C10.7348 7 10.4804 6.89464 10.2929 6.70711C10.1054 6.51957 10 6.26522 10 6C10 5.73478 10.1054 5.48043 10.2929 5.29289C10.4804 5.10536 10.7348 5 11 5ZM11 11H19C19.6 11 20 11.4 20 12C20 12.6 19.6 13 19 13H11C10.7348 13 10.4804 12.8946 10.2929 12.7071C10.1054 12.5196 10 12.2652 10 12C10 11.7348 10.1054 11.4804 10.2929 11.2929C10.4804 11.1054 10.7348 11 11 11ZM11 17H19C19.6 17 20 17.4 20 18C20 18.6 19.6 19 19 19H11C10.7348 19 10.4804 18.8946 10.2929 18.7071C10.1054 18.5196 10 18.2652 10 18C10 17.7348 10.1054 17.4804 10.2929 17.2929C10.4804 17.1054 10.7348 17 11 17ZM4.5 6C4.5 5.6 4.6 5.2 4.9 5C5.2 4.6 5.6 4.5 6 4.5C6.4 4.5 6.8 4.6 7 4.9C7.4 5.2 7.5 5.6 7.5 6C7.5 6.4 7.4 6.8 7.1 7C6.8 7.4 6.4 7.5 6 7.5C5.6 7.5 5.2 7.4 5 7.1C4.6 6.8 4.5 6.4 4.5 6ZM4.5 12C4.5 11.6 4.6 11.2 4.9 11C5.2 10.6 5.6 10.5 6 10.5C6.4 10.5 6.8 10.6 7 10.9C7.4 11.2 7.5 11.6 7.5 12C7.5 12.4 7.4 12.8 7.1 13C6.8 13.4 6.4 13.5 6 13.5C5.6 13.5 5.2 13.4 5 13.1C4.6 12.8 4.5 12.4 4.5 12ZM4.5 18C4.5 17.6 4.6 17.2 4.9 17C5.2 16.6 5.6 16.5 6 16.5C6.4 16.5 6.8 16.6 7 16.9C7.4 17.2 7.5 17.6 7.5 18C7.5 18.4 7.4 18.8 7.1 19C6.8 19.4 6.4 19.5 6 19.5C5.6 19.5 5.2 19.4 5 19.1C4.6 18.8 4.5 18.4 4.5 18Z" fill="var(--fill-0, #222F3E)"/>
</g>
</svg>
