<svg preserveAspectRatio="none" width="100%" height="100%" overflow="visible" style="display: block;" viewBox="0 0 17.68 17.5" fill="none" xmlns="http://www.w3.org/2000/svg">
<g id="Icon">
<path id="Vector" d="M2.9075 2.205C2.6625 2.28667 2.4875 2.46167 2.3825 2.73V6.02L2.435 6.1425C2.47 6.20083 2.67417 6.41667 3.0475 6.79L9.3475 13.1075C9.93083 13.6792 10.3158 14.0467 10.5025 14.21C10.6308 14.3267 10.7592 14.4142 10.8875 14.4725L10.94 14.5075C11.4533 14.7758 12.0017 14.8692 12.585 14.7875C13.1683 14.7058 13.6758 14.4725 14.1075 14.0875C14.5625 13.6792 14.8483 13.16 14.965 12.53C15 12.3433 15.0117 12.11 15 11.83C14.9533 11.2933 14.7842 10.8208 14.4925 10.4125C14.4342 10.3192 13.0867 8.95417 10.45 6.3175C7.79 3.66917 6.41333 2.31583 6.32 2.2575L6.1975 2.205H2.9075ZM13.46 11.6025C13.5533 11.8942 13.5504 12.1829 13.4512 12.4687C13.3521 12.7546 13.18 12.9792 12.935 13.1425C12.69 13.3058 12.4275 13.3817 12.1475 13.37C11.8208 13.335 11.5175 13.1892 11.2375 12.9325L11.0625 12.7575C11.6808 12.1275 12.305 11.5033 12.935 10.885L13.11 11.06C13.2733 11.2233 13.39 11.4042 13.46 11.6025ZM6.915 8.6275L3.8175 5.5125V3.64H5.7075C7.7725 5.705 9.8375 7.77583 11.9025 9.8525C11.2725 10.4708 10.6425 11.095 10.0125 11.725L6.915 8.6275Z" fill="var(--fill-0, #334155)"/>
</g>
</svg>
