<svg preserveAspectRatio="none" width="100%" height="100%" overflow="visible" style="display: block;" viewBox="0 0 24 21" fill="none" xmlns="http://www.w3.org/2000/svg">
<g id="SVG">
<g id="Vector">
</g>
<path id="Vector_2" d="M8.5 6.125C8.5 7.05326 8.86875 7.9435 9.52513 8.59987C10.1815 9.25625 11.0717 9.625 12 9.625C12.9283 9.625 13.8185 9.25625 14.4749 8.59987C15.1313 7.9435 15.5 7.05326 15.5 6.125C15.5 5.19674 15.1313 4.3065 14.4749 3.65013C13.8185 2.99375 12.9283 2.625 12 2.625C11.0717 2.625 10.1815 2.99375 9.52513 3.65013C8.86875 4.3065 8.5 5.19674 8.5 6.125Z" stroke="var(--stroke-0, #64748B)" stroke-width="1.3125" stroke-linecap="round" stroke-linejoin="round"/>
<path id="Vector_3" d="M6.75 18.375V16.625C6.75 15.6967 7.11875 14.8065 7.77513 14.1501C8.4315 13.4937 9.32174 13.125 10.25 13.125H12.4375" stroke="var(--stroke-0, #64748B)" stroke-width="1.3125" stroke-linecap="round" stroke-linejoin="round"/>
<path id="Vector_4" d="M19.9809 17.6059C20.3481 17.2388 20.5982 16.7711 20.6995 16.2618C20.8009 15.7526 20.7489 15.2248 20.5503 14.7451C20.3516 14.2654 20.0152 13.8554 19.5835 13.5669C19.1518 13.2784 18.6442 13.1244 18.125 13.1244C17.6058 13.1244 17.0982 13.2784 16.6665 13.5669C16.2348 13.8554 15.8984 14.2654 15.6997 14.7451C15.5011 15.2248 15.4491 15.7526 15.5505 16.2618C15.6518 16.7711 15.9019 17.2388 16.2691 17.6059C16.6349 17.9725 17.2535 18.5203 18.125 19.25C19.0446 18.4713 19.6641 17.9235 19.9809 17.6059Z" stroke="var(--stroke-0, #64748B)" stroke-width="1.3125" stroke-linecap="round" stroke-linejoin="round"/>
<path id="Vector_5" d="M18.125 15.75V15.7588" stroke="var(--stroke-0, #64748B)" stroke-width="1.3125" stroke-linecap="round" stroke-linejoin="round"/>
</g>
</svg>
