<svg preserveAspectRatio="none" width="100%" height="100%" overflow="visible" style="display: block;" viewBox="0 0 17.68 17.5" fill="none" xmlns="http://www.w3.org/2000/svg">
<g id="Icon">
<path id="Vector" d="M4.2725 15.295C4.2725 15.295 4.29583 15.295 4.3425 15.295C5.89417 15.3067 7.44 15.3125 8.98 15.3125L13.6525 15.295L13.8275 15.26C14.1075 15.19 14.37 15.0617 14.615 14.875C15.035 14.56 15.3092 14.14 15.4375 13.615V13.5975C15.4608 13.5275 15.4725 13.44 15.4725 13.335C15.4842 13.195 15.49 12.9092 15.49 12.4775C15.49 12.0108 15.4783 11.6783 15.455 11.48C15.4317 11.1533 15.3617 10.8792 15.245 10.6575C15.1283 10.4008 14.9417 10.1733 14.685 9.975C14.3233 9.68333 13.915 9.52 13.46 9.485C13.355 9.47333 11.7917 9.4675 8.77 9.4675H4.9725C4.4825 9.47917 4.20833 9.49083 4.15 9.5025C3.74167 9.58417 3.38 9.77083 3.065 10.0625C2.70333 10.4125 2.48167 10.8325 2.4 11.3225V11.34C2.37667 11.5383 2.365 11.9175 2.365 12.4775L2.3825 13.475L2.4175 13.65C2.5225 14.0467 2.715 14.385 2.995 14.665C3.32167 15.0033 3.7475 15.2133 4.2725 15.295ZM4.3075 13.8075C4.0975 13.7258 3.94583 13.5683 3.8525 13.335V11.48C3.9575 11.1767 4.14417 11.0017 4.4125 10.955C4.45917 10.9433 5.97 10.9375 8.945 10.9375H12.1475C12.7775 10.9375 13.18 10.9433 13.355 10.955C13.4833 10.9667 13.5708 10.99 13.6175 11.025L13.6525 11.0425C13.7692 11.1242 13.8567 11.2058 13.915 11.2875C13.95 11.3342 13.9792 11.3983 14.0025 11.48V13.335C13.9675 13.44 13.9267 13.5217 13.88 13.58C13.7983 13.685 13.6758 13.7667 13.5125 13.825L8.9625 13.8425H5.0075C4.5875 13.8308 4.35417 13.8192 4.3075 13.8075ZM4.3425 8.015C4.47083 8.02667 5.99917 8.0325 8.9275 8.0325C11.8558 8.0325 13.3783 8.02667 13.495 8.015C13.9267 7.945 14.3 7.79917 14.615 7.5775C15.0817 7.23917 15.3617 6.7725 15.455 6.1775V6.16C15.4783 5.96167 15.49 5.58542 15.49 5.03125C15.49 4.47708 15.4725 4.10667 15.4375 3.92C15.4025 3.66333 15.2975 3.4125 15.1225 3.1675C14.9708 2.94583 14.7813 2.75333 14.5538 2.59C14.3263 2.42667 14.0783 2.31 13.81 2.24L13.6175 2.205H4.2375L4.0625 2.24C3.77083 2.31 3.5025 2.43833 3.2575 2.625C2.82583 2.92833 2.54583 3.33667 2.4175 3.85L2.3825 4.025L2.365 5.0225C2.365 5.5825 2.37083 5.9325 2.3825 6.0725C2.39417 6.2125 2.42333 6.35833 2.47 6.51C2.59833 6.91833 2.83458 7.25958 3.17875 7.53375C3.52292 7.80792 3.91083 7.96833 4.3425 8.015ZM4.3775 6.545C4.12083 6.48667 3.94583 6.31167 3.8525 6.02V4.165C3.8875 4.06 3.92833 3.97833 3.975 3.92C4.05667 3.815 4.17917 3.73333 4.3425 3.675L8.8925 3.6575H12.865C13.2617 3.66917 13.4833 3.68083 13.53 3.6925C13.635 3.7275 13.7283 3.78583 13.81 3.8675C13.8917 3.94917 13.95 4.0425 13.985 4.1475C13.9967 4.19417 14.0083 4.26417 14.02 4.3575V5.145L14.0025 6.02C13.9092 6.3 13.7225 6.475 13.4425 6.545C13.3725 6.56833 11.8588 6.58 8.90125 6.58C5.94375 6.58 4.43583 6.56833 4.3775 6.545Z" fill="var(--fill-0, #334155)"/>
</g>
</svg>
