<svg preserveAspectRatio="none" width="100%" height="100%" overflow="visible" style="display: block;" viewBox="0 0 22 24" fill="none" xmlns="http://www.w3.org/2000/svg">
<g id="SVG">
<path id="Vector" fill-rule="evenodd" clip-rule="evenodd" d="M11 7.1875C10.9998 6.43583 11.1757 5.69457 11.5135 5.02312C11.8514 4.35166 12.3419 3.76868 12.9456 3.3209C13.5493 2.87311 14.2495 2.57297 14.9902 2.44453C15.7308 2.31608 16.4912 2.36291 17.2104 2.58125C17.3241 2.61569 17.4269 2.67899 17.5089 2.765C17.5908 2.851 17.649 2.95676 17.6779 3.07197C17.7068 3.18719 17.7054 3.30793 17.6737 3.42242C17.6421 3.5369 17.5813 3.64124 17.4973 3.72525L14.454 6.76767C14.5118 7.20308 14.707 7.62383 15.0416 7.95842C15.3762 8.293 15.7969 8.48825 16.2333 8.54508L19.2748 5.50267C19.3588 5.41869 19.4631 5.35792 19.5776 5.32627C19.6921 5.29461 19.8128 5.29317 19.928 5.32206C20.0432 5.35096 20.149 5.40921 20.235 5.49115C20.321 5.57308 20.3843 5.6759 20.4188 5.78958C20.6472 6.54203 20.6878 7.339 20.5369 8.11076C20.3861 8.88253 20.0485 9.60557 19.5535 10.2166C19.0586 10.8277 18.4215 11.3082 17.6979 11.616C16.9743 11.9239 16.1862 12.0497 15.4028 11.9826C14.4696 11.9037 13.6886 12.0742 13.2862 12.5637L6.732 20.525C6.46364 20.8493 6.13051 21.1139 5.75396 21.3021C5.3774 21.4902 4.96571 21.5976 4.54526 21.6174C4.1248 21.6372 3.70483 21.569 3.31226 21.4171C2.91968 21.2653 2.56314 21.0331 2.26547 20.7355C1.9678 20.4379 1.73556 20.0814 1.58361 19.6889C1.43167 19.2963 1.36337 18.8764 1.3831 18.4559C1.40282 18.0354 1.51013 17.6237 1.69816 17.2471C1.88618 16.8705 2.15078 16.5373 2.475 16.2689L10.4353 9.71383C10.9239 9.3105 11.0953 8.53042 11.0165 7.59725C11.0053 7.46096 10.9998 7.32425 11 7.1875ZM3.77392 18.5313C3.77392 18.3489 3.84635 18.174 3.97528 18.0451C4.10421 17.9162 4.27908 17.8438 4.46142 17.8438H4.46875C4.65109 17.8438 4.82595 17.9162 4.95489 18.0451C5.08382 18.174 5.15625 18.3489 5.15625 18.5313V18.5386C5.15625 18.7209 5.08382 18.8958 4.95489 19.0247C4.82595 19.1537 4.65109 19.2261 4.46875 19.2261H4.46142C4.27908 19.2261 4.10421 19.1537 3.97528 19.0247C3.84635 18.8958 3.77392 18.7209 3.77392 18.5386V18.5313Z" fill="var(--fill-0, white)"/>
<path id="Vector_2" d="M9.23633 8.92L7.21875 6.90333V5.46783C7.21874 5.34914 7.18801 5.23247 7.12954 5.12918C7.07106 5.0259 6.98685 4.9395 6.88508 4.87842L3.44758 2.81592C3.31611 2.7371 3.16206 2.70449 3.00993 2.72326C2.85779 2.74202 2.7163 2.8111 2.60792 2.9195L1.92042 3.607C1.81201 3.71538 1.74294 3.85688 1.72417 4.00901C1.70541 4.16115 1.73802 4.31519 1.81683 4.44667L3.87933 7.88417C3.94042 7.98593 4.02681 8.07015 4.1301 8.12862C4.23339 8.18709 4.35006 8.21783 4.46875 8.21783H5.90242L7.79258 10.108L9.23633 8.91908V8.92Z" fill="var(--fill-0, white)"/>
<path id="Vector_3" fill-rule="evenodd" clip-rule="evenodd" d="M11.5097 16.8849L15.3441 20.7184C15.6314 21.0057 15.9724 21.2336 16.3478 21.3891C16.7231 21.5445 17.1254 21.6246 17.5317 21.6246C17.938 21.6246 18.3403 21.5445 18.7156 21.3891C19.091 21.2336 19.432 21.0057 19.7193 20.7184C20.0066 20.4311 20.2345 20.0901 20.39 19.7147C20.5455 19.3394 20.6255 18.9371 20.6255 18.5308C20.6255 18.1245 20.5455 17.7222 20.39 17.3469C20.2345 16.9715 20.0066 16.6305 19.7193 16.3432L16.6888 13.3136C16.2243 13.3794 15.7538 13.3927 15.2863 13.353C14.9252 13.3218 14.6612 13.3475 14.4916 13.3915C14.4379 13.4029 14.3863 13.4223 14.3385 13.4493L11.5097 16.8849ZM14.6392 15.6383C14.7681 15.5095 14.9428 15.4372 15.125 15.4372C15.3072 15.4372 15.4819 15.5095 15.6108 15.6383L17.3296 17.3579C17.3971 17.4209 17.4513 17.4968 17.4889 17.5811C17.5265 17.6654 17.5467 17.7565 17.5483 17.8488C17.5499 17.9411 17.5329 18.0328 17.4984 18.1184C17.4638 18.204 17.4123 18.2818 17.347 18.347C17.2818 18.4123 17.204 18.4638 17.1184 18.4984C17.0328 18.5329 16.9411 18.5499 16.8488 18.5483C16.7565 18.5467 16.6654 18.5265 16.5811 18.4889C16.4968 18.4513 16.4209 18.3971 16.3579 18.3296L14.6392 16.6108C14.5104 16.4819 14.4381 16.3072 14.4381 16.125C14.4381 15.9428 14.5104 15.7681 14.6392 15.6392V15.6383Z" fill="var(--fill-0, white)"/>
</g>
</svg>
