<svg preserveAspectRatio="none" width="100%" height="100%" overflow="visible" style="display: block;" viewBox="0 0 15.91 15.5" fill="none" xmlns="http://www.w3.org/2000/svg">
<g id="Icon">
<path id="Vector" d="M9.133 11.594C9.02967 11.5527 8.94183 11.4958 8.8695 11.4235C8.7455 11.3098 8.6835 11.1652 8.6835 10.9895C8.6835 10.8138 8.73517 10.6692 8.8385 10.5555C8.9005 10.4935 9.00383 10.4263 9.1485 10.354L10.714 10.3385H12.2795C11.0808 9.1295 9.88217 7.92567 8.6835 6.727L6.6685 8.7265C6.5135 8.87117 6.40758 8.95642 6.35075 8.98225C6.29392 9.00808 6.22933 9.021 6.157 9.021H6.033C5.971 9.03133 5.91933 9.02617 5.878 9.0055C5.816 8.9745 5.71783 8.897 5.5835 8.773C5.44917 8.649 5.23217 8.44233 4.9325 8.153L2.2355 5.4405C1.93583 5.15117 1.74983 4.95483 1.6775 4.8515C1.62583 4.77917 1.59483 4.70683 1.5845 4.6345V4.6035C1.5535 4.42783 1.58708 4.27542 1.68525 4.14625C1.78342 4.01708 1.91517 3.93442 2.0805 3.89825C2.24583 3.86208 2.40083 3.88533 2.5455 3.968C2.6385 4.03 3.243 4.619 4.359 5.735L6.095 7.471L7.1955 6.3705L8.017 5.5645C8.19267 5.39917 8.3115 5.29583 8.3735 5.2545C8.42517 5.2235 8.482 5.19767 8.544 5.177H8.575C8.71967 5.15633 8.84367 5.17183 8.947 5.2235C8.98833 5.24417 9.12783 5.36817 9.3655 5.5955C9.6445 5.86417 10.2283 6.44283 11.117 7.3315L13.194 9.4085V7.9205C13.194 6.96983 13.2043 6.4325 13.225 6.3085C13.2767 6.10183 13.3929 5.95975 13.5737 5.88225C13.7546 5.80475 13.9354 5.80475 14.1162 5.88225C14.2971 5.95975 14.4133 6.10183 14.465 6.3085C14.4857 6.4325 14.496 7.2385 14.496 8.7265V10.4315C14.496 10.7622 14.4908 10.9792 14.4805 11.0825C14.4702 11.1548 14.4495 11.2168 14.4185 11.2685V11.284C14.3772 11.3563 14.3255 11.4183 14.2635 11.47C14.2222 11.501 14.1395 11.5527 14.0155 11.625H9.5515C9.31383 11.6147 9.17433 11.6043 9.133 11.594Z" fill="var(--fill-0, #1E293B)"/>
</g>
</svg>
