<svg preserveAspectRatio="none" width="100%" height="100%" overflow="visible" style="display: block;" viewBox="0 0 14.14 14" fill="none" xmlns="http://www.w3.org/2000/svg">
<g id="Icon">
<path id="Vector" d="M2.072 10.738C2.55733 11.466 3.18267 12.012 3.948 12.376C4.676 12.7213 5.45067 12.8683 6.272 12.817C7.09333 12.7657 7.84 12.5207 8.512 12.082C9.24 11.6153 9.79533 10.9807 10.178 10.178C10.5513 9.41267 10.6983 8.60533 10.619 7.756C10.5397 6.90667 10.2527 6.13667 9.758 5.446L9.674 5.306L12.432 2.534C12.6653 2.30067 12.8147 2.142 12.88 2.058C12.9173 2.002 12.9453 1.94133 12.964 1.876V1.848C12.992 1.64267 12.936 1.47233 12.796 1.337C12.656 1.20167 12.488 1.148 12.292 1.176H12.264C12.1987 1.19467 12.138 1.22267 12.082 1.26C11.998 1.32533 11.8393 1.47467 11.606 1.708L8.834 4.466L8.708 4.382C8.27867 4.08333 7.868 3.87333 7.476 3.752C6.636 3.472 5.796 3.43 4.956 3.626C4.19067 3.794 3.5 4.144 2.884 4.676C2.296 5.19867 1.87133 5.80533 1.61 6.496C1.33933 7.21467 1.246 7.945 1.33 8.687C1.414 9.429 1.66133 10.1127 2.072 10.738ZM5.67 11.648C5.334 11.6107 5.054 11.55 4.83 11.466C4.27 11.27 3.78933 10.955 3.388 10.521C2.98667 10.087 2.716 9.59 2.576 9.03C2.53867 8.89 2.51533 8.75467 2.506 8.624C2.49667 8.54 2.492 8.39067 2.492 8.176C2.492 7.49467 2.65533 6.88333 2.982 6.342C3.28067 5.838 3.68667 5.44133 4.2 5.152C4.71333 4.86267 5.264 4.70633 5.852 4.683C6.44 4.65967 6.99533 4.774 7.518 5.026C8.078 5.306 8.54 5.72133 8.904 6.272C9.24 6.78533 9.42667 7.34067 9.464 7.938C9.492 8.50733 9.387 9.058 9.149 9.59C8.911 10.122 8.568 10.5653 8.12 10.92C7.644 11.3027 7.10267 11.5407 6.496 11.634C6.43067 11.6433 6.293 11.6503 6.083 11.655C5.873 11.6597 5.73533 11.6573 5.67 11.648Z" fill="var(--fill-0, #64748B)"/>
</g>
</svg>
