<svg preserveAspectRatio="none" width="100%" height="100%" overflow="visible" style="display: block;" viewBox="0 0 14.14 14" fill="none" xmlns="http://www.w3.org/2000/svg">
<g id="Icon">
<path id="Vector" d="M2.352 12.824C2.352 12.824 2.36133 12.824 2.38 12.824C2.83733 12.8333 3.276 12.838 3.696 12.838H4.802C4.942 12.8287 5.03067 12.8193 5.068 12.81C5.45067 12.698 5.71667 12.4787 5.866 12.152L5.88 12.138C5.91733 12.0353 5.94067 11.935 5.95 11.837C5.95933 11.739 5.964 11.438 5.964 10.934V10.066C5.964 9.562 5.95933 9.261 5.95 9.163C5.94067 9.065 5.91733 8.96467 5.88 8.862L5.866 8.848C5.70733 8.512 5.44133 8.29267 5.068 8.19C5.02133 8.18067 4.84867 8.176 4.55 8.176H3.22C2.70667 8.176 2.401 8.18067 2.303 8.19C2.205 8.19933 2.10467 8.22733 2.002 8.274H1.988C1.652 8.43267 1.43267 8.69867 1.33 9.072C1.32067 9.11867 1.316 9.296 1.316 9.604V11.396C1.316 11.704 1.32067 11.8813 1.33 11.928C1.45133 12.4227 1.792 12.7213 2.352 12.824ZM9.352 12.824C9.42667 12.8427 9.51067 12.8427 9.604 12.824C9.72533 12.796 9.82333 12.74 9.898 12.656C9.99133 12.5627 10.038 12.4273 10.038 12.25V12.236C10.038 12.1427 10.031 12.075 10.017 12.033C10.003 11.991 9.96333 11.9327 9.898 11.858C9.842 11.802 9.72533 11.6853 9.548 11.508L9.142 11.088H10.22C10.976 11.088 11.3773 11.0833 11.424 11.074C11.8253 11.0273 12.1707 10.8593 12.46 10.57C12.7493 10.2807 12.9173 9.93067 12.964 9.52C12.9733 9.436 12.978 9.086 12.978 8.47C12.978 7.854 12.9733 7.52267 12.964 7.476C12.9453 7.364 12.8893 7.26133 12.796 7.168C12.684 7.056 12.5487 7 12.39 7C12.2313 7 12.096 7.056 11.984 7.168C11.8907 7.26133 11.8347 7.364 11.816 7.476C11.8067 7.504 11.802 7.84 11.802 8.484V9.296C11.7927 9.39867 11.7833 9.46867 11.774 9.506C11.718 9.702 11.592 9.828 11.396 9.884C11.3587 9.89333 11.284 9.90267 11.172 9.912H9.142L9.548 9.492C9.72533 9.31467 9.842 9.198 9.898 9.142C9.96333 9.06733 10.003 9.009 10.017 8.967C10.031 8.925 10.038 8.85733 10.038 8.764V8.75C10.038 8.57267 9.98667 8.43267 9.884 8.33C9.80933 8.25533 9.70667 8.20867 9.576 8.19C9.492 8.17133 9.42667 8.16667 9.38 8.176H9.366C9.30067 8.18533 9.247 8.204 9.205 8.232C9.163 8.26 9.086 8.32533 8.974 8.428L7.308 10.094C7.252 10.1593 7.21467 10.2107 7.196 10.248L7.182 10.276C7.154 10.3413 7.14 10.416 7.14 10.5C7.14 10.584 7.154 10.6587 7.182 10.724L7.196 10.752C7.21467 10.7893 7.252 10.8407 7.308 10.906L8.974 12.572C9.086 12.6747 9.163 12.74 9.205 12.768C9.247 12.796 9.296 12.8147 9.352 12.824ZM2.478 11.662V9.338H4.802V11.662H2.478ZM1.316 6.524C1.33467 6.608 1.372 6.692 1.428 6.776C1.54933 6.92533 1.71267 7 1.918 7C2.03933 7 2.156 6.951 2.268 6.853C2.38 6.755 2.44533 6.64533 2.464 6.524C2.47333 6.496 2.478 6.16 2.478 5.516V4.704C2.48733 4.60133 2.49667 4.53133 2.506 4.494C2.562 4.298 2.688 4.172 2.884 4.116C2.92133 4.10667 2.996 4.09733 3.108 4.088H5.138L4.732 4.508C4.55467 4.68533 4.438 4.802 4.382 4.858C4.31667 4.93267 4.277 4.991 4.263 5.033C4.249 5.075 4.242 5.14267 4.242 5.236V5.25C4.242 5.446 4.298 5.59067 4.41 5.684C4.494 5.75867 4.60133 5.80533 4.732 5.824C4.79733 5.83333 4.85333 5.83333 4.9 5.824H4.914C4.97933 5.81467 5.033 5.796 5.075 5.768C5.117 5.74 5.194 5.67467 5.306 5.572L6.972 3.906C7.028 3.84067 7.06533 3.78933 7.084 3.752L7.098 3.724C7.126 3.65867 7.14 3.584 7.14 3.5C7.14 3.416 7.126 3.34133 7.098 3.276L7.084 3.248C7.06533 3.21067 7.028 3.15933 6.972 3.094L5.306 1.428C5.194 1.32533 5.117 1.26 5.075 1.232C5.033 1.204 4.97933 1.18533 4.914 1.176H4.9C4.85333 1.16667 4.79733 1.16667 4.732 1.176C4.60133 1.19467 4.494 1.24133 4.41 1.316C4.298 1.40933 4.242 1.554 4.242 1.75V1.764C4.242 1.85733 4.249 1.925 4.263 1.967C4.277 2.009 4.31667 2.06733 4.382 2.142C4.438 2.198 4.55467 2.31467 4.732 2.492L5.138 2.912H4.06C3.304 2.912 2.90267 2.91667 2.856 2.926C2.45467 2.97267 2.10933 3.14067 1.82 3.43C1.53067 3.71933 1.36267 4.06933 1.316 4.48C1.30667 4.564 1.302 4.914 1.302 5.53C1.302 6.146 1.30667 6.47733 1.316 6.524ZM9.352 5.824C9.352 5.824 9.36133 5.824 9.38 5.824C9.83733 5.83333 10.276 5.838 10.696 5.838H11.802C11.942 5.82867 12.0307 5.81933 12.068 5.81C12.4507 5.698 12.7167 5.47867 12.866 5.152L12.88 5.138C12.9173 5.03533 12.9407 4.935 12.95 4.837C12.9593 4.739 12.964 4.438 12.964 3.934V3.066C12.964 2.562 12.9593 2.261 12.95 2.163C12.9407 2.065 12.9173 1.96467 12.88 1.862L12.866 1.848C12.7073 1.512 12.4413 1.29267 12.068 1.19C12.0213 1.18067 11.8487 1.176 11.55 1.176H10.22C9.70667 1.176 9.401 1.18067 9.303 1.19C9.205 1.19933 9.10467 1.22733 9.002 1.274H8.988C8.652 1.43267 8.43267 1.69867 8.33 2.072C8.32067 2.11867 8.316 2.296 8.316 2.604V4.396C8.316 4.704 8.32067 4.88133 8.33 4.928C8.45133 5.42267 8.792 5.72133 9.352 5.824ZM9.478 3.5V2.338H11.802V4.662H9.478V3.5Z" fill="var(--fill-0, #94A3B8)"/>
</g>
</svg>
