<svg preserveAspectRatio="none" width="100%" height="100%" overflow="visible" style="display: block;" viewBox="0 0 17.68 17.5" fill="none" xmlns="http://www.w3.org/2000/svg">
<g id="Icon">
<path id="Vector" d="M3.1875 5.005C3.1875 5.215 3.21083 5.39583 3.2575 5.5475C3.2925 5.64083 3.345 5.7575 3.415 5.8975C3.49667 6.06083 3.5375 6.195 3.5375 6.3C3.5375 6.59167 3.37417 6.77833 3.0475 6.86C2.82583 6.90667 2.59833 7.02333 2.365 7.21C2.10833 7.42 1.91583 7.67667 1.7875 7.98C1.63583 8.33 1.595 8.70333 1.665 9.1C1.72333 9.415 1.84 9.68917 2.015 9.9225C2.26 10.2725 2.60417 10.5117 3.0475 10.64C3.17583 10.6633 3.28083 10.71 3.3625 10.78C3.47917 10.885 3.5375 11.025 3.5375 11.2C3.5375 11.27 3.49667 11.4042 3.415 11.6025C3.28667 11.8942 3.21083 12.1392 3.1875 12.3375C3.1525 12.6758 3.2225 13.02 3.3975 13.37C3.54917 13.6617 3.7475 13.9008 3.9925 14.0875C4.2375 14.2742 4.51167 14.3967 4.815 14.455C5.06 14.5017 5.305 14.5017 5.55 14.455C5.69 14.42 5.865 14.3558 6.075 14.2625C6.27333 14.1808 6.4075 14.14 6.4775 14.14C6.6525 14.14 6.78083 14.1867 6.8625 14.28C6.90917 14.3383 6.96458 14.4608 7.02875 14.6475C7.09292 14.8342 7.15417 14.9742 7.2125 15.0675C7.30583 15.2425 7.42833 15.4 7.58 15.54C7.755 15.7033 7.965 15.8317 8.21 15.925C8.42 15.995 8.60083 16.03 8.7525 16.03C8.93917 16.065 9.16083 16.0533 9.4175 15.995C9.72083 15.9133 9.98917 15.7733 10.2225 15.575C10.5142 15.33 10.7125 15.015 10.8175 14.63C10.8408 14.5017 10.8875 14.3967 10.9575 14.315C11.0625 14.1983 11.2025 14.14 11.3775 14.14C11.4592 14.14 11.5992 14.1867 11.7975 14.28C12.0308 14.385 12.2292 14.4492 12.3925 14.4725C12.6608 14.5192 12.9525 14.4958 13.2675 14.4025C13.5242 14.3208 13.775 14.1633 14.02 13.93C14.3467 13.6383 14.5508 13.3058 14.6325 12.9325C14.7375 12.4542 14.6442 11.9467 14.3525 11.41C14.2708 11.2467 14.2767 11.0863 14.37 10.9288C14.4633 10.7713 14.6092 10.675 14.8075 10.64C15.2508 10.5117 15.6008 10.2725 15.8575 9.9225C16.1025 9.58417 16.225 9.19917 16.225 8.7675C16.225 8.33583 16.1083 7.95083 15.875 7.6125C15.6067 7.23917 15.2392 6.9825 14.7725 6.8425C14.4692 6.78417 14.3175 6.60333 14.3175 6.3C14.3175 6.21833 14.3642 6.07833 14.4575 5.88C14.5625 5.64667 14.6267 5.44833 14.65 5.285C14.6967 5.01667 14.6704 4.72792 14.5712 4.41875C14.4721 4.10958 14.3175 3.83833 14.1075 3.605C13.7342 3.20833 13.2558 3.01 12.6725 3.01C12.4625 3.01 12.2817 3.03333 12.13 3.08C12.0367 3.115 11.92 3.1675 11.78 3.2375C11.6167 3.31917 11.4796 3.36 11.3687 3.36C11.2579 3.36 11.1558 3.33083 11.0625 3.2725C10.9342 3.19083 10.8525 3.05667 10.8175 2.87C10.7475 2.52 10.5433 2.205 10.205 1.925C9.84333 1.63333 9.44083 1.47583 8.9975 1.4525C8.49583 1.42917 8.02333 1.60417 7.58 1.9775C7.44 2.10583 7.32333 2.25167 7.23 2.415C7.18333 2.50833 7.125 2.64833 7.055 2.835C6.985 3.02167 6.92083 3.14417 6.8625 3.2025C6.78083 3.3075 6.6525 3.36 6.4775 3.36C6.39583 3.36 6.25583 3.31333 6.0575 3.22C5.82417 3.115 5.62583 3.05083 5.4625 3.0275C5.19417 2.98083 4.9025 3.00417 4.5875 3.0975C4.1675 3.2375 3.82917 3.48542 3.5725 3.84125C3.31583 4.19708 3.1875 4.585 3.1875 5.005ZM13.1975 12.495C13.1975 12.6117 13.1683 12.7167 13.11 12.81C13.0283 12.95 12.8825 13.02 12.6725 13.02C12.5675 13.02 12.4392 12.9792 12.2875 12.8975C12.0542 12.7808 11.8033 12.705 11.535 12.67C11.4183 12.6583 11.2667 12.67 11.08 12.705C10.7417 12.7517 10.4442 12.8683 10.1875 13.055C9.8375 13.3 9.5925 13.65 9.4525 14.105C9.39417 14.3383 9.28625 14.4871 9.12875 14.5513C8.97125 14.6154 8.81667 14.6038 8.665 14.5163C8.51333 14.4288 8.42 14.2858 8.385 14.0875C8.29167 13.7958 8.14 13.5333 7.93 13.3C7.55667 12.88 7.0725 12.67 6.4775 12.67C6.25583 12.67 6.06333 12.6933 5.9 12.74C5.80667 12.775 5.68708 12.8304 5.54125 12.9063C5.39542 12.9821 5.27 13.02 5.165 13.02C5.06 13.02 4.96083 12.9908 4.8675 12.9325C4.7275 12.8508 4.6575 12.705 4.6575 12.495C4.6575 12.39 4.69833 12.2617 4.78 12.11C4.89667 11.8767 4.9725 11.6258 5.0075 11.3575C5.0425 10.9142 4.93167 10.4883 4.675 10.08C4.395 9.66 4.02167 9.39167 3.555 9.275C3.40333 9.22833 3.30125 9.18458 3.24875 9.14375C3.19625 9.10292 3.1525 9.02708 3.1175 8.91625C3.0825 8.80542 3.0825 8.6975 3.1175 8.5925C3.16417 8.4175 3.31583 8.295 3.5725 8.225C3.77083 8.16667 3.975 8.06167 4.185 7.91C4.59333 7.63 4.85 7.26833 4.955 6.825C4.97833 6.74333 4.99 6.62667 4.99 6.475V6.3C4.99 6.03167 4.96667 5.81583 4.92 5.6525C4.89667 5.55917 4.85 5.46 4.78 5.355C4.73333 5.29667 4.70125 5.24417 4.68375 5.1975C4.66625 5.15083 4.6575 5.08667 4.6575 5.005C4.6575 4.80667 4.73917 4.65792 4.9025 4.55875C5.06583 4.45958 5.2175 4.445 5.3575 4.515C5.61417 4.64333 5.81542 4.72792 5.96125 4.76875C6.10708 4.80958 6.27917 4.83 6.4775 4.83C6.9675 4.83 7.39333 4.68417 7.755 4.3925C8.08167 4.12417 8.2975 3.79167 8.4025 3.395C8.4375 3.255 8.4725 3.16167 8.5075 3.115C8.5425 3.06833 8.60083 3.02167 8.6825 2.975C8.74083 2.95167 8.82542 2.94 8.93625 2.94C9.04708 2.94 9.12583 2.95167 9.1725 2.975C9.26583 3.02167 9.33583 3.08583 9.3825 3.1675C9.40583 3.22583 9.435 3.31917 9.47 3.4475C9.54 3.66917 9.62167 3.85 9.715 3.99C9.87833 4.22333 10.135 4.43333 10.485 4.62C10.835 4.80667 11.1908 4.87667 11.5525 4.83C11.7625 4.80667 12.0192 4.73083 12.3225 4.6025C12.4975 4.52083 12.6142 4.48 12.6725 4.48C12.8708 4.48 13.0196 4.56167 13.1187 4.725C13.2179 4.88833 13.2325 5.04 13.1625 5.18C13.0342 5.43667 12.9496 5.63792 12.9087 5.78375C12.8679 5.92958 12.8475 6.10167 12.8475 6.3C12.8475 6.60333 12.9117 6.90083 13.04 7.1925C13.285 7.70583 13.6992 8.04417 14.2825 8.2075C14.5625 8.28917 14.72 8.44083 14.755 8.6625C14.7667 8.79083 14.7492 8.90167 14.7025 8.995C14.6558 9.08833 14.5858 9.16417 14.4925 9.2225C14.4458 9.24583 14.3525 9.275 14.2125 9.31C13.9908 9.38 13.8158 9.46167 13.6875 9.555C13.4542 9.70667 13.2442 9.96333 13.0575 10.325C12.9875 10.4883 12.935 10.6342 12.9 10.7625C12.865 10.8908 12.8475 11.0367 12.8475 11.2C12.8475 11.3983 12.8708 11.5792 12.9175 11.7425C12.9525 11.8358 13.005 11.9525 13.075 12.0925C13.1567 12.2558 13.1975 12.39 13.1975 12.495ZM7.6325 6.1425C7.0025 6.4575 6.5475 6.93 6.2675 7.56C6.01083 8.14333 5.9525 8.75583 6.0925 9.3975C6.2325 10.0392 6.54167 10.5642 7.02 10.9725C7.55667 11.4275 8.21583 11.655 8.9975 11.655C9.5575 11.6433 10.065 11.4858 10.52 11.1825C10.9517 10.9025 11.2871 10.535 11.5262 10.08C11.7654 9.625 11.8733 9.14083 11.85 8.6275C11.8267 8.07917 11.6575 7.57167 11.3425 7.105C11.1092 6.755 10.8 6.46917 10.415 6.2475C10.0183 6.0025 9.58667 5.86833 9.12 5.845C8.60667 5.81 8.11083 5.90917 7.6325 6.1425ZM8.6125 10.1675C8.32083 10.1092 8.07583 9.975 7.8775 9.765C7.67917 9.555 7.55083 9.30708 7.4925 9.02125C7.43417 8.73542 7.46333 8.45833 7.58 8.19C7.70833 7.88667 7.9125 7.65333 8.1925 7.49C8.4725 7.32667 8.77583 7.2625 9.1025 7.2975C9.42917 7.3325 9.70917 7.46667 9.9425 7.7C10.1758 7.93333 10.3158 8.2075 10.3625 8.5225C10.4092 8.8375 10.3625 9.135 10.2225 9.415C10.0825 9.695 9.87833 9.905 9.61 10.045C9.30667 10.1967 8.97417 10.2375 8.6125 10.1675Z" fill="var(--fill-0, #94A3B8)"/>
</g>
</svg>
