<svg preserveAspectRatio="none" width="100%" height="100%" overflow="visible" style="display: block;" viewBox="0 0 24 24" fill="none" xmlns="http://www.w3.org/2000/svg">
<g id="SVG">
<path id="Vector" fill-rule="evenodd" clip-rule="evenodd" d="M13.2 6C13.2067 6.0665 13.2067 6.1335 13.2 6.2L10.6 16.2C10.5532 16.4293 10.4276 16.6349 10.2449 16.7811C10.0621 16.9272 9.83395 17.0047 9.6 17H9.4C9.27578 17.004 9.15234 16.9789 9.03948 16.9269C8.92662 16.8748 8.82744 16.7972 8.7498 16.7002C8.67216 16.6031 8.6182 16.4893 8.5922 16.3678C8.56619 16.2462 8.56887 16.1203 8.6 16L11.2 6H8C7.73478 6 7.48043 5.89464 7.29289 5.70711C7.10536 5.51957 7 5.26522 7 5C7 4.73478 7.10536 4.48043 7.29289 4.29289C7.48043 4.10536 7.73478 4 8 4H17C17.2652 4 17.5196 4.10536 17.7071 4.29289C17.8946 4.48043 18 4.73478 18 5C18 5.26522 17.8946 5.51957 17.7071 5.70711C17.5196 5.89464 17.2652 6 17 6H13.2ZM5 18H12C12.2652 18 12.5196 18.1054 12.7071 18.2929C12.8946 18.4804 13 18.7348 13 19C13 19.2652 12.8946 19.5196 12.7071 19.7071C12.5196 19.8946 12.2652 20 12 20H5C4.73478 20 4.48043 19.8946 4.29289 19.7071C4.10536 19.5196 4 19.2652 4 19C4 18.7348 4.10536 18.4804 4.29289 18.2929C4.48043 18.1054 4.73478 18 5 18ZM18 19.5L16.5 18L15 19.5C14.8674 19.6326 14.6875 19.7071 14.5 19.7071C14.3125 19.7071 14.1326 19.6326 14 19.5C13.8674 19.3674 13.7929 19.1875 13.7929 19C13.7929 18.8125 13.8674 18.6326 14 18.5L15.5 17L14 15.5C13.8674 15.3674 13.7929 15.1875 13.7929 15C13.7929 14.8125 13.8674 14.6326 14 14.5C14.1326 14.3674 14.3125 14.2929 14.5 14.2929C14.6875 14.2929 14.8674 14.3674 15 14.5L16.5 16L18 14.5C18.1326 14.3674 18.3125 14.2929 18.5 14.2929C18.6875 14.2929 18.8674 14.3674 19 14.5C19.1326 14.6326 19.2071 14.8125 19.2071 15C19.2071 15.1875 19.1326 15.3674 19 15.5L17.5 17L19 18.5C19.1326 18.6326 19.2071 18.8125 19.2071 19C19.2071 19.1875 19.1326 19.3674 19 19.5C18.8674 19.6326 18.6875 19.7071 18.5 19.7071C18.3125 19.7071 18.1326 19.6326 18 19.5Z" fill="var(--fill-0, #222F3E)"/>
</g>
</svg>
