<svg preserveAspectRatio="none" width="100%" height="100%" overflow="visible" style="display: block;" viewBox="0 0 17.93 17.5" fill="none" xmlns="http://www.w3.org/2000/svg">
<g id="Icon">
<path id="Vector" d="M7.3025 15.365C7.48917 15.645 7.75167 15.8725 8.09 16.0475C8.42833 16.2225 8.79 16.2983 9.175 16.275C9.595 16.2633 9.98 16.1233 10.33 15.855C10.4117 15.785 10.4992 15.7033 10.5925 15.61C10.6858 15.5167 10.7558 15.435 10.8025 15.365C10.8725 15.26 11.8933 13.5567 13.865 10.255C15.8367 6.95333 16.84 5.2675 16.875 5.1975C17.05 4.8475 17.1083 4.45958 17.05 4.03375C16.9917 3.60792 16.8225 3.23167 16.5425 2.905C16.2392 2.555 15.8483 2.3275 15.37 2.2225C15.3233 2.21083 15.195 2.205 14.985 2.205H2.8575C2.23917 2.345 1.7725 2.61917 1.4575 3.0275C1.18917 3.36583 1.04917 3.7625 1.0375 4.2175C1.02583 4.61417 1.09583 4.95833 1.2475 5.25C1.27083 5.30833 2.27125 6.98542 4.24875 10.2812C6.22625 13.5771 7.24417 15.2717 7.3025 15.365ZM15.1425 3.675C15.3875 3.76833 15.5333 3.92583 15.58 4.1475C15.6267 4.31083 15.615 4.4625 15.545 4.6025C15.51 4.6725 14.5067 6.3525 12.535 9.6425C10.5633 12.9325 9.56 14.595 9.525 14.63C9.42 14.7583 9.27417 14.8225 9.0875 14.8225C8.86583 14.8225 8.69667 14.7525 8.58 14.6125C8.545 14.5775 7.54167 12.9179 5.57 9.63375C3.59833 6.34958 2.58917 4.66083 2.5425 4.5675C2.48417 4.43917 2.4725 4.29333 2.5075 4.13C2.56583 3.92 2.7175 3.76833 2.9625 3.675H15.1425ZM8.335 11.0775C8.38167 11.3342 8.51 11.5092 8.72 11.6025C8.93 11.6958 9.14292 11.6929 9.35875 11.5937C9.57458 11.4946 9.71167 11.3225 9.77 11.0775C9.78167 11.0308 9.7875 10.4942 9.7875 9.4675V8.33C9.7875 8.09667 9.78167 7.945 9.77 7.875C9.75833 7.805 9.735 7.74083 9.7 7.6825L9.6825 7.665C9.65917 7.61833 9.61542 7.56292 9.55125 7.49875C9.48708 7.43458 9.42583 7.38792 9.3675 7.35875C9.30917 7.32958 9.23917 7.315 9.1575 7.315H8.9475C8.86583 7.315 8.79875 7.32958 8.74625 7.35875C8.69375 7.38792 8.6325 7.43458 8.5625 7.49875C8.4925 7.56292 8.44583 7.61833 8.4225 7.665L8.405 7.6825C8.37 7.74083 8.34667 7.805 8.335 7.875C8.32333 7.945 8.3175 8.09667 8.3175 8.33V9.4675C8.3175 10.4942 8.32333 11.0308 8.335 11.0775ZM8.8775 6.545C8.67917 6.51 8.53625 6.40792 8.44875 6.23875C8.36125 6.06958 8.33208 5.88583 8.36125 5.6875C8.39042 5.48917 8.48375 5.33167 8.64125 5.215C8.79875 5.09833 9.00583 5.06917 9.2625 5.1275C9.41417 5.17417 9.53958 5.26458 9.63875 5.39875C9.73792 5.53292 9.7875 5.67583 9.7875 5.8275C9.7875 6.06083 9.69417 6.25042 9.5075 6.39625C9.32083 6.54208 9.11083 6.59167 8.8775 6.545Z" fill="var(--fill-0, #C2410C)"/>
</g>
</svg>
