<svg preserveAspectRatio="none" width="100%" height="100%" overflow="visible" style="display: block;" viewBox="0 0 17.68 17.5" fill="none" xmlns="http://www.w3.org/2000/svg">
<g id="Icon">
<path id="Vector" d="M7.3175 16.03C7.3175 16.03 7.32917 16.03 7.3525 16.03C8.6125 16.0417 9.88417 16.0475 11.1675 16.0475H14.44C14.825 16.0358 15.0408 16.0242 15.0875 16.0125C15.3208 15.9425 15.5075 15.855 15.6475 15.75C15.9158 15.5283 16.1025 15.2133 16.2075 14.805L16.225 8.4875C16.225 4.2525 16.2192 2.11167 16.2075 2.065C16.1842 1.91333 16.12 1.78208 16.015 1.67125C15.91 1.56042 15.7817 1.49333 15.63 1.47C15.56 1.45833 13.3258 1.4525 8.9275 1.4525C4.52917 1.4525 2.295 1.45833 2.225 1.47C2.085 1.49333 1.95958 1.56042 1.84875 1.67125C1.73792 1.78208 1.67083 1.9075 1.6475 2.0475C1.63583 2.09417 1.63 2.9925 1.63 4.7425V6.6675C1.63 7.04083 1.64167 7.28583 1.665 7.4025C1.665 7.48417 1.6825 7.56 1.7175 7.63L1.735 7.6475C1.78167 7.7175 2.435 8.3825 3.695 9.6425L5.235 11.165C5.45667 11.375 5.6025 11.5092 5.6725 11.5675C5.73083 11.6025 5.795 11.6317 5.865 11.655L6.005 11.6725V14.5775C6.01667 14.7525 6.02833 14.8633 6.04 14.91C6.11 15.155 6.20333 15.3533 6.32 15.505C6.55333 15.7733 6.88583 15.9483 7.3175 16.03ZM7.475 14.5775V10.5175L9.855 8.12C10.0533 7.92167 10.1817 7.7875 10.24 7.7175C10.2983 7.6475 10.3392 7.57167 10.3625 7.49L10.38 5.1975V2.9225H14.755V14.5775H7.475ZM8.9275 12.39C8.9275 12.6583 9.02958 12.8567 9.23375 12.985C9.43792 13.1133 9.65667 13.1425 9.89 13.0725C10.1233 13.0025 10.2808 12.845 10.3625 12.6C10.4092 12.39 10.3888 12.2063 10.3013 12.0488C10.2138 11.8913 10.0825 11.7804 9.9075 11.7163C9.7325 11.6521 9.56042 11.6521 9.39125 11.7163C9.22208 11.7804 9.09083 11.9058 8.9975 12.0925L8.98 12.11C8.95667 12.1567 8.94208 12.1975 8.93625 12.2325C8.93042 12.2675 8.9275 12.32 8.9275 12.39ZM12.6025 13.125C12.7775 13.125 12.9379 13.0521 13.0838 12.9063C13.2296 12.7604 13.3025 12.5883 13.3025 12.39C13.3025 12.145 13.2092 11.9554 13.0225 11.8213C12.8358 11.6871 12.6288 11.6433 12.4013 11.69C12.1738 11.7367 12.0075 11.8708 11.9025 12.0925C11.8442 12.2208 11.8296 12.3667 11.8588 12.53C11.8879 12.6933 11.955 12.8275 12.06 12.9325C12.2 13.0608 12.3808 13.125 12.6025 13.125ZM11.8675 9.4675C11.8675 9.77083 11.9667 9.98083 12.165 10.0975C12.3633 10.2142 12.5792 10.2317 12.8125 10.15C13.0458 10.0683 13.1946 9.91958 13.2588 9.70375C13.3229 9.48792 13.3113 9.30125 13.2238 9.14375C13.1363 8.98625 13.005 8.8725 12.83 8.8025C12.655 8.7325 12.48 8.72667 12.305 8.785C12.13 8.84333 12.0017 8.96583 11.92 9.1525C11.8967 9.19917 11.8821 9.23417 11.8763 9.2575C11.8704 9.28083 11.8675 9.32167 11.8675 9.38V9.4675ZM5.2875 5.285C5.3925 5.46 5.48 5.5825 5.55 5.6525C5.66667 5.76917 5.80667 5.8275 5.97 5.8275C6.33167 5.8275 6.57667 5.65833 6.705 5.32C6.71667 5.27333 6.72833 5.18583 6.74 5.0575V2.9225H8.9275V7C7.95917 7.96833 6.985 8.93667 6.005 9.905C5.03667 8.93667 4.06833 7.9625 3.1 6.9825V2.9225H5.2875V5.285ZM12.3925 7.2625C12.0425 7.18083 11.8675 6.9475 11.8675 6.5625C11.8675 6.3175 11.9492 6.12792 12.1125 5.99375C12.2758 5.85958 12.4625 5.80708 12.6725 5.83625C12.8825 5.86542 13.0517 5.97333 13.18 6.16C13.2967 6.32333 13.3317 6.50417 13.285 6.7025C13.2383 6.90083 13.1304 7.05833 12.9613 7.175C12.7921 7.29167 12.6025 7.32083 12.3925 7.2625Z" fill="var(--fill-0, #697D95)"/>
</g>
</svg>
