<svg preserveAspectRatio="none" width="100%" height="100%" overflow="visible" style="display: block;" viewBox="0 0 16.16 15.5" fill="none" xmlns="http://www.w3.org/2000/svg">
<g id="Icon">
<path id="Vector" d="M4.1275 12.2605C3.96217 12.2192 3.833 12.1262 3.74 11.9815C3.647 11.8368 3.616 11.6818 3.647 11.5165V11.4855C3.66767 11.4132 3.69867 11.346 3.74 11.284C3.81233 11.191 3.9725 11.0153 4.2205 10.757L7.2275 7.75L4.2205 4.743C3.9725 4.48467 3.81233 4.309 3.74 4.216C3.69867 4.154 3.66767 4.08683 3.647 4.0145V3.9835C3.62633 3.84917 3.64958 3.72 3.71675 3.596C3.78392 3.472 3.8795 3.37642 4.0035 3.30925C4.1275 3.24208 4.25667 3.21883 4.391 3.2395H4.422C4.484 3.26017 4.546 3.286 4.608 3.317C4.68033 3.36867 4.81467 3.49267 5.011 3.689L8.1575 6.82L11.1645 3.813C11.4228 3.565 11.5985 3.40483 11.6915 3.3325C11.7535 3.29117 11.8207 3.26017 11.893 3.2395H11.924C12.141 3.2085 12.327 3.26792 12.482 3.41775C12.637 3.56758 12.699 3.75617 12.668 3.9835V4.0145C12.6473 4.08683 12.6163 4.154 12.575 4.216C12.5027 4.309 12.3425 4.48467 12.0945 4.743L9.0875 7.75L12.0945 10.757C12.3425 11.0153 12.5027 11.191 12.575 11.284C12.6163 11.346 12.6473 11.4132 12.668 11.4855V11.5165C12.6887 11.6508 12.6654 11.78 12.5982 11.904C12.5311 12.028 12.4355 12.1236 12.3115 12.1907C12.1875 12.2579 12.0583 12.2812 11.924 12.2605H11.893C11.8207 12.2398 11.7535 12.2088 11.6915 12.1675C11.5985 12.0952 11.4228 11.935 11.1645 11.687L8.1575 8.68L5.135 11.687C4.87667 11.935 4.70617 12.0952 4.6235 12.1675C4.5615 12.2088 4.49433 12.2398 4.422 12.2605H4.3755C4.26183 12.2812 4.17917 12.2812 4.1275 12.2605Z" fill="var(--fill-0, #1E293B)"/>
</g>
</svg>
