<svg preserveAspectRatio="none" width="100%" height="100%" overflow="visible" style="display: block;" viewBox="0 0 24 24" fill="none" xmlns="http://www.w3.org/2000/svg">
<g id="SVG">
<path id="Vector" d="M6.4 8H12C15.7 8 18.2 10 18.8 13.1C19.4 15.8 18.4 18.7 16.5 19.9C16.3818 19.9657 16.2518 20.0074 16.1175 20.0228C15.9832 20.0383 15.8472 20.0271 15.7172 19.99C15.5872 19.9528 15.4657 19.8904 15.3598 19.8064C15.254 19.7223 15.1657 19.6182 15.1 19.5C15.0343 19.3818 14.9926 19.2518 14.9772 19.1175C14.9617 18.9832 14.9729 18.8472 15.0101 18.7172C15.0472 18.5872 15.1096 18.4657 15.1936 18.3598C15.2777 18.254 15.3818 18.1657 15.5 18.1C16.6 17.5 17.3 15.4 16.9 13.5C16.4 11.4 14.8 10 12 10H6.4L9.7 13.3C9.81462 13.386 9.90943 13.4956 9.978 13.6213C10.0466 13.7471 10.0873 13.8862 10.0975 14.0291C10.1076 14.172 10.087 14.3154 10.0369 14.4497C9.98677 14.5839 9.90842 14.7058 9.80711 14.8071C9.7058 14.9084 9.5839 14.9868 9.44968 15.0369C9.31545 15.087 9.17202 15.1076 9.02911 15.0975C8.8862 15.0873 8.74714 15.0466 8.62135 14.978C8.49555 14.9094 8.38596 14.8146 8.3 14.7L3.3 9.7C3.11677 9.51307 3.01414 9.26175 3.01414 9C3.01414 8.73825 3.11677 8.48693 3.3 8.3L8.3 3.3C8.49257 3.15557 8.73078 3.08545 8.97089 3.10252C9.211 3.11958 9.4369 3.22268 9.60711 3.39289C9.77732 3.5631 9.88042 3.789 9.89748 4.02911C9.91455 4.26922 9.84443 4.50743 9.7 4.7L6.4 8Z" fill="var(--fill-0, #222F3E)" fill-opacity="0.5"/>
</g>
</svg>
