<svg preserveAspectRatio="none" width="100%" height="100%" overflow="visible" style="display: block;" viewBox="0 0 17.68 17.5" fill="none" xmlns="http://www.w3.org/2000/svg">
<g id="Icon">
<path id="Vector" d="M4.1675 9.8175C3.5725 10.4125 3.2225 11.1125 3.1175 11.9175C3.02417 12.6525 3.1525 13.3613 3.5025 14.0438C3.8525 14.7263 4.34833 15.2483 4.99 15.61C5.69 15.995 6.45417 16.1233 7.2825 15.995C7.85417 15.9017 8.34417 15.715 8.7525 15.435C9.4175 14.9917 9.88417 14.4142 10.1525 13.7025C10.3975 13.0375 10.4442 12.3463 10.2925 11.6288C10.1408 10.9112 9.80833 10.3017 9.295 9.8C8.75833 9.25167 8.09333 8.91333 7.3 8.785C6.985 8.72667 6.62333 8.72667 6.215 8.785C5.41 8.91333 4.7275 9.2575 4.1675 9.8175ZM11.7275 14.49C11.4475 14.5717 11.2638 14.7292 11.1763 14.9625C11.0888 15.1958 11.1092 15.4175 11.2375 15.6275C11.3658 15.8375 11.5758 15.9425 11.8675 15.9425C12.1125 15.9425 12.4042 15.855 12.7425 15.68C13.1275 15.4817 13.4717 15.2192 13.775 14.8925C14.1367 14.5075 14.3992 14.0817 14.5625 13.615C14.7608 13.0667 14.8192 12.4833 14.7375 11.865C14.6325 11.2117 14.3817 10.6342 13.985 10.1325C13.6583 9.72417 13.2617 9.3975 12.795 9.1525C12.3983 8.9425 12.0658 8.8375 11.7975 8.8375C11.5525 8.84917 11.3658 8.96 11.2375 9.17C11.1092 9.38 11.08 9.59 11.15 9.8C11.2317 10.045 11.4242 10.2083 11.7275 10.29C12.2292 10.4533 12.62 10.7392 12.9 11.1475C13.1683 11.5092 13.3025 11.9204 13.3025 12.3813C13.3025 12.8421 13.1742 13.2592 12.9175 13.6325C12.6375 14.0292 12.2408 14.315 11.7275 14.49ZM8.8575 11.865C8.9975 12.4017 8.945 12.9033 8.7 13.37C8.46667 13.8017 8.1225 14.1283 7.6675 14.35C7.2125 14.5717 6.74583 14.6358 6.2675 14.5425C5.7425 14.4258 5.31083 14.1342 4.9725 13.6675C4.6925 13.2942 4.5525 12.88 4.5525 12.425C4.5525 12.005 4.66917 11.6113 4.9025 11.2437C5.13583 10.8762 5.43917 10.605 5.8125 10.43C6.2325 10.2317 6.67 10.1733 7.125 10.255C7.55667 10.3367 7.92708 10.5233 8.23625 10.815C8.54542 11.1067 8.7525 11.4567 8.8575 11.865ZM5.025 7.28C5.025 7.28 5.04833 7.28 5.095 7.28C5.725 7.29167 6.3025 7.2975 6.8275 7.2975H8.315C8.51333 7.28583 8.65333 7.27417 8.735 7.2625C9.34167 7.1575 9.8725 6.94167 10.3275 6.615C11.0042 6.13667 11.465 5.46 11.71 4.585L11.7275 4.515C11.7742 4.31667 11.8033 4.15333 11.815 4.025C11.8383 3.83833 11.85 3.52333 11.85 3.08C11.85 2.45 11.8442 2.11167 11.8325 2.065C11.7975 1.84333 11.6808 1.67708 11.4825 1.56625C11.2842 1.45542 11.08 1.43208 10.87 1.49625C10.66 1.56042 10.5083 1.72083 10.415 1.9775C10.3917 2.02417 10.38 2.36833 10.38 3.01C10.3683 3.535 10.3596 3.85292 10.3538 3.96375C10.3479 4.07458 10.3158 4.20583 10.2575 4.3575C10.1525 4.68417 9.97458 4.97292 9.72375 5.22375C9.47292 5.47458 9.18417 5.64667 8.8575 5.74C8.72917 5.78667 8.59792 5.81292 8.46375 5.81875C8.32958 5.82458 7.97667 5.8275 7.405 5.8275H6.74C5.71333 5.8275 5.10667 5.81583 4.92 5.7925C4.465 5.71083 4.07417 5.5125 3.7475 5.1975C3.47917 4.92917 3.29833 4.63167 3.205 4.305C3.15833 4.15333 3.12917 4.01333 3.1175 3.885C3.10583 3.73333 3.1 3.43583 3.1 2.9925C3.1 2.40917 3.09417 2.09417 3.0825 2.0475C3.02417 1.8025 2.88708 1.63333 2.67125 1.54C2.45542 1.44667 2.2425 1.44667 2.0325 1.54C1.8225 1.63333 1.69417 1.80833 1.6475 2.065C1.63583 2.11167 1.63 2.45 1.63 3.08C1.63 3.71 1.67667 4.20583 1.77 4.5675C1.92167 5.20917 2.23083 5.76333 2.6975 6.23C3.0125 6.545 3.35667 6.78417 3.73 6.9475C4.10333 7.11083 4.535 7.22167 5.025 7.28ZM13.18 7.175C13.04 7.15167 12.9117 7.07875 12.795 6.95625C12.6783 6.83375 12.6083 6.685 12.585 6.51C12.5617 6.335 12.6083 6.16583 12.725 6.0025C12.7833 5.9325 12.9467 5.83917 13.215 5.7225C13.5767 5.55917 13.845 5.40167 14.02 5.25C14.335 4.98167 14.5567 4.62 14.685 4.165L14.7375 3.955L14.755 3.01C14.755 2.36833 14.7667 2.02417 14.79 1.9775C14.8833 1.7325 15.0321 1.575 15.2363 1.505C15.4404 1.435 15.6417 1.4525 15.84 1.5575C16.0383 1.6625 16.1608 1.82583 16.2075 2.0475C16.2192 2.10583 16.225 2.40042 16.225 2.93125C16.225 3.46208 16.2192 3.7975 16.2075 3.9375C16.1608 4.50917 15.9975 5.02833 15.7175 5.495C15.4725 5.88 15.1633 6.21833 14.79 6.51C14.4867 6.755 14.1658 6.93583 13.8275 7.0525C13.5358 7.16917 13.32 7.21 13.18 7.175Z" fill="var(--fill-0, #697D95)"/>
</g>
</svg>
