<svg preserveAspectRatio="none" width="100%" height="100%" overflow="visible" style="display: block;" viewBox="0 0 24 21" fill="none" xmlns="http://www.w3.org/2000/svg">
<g id="SVG">
<path id="Vector" d="M9.375 6.125H14.625M14.625 14.875V12.25M12 14.875H12.0088M9.375 14.875H9.38375M9.375 12.25H9.38375M12 12.25H12.0088M14.625 9.625H14.6338M12 9.625H12.0088M9.375 9.625H9.38375M7.625 18.375H16.375C16.8391 18.375 17.2842 18.1906 17.6124 17.8624C17.9406 17.5342 18.125 17.0891 18.125 16.625V4.375C18.125 3.91087 17.9406 3.46575 17.6124 3.13756C17.2842 2.80937 16.8391 2.625 16.375 2.625H7.625C7.16087 2.625 6.71575 2.80937 6.38756 3.13756C6.05937 3.46575 5.875 3.91087 5.875 4.375V16.625C5.875 17.0891 6.05937 17.5342 6.38756 17.8624C6.71575 18.1906 7.16087 18.375 7.625 18.375Z" stroke="var(--stroke-0, #64748B)" stroke-width="1.3125" stroke-linecap="round" stroke-linejoin="round"/>
</g>
</svg>
