<svg preserveAspectRatio="none" width="100%" height="100%" overflow="visible" style="display: block;" viewBox="0 0 17.68 17.5" fill="none" xmlns="http://www.w3.org/2000/svg">
<g id="Icon">
<path id="Vector" d="M10.415 15.3125C10.59 15.3125 10.7475 15.2454 10.8875 15.1112C11.0275 14.9771 11.1033 14.8167 11.115 14.63C11.115 14.5133 10.625 12.495 9.645 8.575C8.665 4.655 8.1575 2.66 8.1225 2.59C8.00583 2.36833 7.83667 2.24 7.615 2.205C7.39333 2.17 7.19208 2.21958 7.01125 2.35375C6.83042 2.48792 6.74 2.66 6.74 2.87C6.72833 2.95167 7.21542 4.96125 8.20125 8.89875C9.18708 12.8363 9.6975 14.84 9.7325 14.91C9.8725 15.1783 10.1 15.3125 10.415 15.3125ZM5.9875 5.845C5.9875 5.54167 5.87667 5.33167 5.655 5.215C5.53833 5.145 5.41 5.11 5.27 5.11H5.2C5.11833 5.11 5.04833 5.12458 4.99 5.15375C4.93167 5.18292 4.82667 5.27333 4.675 5.425L2.0675 8.015C1.8925 8.20167 1.78458 8.32708 1.74375 8.39125C1.70292 8.45542 1.67083 8.5225 1.6475 8.5925V8.6275C1.62417 8.7325 1.61833 8.81417 1.63 8.8725C1.64167 8.95417 1.69708 9.05625 1.79625 9.17875C1.89542 9.30125 2.06167 9.485 2.295 9.73L3.2925 10.7275C3.89917 11.3342 4.29 11.7192 4.465 11.8825C4.71 12.1158 4.885 12.2617 4.99 12.32C5.07167 12.3667 5.17375 12.39 5.29625 12.39C5.41875 12.39 5.53833 12.355 5.655 12.285C5.87667 12.1683 5.9875 11.9583 5.9875 11.655V11.6025C5.9875 11.5092 5.97 11.4304 5.935 11.3662C5.9 11.3021 5.80667 11.1825 5.655 11.0075C5.53833 10.8908 5.27 10.6225 4.85 10.2025L3.415 8.75L4.85 7.2975C5.27 6.8775 5.53833 6.60917 5.655 6.4925C5.80667 6.3175 5.9 6.19792 5.935 6.13375C5.97 6.06958 5.9875 5.99083 5.9875 5.8975V5.845ZM12.3225 12.355C12.1242 12.2733 11.99 12.1567 11.92 12.005C11.885 11.9233 11.8675 11.8067 11.8675 11.655V11.6025C11.8675 11.5092 11.885 11.4304 11.92 11.3662C11.955 11.3021 12.0483 11.1825 12.2 11.0075C12.3167 10.8908 12.585 10.6225 13.005 10.2025L14.44 8.75L13.005 7.2975C12.585 6.8775 12.3167 6.60917 12.2 6.4925C12.0483 6.3175 11.955 6.19792 11.92 6.13375C11.885 6.06958 11.8675 5.99083 11.8675 5.8975V5.845C11.8675 5.57667 11.955 5.37833 12.13 5.25C12.2583 5.15667 12.41 5.11 12.585 5.11H12.655C12.7367 5.11 12.8067 5.12458 12.865 5.15375C12.9233 5.18292 13.0283 5.27333 13.18 5.425L15.7875 8.015C15.9625 8.20167 16.0704 8.32708 16.1112 8.39125C16.1521 8.45542 16.1842 8.5225 16.2075 8.5925V8.6275C16.2192 8.70917 16.2192 8.79083 16.2075 8.8725V8.9075C16.1842 8.9775 16.1521 9.04458 16.1112 9.10875C16.0704 9.17292 15.9625 9.29833 15.7875 9.485L13.1275 12.145C13.0225 12.2383 12.9437 12.2996 12.8912 12.3287C12.8387 12.3579 12.795 12.3754 12.76 12.3812C12.725 12.3871 12.6725 12.39 12.6025 12.39C12.4742 12.39 12.3808 12.3783 12.3225 12.355Z" fill="var(--fill-0, #475569)"/>
</g>
</svg>
