<svg preserveAspectRatio="none" width="100%" height="100%" overflow="visible" style="display: block;" viewBox="0 0 15.92 15.5097" fill="none" xmlns="http://www.w3.org/2000/svg">
<g id="Icon">
<path id="Vector" d="M4.00502 10.3295C3.83958 10.2881 3.71033 10.1951 3.61727 10.0503C3.52421 9.90556 3.49319 9.75046 3.52421 9.58502V9.554C3.54489 9.48162 3.58108 9.40924 3.63278 9.33687C3.70516 9.24381 3.88611 9.04735 4.17562 8.7475L7.09145 5.83166C7.39131 5.54215 7.58777 5.3612 7.68082 5.28882C7.7532 5.23712 7.82558 5.20093 7.89796 5.18025H7.92898C8.00136 5.16991 8.07374 5.16991 8.14612 5.18025H8.17714C8.23918 5.19059 8.29604 5.21644 8.34774 5.2578C8.40978 5.29916 8.53386 5.4129 8.71998 5.59902L9.63505 6.49858L12.0391 8.90259C12.2665 9.13007 12.4061 9.28517 12.4578 9.36788C12.4992 9.42992 12.5302 9.49196 12.5509 9.554V9.58502C12.5716 9.71944 12.5483 9.84869 12.4811 9.97276C12.4139 10.0968 12.3182 10.1925 12.1942 10.2597C12.0701 10.3269 11.9408 10.3502 11.8064 10.3295H11.7754C11.703 10.3088 11.6358 10.2778 11.5738 10.2364C11.4807 10.1641 11.3049 10.0038 11.0464 9.75563L8.03755 6.74674L5.01315 9.75563C4.75465 10.0038 4.58405 10.1641 4.50133 10.2364C4.43929 10.2778 4.37208 10.3088 4.2997 10.3295H4.25317C4.13943 10.3502 4.05671 10.3502 4.00502 10.3295Z" fill="var(--fill-0, #3B82F6)"/>
</g>
</svg>
