<svg preserveAspectRatio="none" width="100%" height="100%" overflow="visible" style="display: block;" viewBox="0 0 14.14 14" fill="none" xmlns="http://www.w3.org/2000/svg">
<g id="Icon">
<path id="Vector" d="M3.5 11.074C3.35067 11.0367 3.234 10.9527 3.15 10.822C3.066 10.6913 3.038 10.5513 3.066 10.402V10.374C3.08467 10.3087 3.11267 10.248 3.15 10.192C3.21533 10.108 3.36 9.94933 3.584 9.716L6.3 7L3.584 4.284C3.36 4.05067 3.21533 3.892 3.15 3.808C3.11267 3.752 3.08467 3.69133 3.066 3.626V3.598C3.04733 3.47667 3.06833 3.36 3.129 3.248C3.18967 3.136 3.276 3.04967 3.388 2.989C3.5 2.92833 3.61667 2.90733 3.738 2.926H3.766C3.822 2.94467 3.878 2.968 3.934 2.996C3.99933 3.04267 4.12067 3.15467 4.298 3.332L7.14 6.16L9.856 3.444C10.0893 3.22 10.248 3.07533 10.332 3.01C10.388 2.97267 10.4487 2.94467 10.514 2.926H10.542C10.738 2.898 10.906 2.95167 11.046 3.087C11.186 3.22233 11.242 3.39267 11.214 3.598V3.626C11.1953 3.69133 11.1673 3.752 11.13 3.808C11.0647 3.892 10.92 4.05067 10.696 4.284L7.98 7L10.696 9.716C10.92 9.94933 11.0647 10.108 11.13 10.192C11.1673 10.248 11.1953 10.3087 11.214 10.374V10.402C11.2327 10.5233 11.2117 10.64 11.151 10.752C11.0903 10.864 11.004 10.9503 10.892 11.011C10.78 11.0717 10.6633 11.0927 10.542 11.074H10.514C10.4487 11.0553 10.388 11.0273 10.332 10.99C10.248 10.9247 10.0893 10.78 9.856 10.556L7.14 7.84L4.41 10.556C4.17667 10.78 4.02267 10.9247 3.948 10.99C3.892 11.0273 3.83133 11.0553 3.766 11.074H3.724C3.62133 11.0927 3.54667 11.0927 3.5 11.074Z" fill="var(--fill-0, #64748B)"/>
</g>
</svg>
