<svg preserveAspectRatio="none" width="100%" height="100%" overflow="visible" style="display: block;" viewBox="0 0 24 21" fill="none" xmlns="http://www.w3.org/2000/svg">
<g id="SVG">
<path id="Vector" d="M19.875 11.5981C17.3729 12.6098 14.6989 13.1283 12 13.125C9.21487 13.125 6.5575 12.5825 4.125 11.5981M15.5 5.25V3.5C15.5 3.03587 15.3156 2.59075 14.9874 2.26256C14.6592 1.93437 14.2141 1.75 13.75 1.75H10.25C9.78587 1.75 9.34075 1.93437 9.01256 2.26256C8.68437 2.59075 8.5 3.03587 8.5 3.5V5.25M12 10.5H12.0088M5.875 17.5H18.125C18.5891 17.5 19.0342 17.3156 19.3624 16.9874C19.6906 16.6592 19.875 16.2141 19.875 15.75V7C19.875 6.53587 19.6906 6.09075 19.3624 5.76256C19.0342 5.43437 18.5891 5.25 18.125 5.25H5.875C5.41087 5.25 4.96575 5.43437 4.63756 5.76256C4.30937 6.09075 4.125 6.53587 4.125 7V15.75C4.125 16.2141 4.30937 16.6592 4.63756 16.9874C4.96575 17.3156 5.41087 17.5 5.875 17.5Z" stroke="var(--stroke-0, #64748B)" stroke-width="1.3125" stroke-linecap="round" stroke-linejoin="round"/>
</g>
</svg>
