<svg preserveAspectRatio="none" width="100%" height="100%" overflow="visible" style="display: block;" viewBox="0 0 17.68 17.5" fill="none" xmlns="http://www.w3.org/2000/svg">
<g id="Icon">
<path id="Vector" d="M6.5475 15.295C6.5825 15.3067 6.65833 15.3125 6.775 15.3125L6.9325 15.295C8.3325 14.6067 9.72667 13.9125 11.115 13.2125C12.5033 13.9125 13.8975 14.6067 15.2975 15.295H15.49C15.7467 15.295 15.945 15.2017 16.085 15.015C16.155 14.91 16.1958 14.8108 16.2075 14.7175C16.2192 14.6708 16.225 13.6967 16.225 11.795V9.3625C16.2133 9.09417 16.2017 8.93667 16.19 8.89C16.12 8.68 15.9858 8.53417 15.7875 8.4525C15.5892 8.37083 15.3908 8.37083 15.1925 8.4525C14.9942 8.53417 14.86 8.68 14.79 8.89C14.7783 8.93667 14.7667 9.065 14.755 9.275V11.1825L14.7375 13.3875L11.85 11.9525V10.1325C11.85 8.9775 11.8383 8.34167 11.815 8.225C11.7683 8.05 11.675 7.91 11.535 7.805C11.395 7.7 11.2404 7.65042 11.0713 7.65625C10.9021 7.66208 10.7533 7.72917 10.625 7.8575C10.5317 7.95083 10.4733 8.0325 10.45 8.1025C10.415 8.2075 10.3975 8.40583 10.3975 8.6975C10.3858 8.9075 10.38 9.38583 10.38 10.1325V11.9525L8.9275 12.67C8.60083 12.8333 8.2625 13.0025 7.9125 13.1775L7.475 13.3875V5.565L9.2075 4.69C9.3125 4.63167 9.38833 4.57917 9.435 4.5325C9.59833 4.36917 9.67125 4.1825 9.65375 3.9725C9.63625 3.7625 9.54875 3.5875 9.39125 3.4475C9.23375 3.3075 9.04417 3.255 8.8225 3.29C8.7525 3.30167 8.385 3.47083 7.72 3.7975L6.74 4.2875C5.35167 3.5875 3.9575 2.89333 2.5575 2.205H2.365C2.10833 2.205 1.91 2.29833 1.77 2.485C1.7 2.59 1.65917 2.68917 1.6475 2.7825C1.63583 2.84083 1.63 4.46542 1.63 7.65625C1.63 10.8471 1.63583 12.4717 1.6475 12.53C1.65917 12.6583 1.72917 12.7867 1.8575 12.915C1.90417 12.9617 2.04417 13.0433 2.2775 13.16C2.54583 13.3 3.1875 13.6267 4.2025 14.14C4.92583 14.5017 5.69 14.875 6.495 15.26L6.5475 15.295ZM4.535 12.67L3.1 11.9525V4.1125L3.5375 4.3225C3.8875 4.4975 4.22583 4.66667 4.5525 4.83L6.005 5.5475V9.4675L5.9875 13.3875L5.55 13.1775C5.2 13.0025 4.86167 12.8333 4.535 12.67ZM13.7225 7.28C14.2008 7.32667 14.6792 7.25083 15.1575 7.0525C15.6708 6.8425 16.085 6.52167 16.4 6.09C16.75 5.6 16.925 5.02833 16.925 4.375C16.925 3.58167 16.6742 2.91667 16.1725 2.38C16.0908 2.28667 15.7817 2.00083 15.245 1.5225L14.9125 1.2425C14.6325 1.00917 14.4488 0.86625 14.3613 0.81375C14.2738 0.76125 14.16 0.735 14.02 0.735C13.95 0.735 13.8975 0.737917 13.8625 0.74375C13.8275 0.749583 13.7867 0.764167 13.74 0.7875L13.7225 0.805C13.6175 0.851667 13.32 1.09083 12.83 1.5225C12.34 1.95417 12.0133 2.2575 11.85 2.4325C11.465 2.87583 11.2317 3.3775 11.15 3.9375C11.0683 4.45083 11.1267 4.95542 11.325 5.45125C11.5233 5.94708 11.8325 6.35833 12.2525 6.685C12.6842 7.02333 13.1742 7.22167 13.7225 7.28ZM13.81 5.81C13.425 5.72833 13.1217 5.55917 12.9 5.3025C12.7017 5.0575 12.5938 4.7775 12.5763 4.4625C12.5588 4.1475 12.6375 3.85583 12.8125 3.5875C12.9408 3.40083 13.3492 3.01 14.0375 2.415L14.3 2.6425C14.6733 2.98083 14.9358 3.2375 15.0875 3.4125C15.3325 3.71583 15.4725 4.00167 15.5075 4.27C15.5425 4.60833 15.4258 4.9525 15.1575 5.3025C14.8658 5.6525 14.5042 5.8275 14.0725 5.8275C14.0142 5.8275 13.9383 5.82167 13.845 5.81H13.81ZM13.88 5.0925C13.6817 5.0575 13.5242 4.94083 13.4075 4.7425C13.2908 4.54417 13.2675 4.34583 13.3375 4.1475C13.4308 3.87917 13.5971 3.71875 13.8363 3.66625C14.0754 3.61375 14.2942 3.66042 14.4925 3.80625C14.6908 3.95208 14.7783 4.15333 14.755 4.41C14.755 4.62 14.6646 4.79792 14.4838 4.94375C14.3029 5.08958 14.1017 5.13917 13.88 5.0925Z" fill="var(--fill-0, #334155)"/>
</g>
</svg>
