<svg preserveAspectRatio="none" width="100%" height="100%" overflow="visible" style="display: block;" viewBox="0 0 21 21" fill="none" xmlns="http://www.w3.org/2000/svg">
<g id="Item &#226;&#134;&#146; SVG">
<path id="Vector" fill-rule="evenodd" clip-rule="evenodd" d="M7.65765 15.4423C7.46081 15.2454 7.35022 14.9784 7.35022 14.7C7.35022 14.4216 7.46081 14.1546 7.65765 13.9577L11.1153 10.5L7.65765 7.04235C7.46638 6.84432 7.36055 6.57909 7.36294 6.30378C7.36533 6.02847 7.47576 5.76512 7.67044 5.57044C7.86512 5.37576 8.12847 5.26533 8.40378 5.26294C8.67909 5.26055 8.94432 5.36638 9.14235 5.55765L13.3423 9.75765C13.5392 9.95455 13.6498 10.2216 13.6498 10.5C13.6498 10.7784 13.5392 11.0454 13.3423 11.2423L9.14235 15.4423C8.94545 15.6392 8.67842 15.7498 8.4 15.7498C8.12158 15.7498 7.85455 15.6392 7.65765 15.4423Z" fill="var(--fill-0, #CBD5E1)"/>
</g>
</svg>
