<svg preserveAspectRatio="none" width="100%" height="100%" overflow="visible" style="display: block;" viewBox="0 0 168 176.842" fill="none" xmlns="http://www.w3.org/2000/svg">
<g id="service_address_placeholder.svg" clip-path="url(#clip0_338_766)">
<path id="Vector" d="M156.712 60.4119C154.09 60.8179 152.983 59.9691 151.47 56.6104C150.731 57.2379 150.031 57.8284 149.107 58.6404C148.592 57.4962 148.185 56.5366 147.743 55.5771C147.336 54.6174 146.894 54.4329 145.971 55.1711C145.343 55.6877 144.162 56.2414 143.646 55.9461C143.055 55.6509 142.76 54.4697 142.686 53.6209C142.575 52.4399 142.686 51.9232 140.951 51.8862C139.069 51.8494 137.187 50.5207 135.083 49.6717C134.751 51.7755 134.419 53.8424 134.05 55.9461C133.127 56.1676 132.204 56.3521 131.282 56.6104C128.366 57.3856 126.594 56.8319 124.823 54.3222C123.642 52.6614 122.682 50.8159 121.353 48.5645C123.789 47.9372 125.893 47.2728 128.071 46.9037C130.064 46.5715 133.902 43.582 134.419 41.6258C134.456 41.4413 134.493 41.2568 134.493 41.1092C134.124 39.1531 133.754 37.2338 133.348 35.0563C133.016 35.0563 132.315 35.167 131.688 35.0195C130.507 34.798 129.473 34.392 128.956 33.0633C128.735 32.5096 127.997 31.9191 127.406 31.7715C124.417 31.0703 123.752 30.4798 123.494 27.5641C123.42 26.4568 123.457 25.3496 123.494 24.2423C123.494 23.9101 123.531 23.6149 123.531 23.1351C116.629 19.0752 109.063 16.0119 101.017 14.1296C100.316 16.0489 99.098 17.1191 96.8835 17.4144C95.7025 17.562 94.5584 18.8169 93.6357 19.7765C91.864 21.6957 90.314 23.7626 88.6532 25.8294C86.1433 24.7959 85.2206 22.7291 84.335 20.4777C83.2276 17.6727 83.5598 15.0524 84.9255 12.5057C85.0361 12.3211 85.2207 12.1735 85.4421 12.0259C84.5195 12.1366 83.523 12.1366 82.5265 12.1366H82.2681C82.4156 12.2473 82.5265 12.358 82.6003 12.5057C82.8216 12.8378 82.6741 13.7236 82.3788 14.0189C80.9394 15.3107 79.3893 16.4547 77.8761 17.6727C75.7723 15.126 74.2223 14.7201 70.9004 15.6797C70.1624 15.9012 68.9074 16.0489 68.5384 15.6429C67.2097 14.2403 66.2501 15.126 65.2167 15.8274C63.9619 16.6762 62.8177 17.6359 61.489 18.374C59.496 19.4812 59.3115 23.2457 60.2342 24.6852C60.4925 25.0912 61.4152 25.4234 61.895 25.2757C63.9987 24.7591 65.8811 23.7626 67.0252 21.8434C67.5049 21.0314 67.9479 21.1052 68.8706 21.1791C69.9777 21.2527 71.3064 20.7731 72.2291 20.1087C74.2591 18.5954 74.5544 18.4847 76.3259 20.2562C76.6581 20.5884 76.9903 21.0314 77.3963 21.2897C78.7249 22.0279 78.688 22.9874 77.9868 24.1316C77.5069 24.9067 77.1748 25.7556 76.6949 26.7521C77.4701 26.9366 78.1344 27.0843 78.8726 27.2319C78.7618 28.0808 78.7249 28.9296 78.5034 29.7046C77.7284 32.4728 75.8093 34.7241 72.7459 32.2144C71.7124 31.3655 70.3837 31.6239 69.7564 32.8049C68.7967 34.6873 67.0621 34.8348 65.4381 34.761C61.7474 34.5765 58.3887 35.6468 55.1778 37.3076C54.8087 37.4921 54.3288 37.8243 54.0337 37.7506C51.7823 37.0125 50.4167 38.7101 48.7558 39.596C47.132 40.4818 45.471 41.3307 43.7733 42.0688C42.7029 42.5485 42.0755 43.0283 42.0018 44.4308C41.8171 46.9037 41.1898 49.3395 40.7099 51.96C38.6799 51.0742 38.3109 49.3765 38.0894 47.974C37.5359 44.4308 35.8751 43.8403 33.3284 43.3605C28.6411 42.4748 22.5513 45.3535 20.5952 49.5242C19.8202 51.185 19.8202 53.3625 20.0047 55.2449C20.1523 56.9057 22.1822 57.7546 24.1014 57.1272C25.2455 56.7581 26.4267 56.7212 26.685 57.9022C26.8325 58.6772 26.0575 59.6737 25.5409 60.5227C25.3194 60.8917 24.7659 61.0763 24.3967 61.3716C23.2157 62.3311 23.1419 63.3276 24.3967 64.2134C25.2825 64.8409 25.3564 65.3576 25.098 66.4279C23.9907 70.9306 26.1682 74.4368 30.6711 75.618C32.4057 76.0608 33.6236 75.2488 34.7309 73.9571C35.4691 73.0713 36.0226 71.7795 37.5359 72.038C37.9419 72.1116 38.3848 72.1855 38.7169 72.3701C40.8576 73.4403 42.9244 74.6953 45.102 75.6548C47.095 76.5407 49.0511 77.2418 50.4167 79.1612C50.9703 79.9362 52.0775 80.379 53.0002 80.7112C56.9493 82.2245 59.9389 84.8449 62.0795 88.4249C63.482 90.7871 64.7737 93.2229 66.0656 95.6589C66.7299 96.8768 67.5419 97.6149 68.9812 97.9471C72.0446 98.6114 74.9603 99.8663 77.2856 102.081C79.5369 104.221 79.8321 106.325 78.1713 108.982C77.5069 110.09 76.3998 110.902 75.6616 111.972C74.7758 113.301 73.7793 114.666 73.3364 116.18C72.2661 119.649 70.4207 122.675 68.0586 125.333C67.0252 126.514 65.2536 127.4 63.7035 127.695C61.0092 128.175 59.5329 129.909 58.1673 131.902C57.0232 133.6 55.6575 135.187 54.7718 136.996C53.3693 139.801 50.6381 140.982 48.313 142.605C44.7698 145.041 42.2231 148.289 41.0789 152.313C40.5623 154.121 41.4849 156.336 41.7433 158.328C41.9279 159.731 42.1863 161.133 42.4076 162.646C38.2003 161.022 35.5429 157.997 33.5499 154.416C32.7747 153.014 32.7009 151.204 32.3319 149.58C32.0736 148.4 32.0736 147.145 31.6306 146.075C30.4127 143.159 30.8556 140.206 31.2984 137.291C31.5567 135.593 31.5937 134.006 31.4092 132.234C31.1139 129.725 31.8152 127.104 32.1104 124.521C32.2581 123.266 32.5534 122.011 32.6641 120.756C32.7747 119.575 32.3319 118.652 31.7044 117.582C31.0032 116.327 30.9294 114.593 31.0032 113.079C31.0771 112.12 31.1509 111.64 30.2651 111.012C26.9802 108.724 23.9907 105.698 22.699 102.155C21.1119 97.7257 19.7832 92.7431 23.2895 88.1665C24.9134 86.0259 26.5004 83.7377 27.4232 81.2279C28.678 77.8323 27.866 76.2823 25.4302 74.8428C23.88 73.9571 22.8835 72.6285 22.7359 70.82C22.5882 68.9746 21.7393 67.6458 20.3737 66.5018C19.5618 65.8374 19.082 65.1731 19.6357 63.9919C20.1153 62.8848 19.6725 62.0728 18.4177 61.4823C15.9448 60.3381 13.2875 59.1571 12.6969 56.1676C12.4017 54.7282 12.4017 52.8827 13.1029 51.6649C16.4247 45.7227 20.6322 40.371 25.4302 35.573C26.9434 34.0598 28.5304 32.5835 30.1544 31.1809C12.5862 46.1287 1.40317 68.384 1.40317 93.2599C1.40317 138.066 37.7204 174.383 82.5265 174.383C100.242 174.383 116.629 168.7 129.953 159.067L130.064 158.107C130.543 156.962 130.986 155.819 131.466 154.675C132.389 152.644 133.275 150.578 134.271 148.621C135.194 146.85 134.935 145.041 134.382 143.381C132.979 138.989 134.751 135.593 137.482 132.493C137.593 132.382 137.704 132.271 137.777 132.124C139.217 130.5 140.804 128.987 140.804 126.661C140.804 124.816 140.693 122.786 139.992 121.125C139.807 120.682 139.66 120.239 139.512 119.797C138.811 117.176 139.327 114.74 140.472 112.304C140.509 112.193 140.582 112.083 140.619 111.972C141.357 110.237 141.579 108.466 141.357 106.694C141.321 106.288 141.247 105.882 141.136 105.476C141.025 105.07 140.361 104.406 140.324 104.406C138.183 105.772 136.707 103.557 134.862 103.446C132.426 103.299 129.953 102.893 127.591 103.225C125.081 103.594 122.793 103.114 120.947 101.749C117.552 99.2389 114.378 96.3601 111.204 93.5551C110.613 93.0384 110.318 91.9681 110.207 91.1561C109.838 87.2809 110.835 83.59 111.831 79.8992C112.459 77.611 112.828 75.4335 112.496 72.9606C112.2 70.5246 114.119 68.7531 116.002 67.3506C116.703 66.8339 117.663 66.6124 118.438 66.1696C119.25 65.6898 120.283 65.2838 120.763 64.5456C123.679 60.1167 128.218 59.5261 132.832 59.5999C136.449 59.6737 140.176 59.8582 143.609 60.8179C146.045 61.4822 148.222 63.3276 150.289 64.9148C152.061 66.2434 153.758 67.2399 156.084 66.9814C157.154 66.8708 158.262 67.1291 159.332 67.2768C158.593 64.9148 157.708 62.6264 156.712 60.4119ZM34.1772 57.7916C34.6939 55.6877 36.5763 54.7282 37.9419 55.7616C39.7134 57.0902 41.6326 57.6439 43.8101 57.7177C44.3269 57.7546 44.8066 58.0867 45.3235 58.3082C45.2496 58.5666 45.2126 58.7881 45.1388 59.0464C41.4849 58.6034 37.8681 58.1974 34.1772 57.7916ZM49.6785 64.3979C47.3533 64.1766 45.1758 63.9551 42.8136 63.7336C45.1388 61.9251 47.4271 60.8179 50.1215 63.3276C49.9738 63.6968 49.7893 64.1396 49.6785 64.3979ZM101.94 23.3196C101.645 24.0577 101.276 25.2757 100.759 25.3864C99.8362 25.5711 98.7659 25.1651 97.8432 24.7591C96.9205 24.3899 96.1454 23.7256 95.2965 23.1721C95.3704 22.9506 95.481 22.6922 95.5549 22.4707C97.105 21.8802 98.6551 21.1791 100.242 20.7731C100.833 20.6254 101.755 21.0682 102.272 21.5481C102.494 21.8434 102.161 22.7661 101.94 23.3196ZM118.954 37.0863C118.622 36.4588 118.364 35.8683 118.032 35.2408C119.545 34.5765 120.209 33.5431 119.766 31.8823C119.729 31.7346 120.947 31.0333 121.058 31.1441C123.346 33.2848 126.299 34.6873 127.48 38.0458C128.071 39.7067 127.296 40.2233 126.447 40.8877C124.601 42.2902 122.534 41.5152 122.055 39.3007C121.833 38.378 121.722 37.4185 121.538 36.2005C120.578 36.4956 119.803 36.7541 118.954 37.0863Z" fill="var(--fill-0, #D5DDEA)"/>
<path id="Vector_2" fill-rule="evenodd" clip-rule="evenodd" d="M83.7334 9.926L83.7418 9.92595L84.0193 9.92597C85.0023 9.92597 86.0321 9.92597 87.0687 9.9643C92.5627 10.1539 97.9094 10.8741 103.07 12.0881C139.921 20.7322 167.334 53.7896 167.334 93.2597C167.334 139.287 130.027 176.593 84.0002 176.593C37.9733 176.593 0.666323 139.287 0.666323 93.2597C0.666323 67.3807 12.4463 44.2628 30.9636 28.986C30.9942 28.9595 31.025 28.9342 31.056 28.91C31.1126 28.8658 31.1667 28.8278 31.2168 28.7949C45.4969 17.0558 63.8082 10.0016 83.7334 9.926ZM31.4674 28.6514C31.472 28.649 31.4733 28.6484 31.4698 28.6502L31.4674 28.6514ZM84.0002 14.347H83.7459C64.8383 14.4198 47.48 21.1222 33.9532 32.2685C33.9226 32.2951 33.8918 32.3204 33.8608 32.3446C33.8048 32.3883 33.7512 32.4262 33.7014 32.4588C16.2042 46.9307 5.08738 68.7886 5.08738 93.2597C5.08738 136.845 40.4149 172.172 84.0002 172.172C127.585 172.172 162.913 136.845 162.913 93.2597C162.913 55.888 136.957 24.5783 102.06 16.3924L102.058 16.3919C97.1811 15.2444 92.1212 14.5622 86.9135 14.3826L86.9079 14.3824C85.959 14.3473 85.0034 14.347 84.0002 14.347Z" fill="var(--fill-0, #D5DDEA)"/>
<path id="Vector_3" d="M122.493 0C130.415 0 136.822 6.54164 136.822 14.6303C136.822 21.0836 127.731 33.8575 124.008 38.8079C123.229 39.8686 121.67 39.8686 120.891 38.8079C117.168 33.8575 108.077 21.0836 108.077 14.6303C108.164 6.54164 114.571 0 122.493 0Z" fill="var(--fill-0, #989FB0)"/>
<path id="Vector_4" d="M122.13 20.4406C125.305 20.4406 127.878 17.8667 127.878 14.6917C127.878 11.5166 125.305 8.94277 122.13 8.94277C118.955 8.94277 116.381 11.5166 116.381 14.6917C116.381 17.8667 118.955 20.4406 122.13 20.4406Z" fill="var(--fill-0, white)"/>
<path id="Vector_5" fill-rule="evenodd" clip-rule="evenodd" d="M114.296 44.3343C114.337 46.0977 112.94 47.5602 111.177 47.601C110.981 47.6055 110.786 47.6109 110.591 47.6171C108.828 47.6731 107.353 46.2893 107.297 44.5262C107.241 42.7632 108.625 41.2887 110.388 41.2327C110.601 41.2259 110.815 41.22 111.029 41.215C112.793 41.1743 114.255 42.5708 114.296 44.3343ZM118.973 44.5893C119.196 42.8394 120.796 41.602 122.545 41.8249C122.652 41.8386 122.759 41.8525 122.866 41.8666C124.615 42.0967 125.846 43.7009 125.616 45.4497C125.386 47.1986 123.782 48.4297 122.033 48.1996C121.934 48.1867 121.836 48.1739 121.737 48.1613C119.988 47.9382 118.75 46.339 118.973 44.5893ZM102.648 45.0427C102.985 46.7741 101.854 48.4508 100.123 48.7875C99.9304 48.8248 99.7385 48.8631 99.5472 48.902C97.8189 49.2545 96.1321 48.1391 95.7797 46.4107C95.4272 44.6823 96.5427 42.9956 98.2712 42.6431C98.4813 42.6004 98.6922 42.5584 98.9035 42.5173C100.635 42.1805 102.312 43.3113 102.648 45.0427ZM91.2865 47.7167C91.9152 49.3647 91.0887 51.2104 89.4407 51.8391C89.2578 51.9088 89.0757 51.9792 88.8941 52.0504C87.2518 52.6938 85.3988 51.8842 84.7553 50.2417C84.1119 48.5995 84.9215 46.7464 86.5639 46.1029C86.7633 46.0248 86.9634 45.9474 87.1641 45.8708C88.8123 45.2423 90.658 46.0685 91.2865 47.7167ZM80.551 52.2958C81.4488 53.8141 80.9456 55.7728 79.4273 56.6705C79.2596 56.7697 79.0928 56.8693 78.9265 56.9695C77.4162 57.8806 75.4532 57.3947 74.5422 55.8842C73.6312 54.3738 74.117 52.4108 75.6276 51.4998C75.8096 51.39 75.9926 51.2807 76.1762 51.1721C77.6946 50.2743 79.6532 50.7774 80.551 52.2958ZM70.734 58.6128C71.8714 59.961 71.7005 61.9759 70.3524 63.1133C70.2028 63.2396 70.0541 63.3661 69.9064 63.4929C68.5683 64.6423 66.5519 64.4892 65.4025 63.1511C64.2534 61.813 64.4063 59.7965 65.7446 58.6473C65.9064 58.5082 66.0694 58.3694 66.2334 58.2312C67.5817 57.0936 69.5967 57.2646 70.734 58.6128ZM62.1037 66.4747C63.4591 67.6038 63.6424 69.6176 62.5134 70.9729C62.3895 71.1216 62.2668 71.2702 62.1457 71.4187C61.0301 72.7851 59.0183 72.9885 57.6519 71.8729C56.2855 70.7575 56.0821 68.7455 57.1975 67.3791C57.3322 67.2142 57.4682 67.0492 57.6056 66.8843C58.7346 65.5291 60.7485 65.3457 62.1037 66.4747ZM55.0241 75.7609C56.6019 76.5495 57.2417 78.4678 56.4533 80.0457C56.4119 80.1282 56.3712 80.2106 56.331 80.2925C55.5552 81.8767 53.6421 82.5318 52.0579 81.756C50.4738 80.9801 49.8186 79.067 50.5945 77.4828C50.6423 77.3854 50.6905 77.2878 50.7394 77.1901C51.528 75.6122 53.4463 74.9724 55.0241 75.7609Z" fill="var(--fill-0, #AAB2C5)"/>
<path id="Vector_6" d="M50.6538 13.414C62.6248 13.414 72.3065 22.9099 72.3065 34.6516C72.3065 44.0192 58.5691 62.5619 52.9433 69.748C51.7658 71.2878 49.4109 71.2878 48.2334 69.748C42.6076 62.5619 28.8704 44.0192 28.8704 34.6516C29.0012 22.9099 38.6827 13.414 50.6538 13.414Z" fill="url(#paint0_linear_338_766)"/>
<path id="Vector_7" d="M50.5882 43.4361C55.1743 43.4361 58.8921 39.5753 58.8921 34.8128C58.8921 30.0502 55.1743 26.1894 50.5882 26.1894C46.0021 26.1894 42.2843 30.0502 42.2843 34.8128C42.2843 39.5753 46.0021 43.4361 50.5882 43.4361Z" fill="var(--fill-0, white)"/>
</g>
<defs>
<linearGradient id="paint0_linear_338_766" x1="28.8505" y1="42.1648" x2="72.3143" y2="42.1648" gradientUnits="userSpaceOnUse">
<stop stop-color="#B0BACC"/>
<stop offset="1" stop-color="#969EAE"/>
</linearGradient>
<clipPath id="clip0_338_766">
<rect width="168" height="176.842" fill="white"/>
</clipPath>
</defs>
</svg>
