<svg preserveAspectRatio="none" width="100%" height="100%" overflow="visible" style="display: block;" viewBox="0 0 17.68 17.5" fill="none" xmlns="http://www.w3.org/2000/svg">
<g id="Icon">
<path id="Vector" d="M6.8625 16.03C6.87417 16.03 6.90917 16.03 6.9675 16.03C7.7025 16.0417 8.37917 16.0475 8.9975 16.0475L11.0275 16.03C11.6575 15.89 12.1008 15.575 12.3575 15.085C12.5908 14.63 12.6404 14.1108 12.5063 13.5275C12.3721 12.9442 12.1008 12.4308 11.6925 11.9875L11.57 11.8475L11.815 11.725C12.3867 11.445 12.9117 11.0833 13.39 10.64C14.0783 10.01 14.6033 9.26917 14.965 8.4175C15.42 7.32083 15.5892 6.09 15.4725 4.725C15.4025 4.11833 15.2042 3.56417 14.8775 3.0625C14.5625 2.59583 14.1658 2.2225 13.6875 1.9425C13.2092 1.6625 12.7017 1.505 12.165 1.47C12.025 1.45833 10.9458 1.4525 8.9275 1.4525C6.90917 1.4525 5.83 1.45833 5.69 1.47C5.03667 1.55167 4.45917 1.76167 3.9575 2.1C3.49083 2.40333 3.12333 2.79417 2.855 3.2725C2.58667 3.7275 2.42917 4.2175 2.3825 4.7425C2.37083 4.8825 2.365 5.19458 2.365 5.67875C2.365 6.16292 2.37667 6.475 2.4 6.615C2.47 7.09333 2.5925 7.58333 2.7675 8.085C3.0475 8.83167 3.4325 9.49667 3.9225 10.08C4.5525 10.8383 5.34 11.4275 6.285 11.8475L6.1625 11.9875C5.94083 12.2208 5.77167 12.46 5.655 12.705C5.42167 13.1483 5.305 13.6383 5.305 14.175V14.385C5.305 14.5133 5.31667 14.6183 5.34 14.7C5.49167 15.2017 5.78917 15.575 6.2325 15.82C6.45417 15.9367 6.66417 16.0067 6.8625 16.03ZM6.95 14.5425C6.86833 14.4958 6.80708 14.4288 6.76625 14.3413C6.72542 14.2538 6.7225 14.1225 6.7575 13.9475C6.81583 13.5625 6.97917 13.2329 7.2475 12.9588C7.51583 12.6846 7.8425 12.5067 8.2275 12.425C8.32083 12.4133 8.55125 12.4075 8.91875 12.4075C9.28625 12.4075 9.5225 12.4133 9.6275 12.425C10.0008 12.495 10.3158 12.6642 10.5725 12.9325C10.7825 13.1425 10.9342 13.3933 11.0275 13.685C11.1092 13.9417 11.1325 14.1517 11.0975 14.315C11.0858 14.3967 11.0217 14.4725 10.905 14.5425C10.87 14.5542 10.765 14.5658 10.59 14.5775H7.265C7.07833 14.5658 6.97333 14.5542 6.95 14.5425ZM8.6125 10.92C8.11083 10.92 7.55083 10.7858 6.9325 10.5175C6.1975 10.2025 5.57333 9.75333 5.06 9.17C4.44167 8.45833 4.05083 7.60667 3.8875 6.615C3.8525 6.37 3.82917 6.03458 3.8175 5.60875C3.80583 5.18292 3.8175 4.88833 3.8525 4.725C3.93417 4.27 4.14125 3.87625 4.47375 3.54375C4.80625 3.21125 5.2 3.01 5.655 2.94C5.77167 2.92833 6.85958 2.9225 8.91875 2.9225C10.9779 2.9225 12.0717 2.93417 12.2 2.9575C12.62 3.0275 12.9933 3.20833 13.32 3.5C13.6817 3.82667 13.9092 4.235 14.0025 4.725C14.0142 4.80667 14.02 5.075 14.02 5.53C14.02 6.21833 13.9442 6.81333 13.7925 7.315C13.5242 8.24833 13.0108 9.04167 12.2525 9.695C11.7625 10.115 11.2083 10.43 10.59 10.64C10.135 10.7917 9.67417 10.885 9.2075 10.92C8.95083 10.9317 8.7525 10.9317 8.6125 10.92Z" fill="var(--fill-0, #697D95)"/>
</g>
</svg>
