<svg preserveAspectRatio="none" width="100%" height="100%" overflow="visible" style="display: block;" viewBox="0 0 22 24" fill="none" xmlns="http://www.w3.org/2000/svg">
<g id="SVG">
<path id="Vector" fill-rule="evenodd" clip-rule="evenodd" d="M4.8125 3.0625C4.08315 3.0625 3.38368 3.35223 2.86796 3.86796C2.35223 4.38368 2.0625 5.08315 2.0625 5.8125V9.77067C2.06266 10.5 2.35249 11.1993 2.86825 11.7149L11.6499 20.4975C12.4932 21.3408 13.8407 21.5847 14.9023 20.8898C16.89 19.5882 18.5879 17.8906 19.8898 15.9032C20.5847 14.8398 20.3408 13.4933 19.4975 12.6508L10.7158 3.86825C10.4604 3.61276 10.1572 3.4101 9.82341 3.27185C9.48966 3.13359 9.13193 3.06246 8.77067 3.0625H4.8125ZM5.84375 7.875C6.11725 7.875 6.37956 7.76635 6.57295 7.57295C6.76635 7.37956 6.875 7.11725 6.875 6.84375C6.875 6.57025 6.76635 6.30794 6.57295 6.11455C6.37956 5.92115 6.11725 5.8125 5.84375 5.8125C5.57025 5.8125 5.30794 5.92115 5.11455 6.11455C4.92115 6.30794 4.8125 6.57025 4.8125 6.84375C4.8125 7.11725 4.92115 7.37956 5.11455 7.57295C5.30794 7.76635 5.57025 7.875 5.84375 7.875Z" fill="var(--fill-0, white)"/>
</g>
</svg>
