<svg preserveAspectRatio="none" width="100%" height="100%" overflow="visible" style="display: block;" viewBox="0 0 15.91 15.5" fill="none" xmlns="http://www.w3.org/2000/svg">
<g id="Icon">
<path id="Vector" d="M4.0025 12.2605C3.83717 12.2192 3.708 12.1262 3.615 11.9815C3.522 11.8368 3.491 11.6818 3.522 11.5165V11.4855C3.54267 11.4132 3.57367 11.346 3.615 11.284C3.68733 11.191 3.8475 11.0153 4.0955 10.757L7.1025 7.75L4.0955 4.743C3.8475 4.48467 3.68733 4.309 3.615 4.216C3.57367 4.154 3.54267 4.08683 3.522 4.0145V3.9835C3.50133 3.84917 3.52458 3.72 3.59175 3.596C3.65892 3.472 3.7545 3.37642 3.8785 3.30925C4.0025 3.24208 4.13167 3.21883 4.266 3.2395H4.297C4.359 3.26017 4.421 3.286 4.483 3.317C4.55533 3.36867 4.68967 3.49267 4.886 3.689L8.0325 6.82L11.0395 3.813C11.2978 3.565 11.4735 3.40483 11.5665 3.3325C11.6285 3.29117 11.6957 3.26017 11.768 3.2395H11.799C12.016 3.2085 12.202 3.26792 12.357 3.41775C12.512 3.56758 12.574 3.75617 12.543 3.9835V4.0145C12.5223 4.08683 12.4913 4.154 12.45 4.216C12.3777 4.309 12.2175 4.48467 11.9695 4.743L8.9625 7.75L11.9695 10.757C12.2175 11.0153 12.3777 11.191 12.45 11.284C12.4913 11.346 12.5223 11.4132 12.543 11.4855V11.5165C12.5637 11.6508 12.5404 11.78 12.4732 11.904C12.4061 12.028 12.3105 12.1236 12.1865 12.1907C12.0625 12.2579 11.9333 12.2812 11.799 12.2605H11.768C11.6957 12.2398 11.6285 12.2088 11.5665 12.1675C11.4735 12.0952 11.2978 11.935 11.0395 11.687L8.0325 8.68L5.01 11.687C4.75167 11.935 4.58117 12.0952 4.4985 12.1675C4.4365 12.2088 4.36933 12.2398 4.297 12.2605H4.2505C4.13683 12.2812 4.05417 12.2812 4.0025 12.2605Z" fill="var(--fill-0, #1E293B)"/>
</g>
</svg>
