<svg preserveAspectRatio="none" width="100%" height="100%" overflow="visible" style="display: block;" viewBox="0 0 15.92 15.5097" fill="none" xmlns="http://www.w3.org/2000/svg">
<g id="Icon">
<path id="Vector" d="M4.56337 14.2069C4.57371 14.2069 4.61507 14.2069 4.68744 14.2069C5.54565 14.2173 6.33148 14.2224 7.04493 14.2224H9.0767C9.2835 14.2224 9.41792 14.2173 9.47995 14.2069C9.54199 14.1966 9.59369 14.1811 9.63505 14.1604L9.65056 14.1449C9.68158 14.1345 9.9711 13.8554 10.5191 13.3074L12.8611 10.9344C13.0058 10.7793 13.0963 10.6759 13.1325 10.6242C13.1687 10.5725 13.192 10.5208 13.2023 10.4691V10.4381C13.2126 10.3864 13.2178 9.13007 13.2178 6.66919V3.55173C13.2075 3.16916 13.1971 2.94685 13.1868 2.88481C13.1351 2.62632 13.0265 2.37816 12.8611 2.14034C12.5819 1.71641 12.1838 1.44758 11.6668 1.33384L11.5117 1.30282H4.70295C4.56854 1.30282 4.48065 1.30799 4.43929 1.31833C4.17045 1.38037 3.91713 1.49411 3.67931 1.65954C3.25538 1.9594 2.99171 2.37299 2.88831 2.90032C2.87797 2.9727 2.86763 3.24154 2.85729 3.70683V11.8029C2.86763 12.2682 2.87797 12.537 2.88831 12.6094C2.92967 12.8369 3.02532 13.067 3.17524 13.2996C3.32517 13.5323 3.51387 13.7261 3.74135 13.8812C3.98951 14.057 4.26351 14.1656 4.56337 14.2069ZM4.6099 12.8886C4.44446 12.8266 4.32038 12.7232 4.23766 12.5784L4.22215 12.5474C4.20147 12.506 4.18596 12.4181 4.17562 12.2837C4.16528 12.1079 4.16011 11.6943 4.16011 11.0429V7.75487C4.16011 4.74598 4.17045 3.18984 4.19113 3.08644C4.22215 2.95202 4.28936 2.84345 4.39276 2.76073C4.44446 2.70904 4.53235 2.65734 4.65642 2.60564H11.4187C11.5117 2.647 11.5841 2.68319 11.6358 2.71421C11.7185 2.7659 11.7806 2.83311 11.8219 2.91583L11.8374 2.94685C11.8685 2.98821 11.8891 3.06059 11.8995 3.16399C11.9098 3.29841 11.915 3.59826 11.915 4.06355V9.69359H10.8293L9.74362 9.7091L9.58852 9.75563C9.38173 9.82801 9.20336 9.93916 9.05344 10.0891C8.90351 10.239 8.79753 10.4122 8.73549 10.6087C8.71481 10.7017 8.6993 10.8361 8.68896 11.0119C8.67862 11.1877 8.67345 11.5134 8.67345 11.989V12.9196H4.98213C4.77533 12.9093 4.65125 12.8989 4.6099 12.8886ZM9.97627 12.0045V10.9964H10.9844L10.4881 11.5082L9.97627 12.0045ZM9.82117 7.73936C9.75913 7.71868 9.69968 7.69025 9.64281 7.65406C9.58594 7.61787 9.47478 7.51706 9.30935 7.35162L7.38614 5.44392L6.93636 5.8937C6.6882 6.1522 6.53052 6.3073 6.46331 6.35899C6.3961 6.41069 6.3108 6.44171 6.2074 6.45205C6.07298 6.47273 5.94373 6.45205 5.81966 6.39001C5.69558 6.32798 5.59993 6.23492 5.53273 6.11084C5.46552 5.98676 5.44225 5.85751 5.46293 5.7231C5.47327 5.6197 5.50688 5.53439 5.56374 5.46718C5.62061 5.39998 5.79381 5.21644 6.08332 4.91659L6.64167 4.35824C6.85881 4.13076 6.97772 4.01185 6.9984 4.00151C7.11213 3.9188 7.2388 3.87744 7.37838 3.87744C7.51797 3.87744 7.63947 3.91363 7.74286 3.986L9.16976 5.39739L10.1624 6.39001C10.3588 6.58647 10.4829 6.72606 10.5346 6.80878C10.5656 6.86048 10.5915 6.92252 10.6122 6.99489V7.02591C10.6432 7.21203 10.5915 7.38005 10.4571 7.52998C10.3227 7.67991 10.1727 7.75487 10.0073 7.75487C9.90389 7.75487 9.84185 7.7497 9.82117 7.73936Z" fill="var(--fill-0, #E44A19)"/>
</g>
</svg>
