<svg preserveAspectRatio="none" width="100%" height="100%" overflow="visible" style="display: block;" viewBox="0 0 17.68 17.5" fill="none" xmlns="http://www.w3.org/2000/svg">
<g id="Icon">
<path id="Vector" d="M10.9575 13.8425C10.9575 13.8425 10.9517 13.8425 10.94 13.8425C10.8583 13.8192 10.7825 13.7783 10.7125 13.72C10.5958 13.6383 10.3742 13.4342 10.0475 13.1075L6.7575 9.8175C6.43083 9.47917 6.22667 9.2575 6.145 9.1525C6.08667 9.07083 6.04583 8.98917 6.0225 8.9075V8.8725C6.01083 8.79083 6.01083 8.70917 6.0225 8.6275V8.5925C6.04583 8.51083 6.08667 8.42917 6.145 8.3475C6.22667 8.2425 6.43083 8.02083 6.7575 7.6825L10.0475 4.3925C10.3858 4.06583 10.6075 3.86167 10.7125 3.78C10.7942 3.72167 10.8758 3.68083 10.9575 3.6575H10.9925C11.2375 3.6225 11.4475 3.68958 11.6225 3.85875C11.7975 4.02792 11.8675 4.24083 11.8325 4.4975V4.5325C11.8092 4.61417 11.7742 4.69 11.7275 4.76C11.6458 4.865 11.465 5.06333 11.185 5.355L7.79 8.75L11.185 12.145C11.465 12.4367 11.6458 12.635 11.7275 12.74C11.7742 12.81 11.8092 12.8858 11.8325 12.9675V13.0025C11.8558 13.1658 11.8296 13.3204 11.7538 13.4662C11.6779 13.6121 11.5671 13.72 11.4213 13.79C11.2754 13.86 11.1208 13.8775 10.9575 13.8425Z" fill="var(--fill-0, #CBD5E1)"/>
</g>
</svg>
