<svg preserveAspectRatio="xMidYMid meet" width="146.178" height="112" overflow="visible" style="display: block;" viewBox="0 0 146.178 112" fill="none" xmlns="http://www.w3.org/2000/svg">
<g id="no_parts_found.svg">
<path id="Vector" d="M78.2359 98.7388C103.387 98.7388 123.776 78.2212 123.776 52.9119C123.776 27.6026 103.387 7.08524 78.2359 7.08524C53.0848 7.08524 32.6954 27.6026 32.6954 52.9119C32.6954 78.2212 53.0848 98.7388 78.2359 98.7388Z" fill="var(--fill-0, #EAEEF9)"/>
<path id="Vector_2" d="M94.4891 3.68715C94.9003 3.30908 94.9292 2.66724 94.5532 2.25353C94.1778 1.83983 93.54 1.81094 93.1288 2.189C92.7176 2.56706 92.6892 3.20891 93.0646 3.62261C93.4406 4.03631 94.0784 4.0652 94.4891 3.68715Z" fill="var(--fill-0, #EAEEF9)"/>
<path id="Vector_3" fill-rule="evenodd" clip-rule="evenodd" d="M76.0643 98.4653C76.1264 97.6671 76.4129 96.9042 77.1044 96.2164C77.7811 95.5434 78.4578 94.8703 79.1351 93.9727C80.7404 92.1765 82.5246 92.6881 84.6462 93.297C84.9092 93.3728 85.1778 93.4495 85.4518 93.5242C88.622 94.2656 89.6342 91.6349 91.1638 87.6592C91.4845 86.8252 91.8284 85.9319 92.2196 84.998C93.5899 82.2721 91.5634 81.067 89.3818 79.7698C89.0489 79.5721 88.7129 79.3722 88.3843 79.164C86.4603 78.0161 86.5055 76.2147 86.5608 74.0383C86.5702 73.6634 86.5797 73.2774 86.5797 72.882C86.3688 70.5731 88.0825 69.5404 89.7357 68.5445C91.6176 67.4108 93.4206 66.3245 92.2196 63.4582C91.9257 62.7563 91.6544 62.0811 91.3973 61.4396C89.6789 57.1589 88.5615 54.3763 85.2262 55.1566C84.9312 55.2365 84.6426 55.3196 84.3602 55.4011C82.2648 56.0053 80.4996 56.5137 78.9095 54.9321C78.4684 54.4388 78.0135 54.0124 77.5855 53.6101C76.2604 52.3671 75.1846 51.3575 75.5253 49.323C76.9277 43.3461 76.5512 43.2071 70.2892 40.8948C69.4989 40.6029 68.615 40.2765 67.6291 39.8994C64.7492 38.8251 63.7201 40.6083 62.6406 42.4789C61.691 44.1246 60.7024 45.8381 58.3799 45.733C57.8514 45.733 57.3408 45.7586 56.8508 45.7832C54.8269 45.8847 53.1527 45.9686 52.0628 44.1624C48.8416 38.9565 48.495 39.1111 42.2049 41.9153C41.4465 42.2535 40.6016 42.6301 39.6548 43.0406C36.5555 44.3616 37.3664 46.9789 38.2505 49.8325C38.2674 49.887 38.2843 49.9415 38.3012 49.9961C38.8367 52.1266 37.6772 53.2736 36.2757 54.6602C35.906 55.0257 35.5195 55.4084 35.1428 55.8296C34.4751 56.5884 33.7066 56.9065 32.8906 56.9864C34.9772 79.5663 53.3436 97.3927 76.0643 98.4653ZM52.514 86.7926C59.0566 89.2608 66.5012 86.1196 68.9831 79.6131C71.4644 73.106 68.3063 65.7019 61.7635 63.2337C55.2213 60.766 47.7764 63.9073 45.2948 70.4138C42.8132 76.9203 45.9716 84.325 52.514 86.7926Z" fill="url(#paint0_linear_338_747)"/>
<path id="Vector_4" d="M109.7 37.7641C109.522 35.0832 109.877 33.296 108.105 33.1172C106.865 32.9385 105.98 33.1172 105.448 32.0449C104.917 30.9725 104.208 30.0789 104.917 29.1853C106.688 26.5044 106.157 26.6831 103.146 23.8235C101.197 22.0362 100.312 25.7894 98.3628 24.8958C97.3001 24.3596 96.2369 24.3596 95.883 23.1085C95.1742 20.0702 95.1742 20.4276 90.923 20.6064C89.3287 20.6064 89.3287 22.0362 89.3287 23.466C89.1515 24.7171 88.266 24.8958 87.0261 25.432C85.0774 26.5044 83.8375 22.9298 82.0666 24.8958C81.1805 25.7894 80.4723 26.6831 79.7635 27.7554C79.2324 29.1853 80.4723 29.5427 81.1805 30.7938C81.1805 30.7938 81.1805 30.7938 81.1805 30.9725C81.3577 31.33 81.1805 31.6874 81.1805 32.0449C81.1805 32.2236 81.0033 32.5811 81.0033 32.7598C80.6495 33.6534 80.6495 34.3683 79.5863 34.5471C76.5749 35.0832 76.9293 35.262 77.1065 39.5514C77.2837 42.2323 80.4723 40.2663 81.3578 42.2323C81.7122 42.9472 82.4204 44.0195 82.0666 44.7344C81.8894 45.4493 81.1805 45.9855 81.0033 46.7004C80.1179 48.309 81.7122 49.2026 83.3064 50.6324C85.2546 52.4197 86.1406 48.6664 88.0888 49.5601C90.3919 50.4537 90.2147 49.9175 90.7458 52.5985C91.1002 54.3857 93.2261 53.8494 95.5286 53.6706C98.1856 53.4918 96.2369 50.275 98.1856 49.3813C98.54 49.2026 99.0711 49.0239 99.4255 48.8451C100.488 48.309 101.197 49.0239 102.26 49.5601C103.854 50.6324 104.739 49.0239 106.511 46.8792C107.574 45.6281 106.511 44.7344 105.625 43.6621C104.917 42.7684 105.448 41.8748 105.803 40.6237C106.511 38.8364 109.877 40.445 109.7 37.7641ZM97.4773 41.1599C95.3514 43.4833 91.809 43.8408 89.3287 41.6961C87.0261 39.5514 86.6717 35.9768 88.7976 33.4747C90.923 31.1512 94.466 30.7938 96.9457 32.9385C99.2483 35.0832 99.6027 38.6577 97.4773 41.1599Z" fill="url(#paint1_linear_338_747)"/>
<path id="Vector_5" d="M22.9693 52.0234C21.2395 52.8761 20.5203 54.9752 21.3628 56.7109C22.2053 58.4472 24.2905 59.1628 26.0203 58.3099C27.75 57.4571 28.4693 55.3585 27.6268 53.6228C26.7842 51.8865 24.6991 51.1706 22.9693 52.0234Z" fill="var(--fill-0, #EAEEF9)"/>
<path id="Vector_6" d="M90.6779 102.943C89.4123 102.982 88.4148 104.044 88.449 105.316C88.4832 106.588 89.5369 107.587 90.802 107.548C92.0672 107.51 93.0652 106.447 93.031 105.175C92.9968 103.903 91.9431 102.904 90.6779 102.943Z" fill="var(--fill-0, #EAEEF9)"/>
<path id="Vector_7" d="M83.7608 108.751C82.9 108.778 82.2217 109.5 82.2448 110.365C82.268 111.23 82.9846 111.91 83.8449 111.883C84.7051 111.857 85.384 111.134 85.3608 110.27C85.3372 109.405 84.621 108.725 83.7608 108.751Z" fill="var(--fill-0, #EAEEF9)"/>
<path id="Vector_8" d="M18.3391 66.8987C17.6108 67.2578 17.3079 68.1412 17.6627 68.8721C18.0174 69.6035 18.8955 69.9048 19.6238 69.5457C20.3521 69.1866 20.6549 68.3026 20.3002 67.5718C19.9454 66.8409 19.0675 66.5396 18.3391 66.8987Z" fill="var(--fill-0, #EAEEF9)"/>
<path id="Vector_9" d="M47.7537 98.0026C47.2527 98.2492 47.0445 98.8571 47.2885 99.3598C47.5324 99.863 48.1363 100.07 48.6373 99.823C49.1382 99.5759 49.3465 98.9686 49.1025 98.4653C48.8585 97.9627 48.2547 97.7555 47.7537 98.0026Z" fill="var(--fill-0, #EAEEF9)"/>
<g id="Group" filter="url(#filter0_d_338_747)">
<path id="Vector_10" d="M49.264 20.0013L46.2952 22.7924C45.942 23.1166 45.3902 23.2289 44.9155 23.0732L41.3877 21.9743C40.913 21.8186 40.5156 21.3948 40.4626 20.9177L39.6187 17.3548C39.4973 16.8748 39.6517 16.3387 40.0048 16.0145L42.9736 13.2234C43.1855 13.0288 43.1987 12.6224 43 12.4105C42.9338 12.3399 42.7991 12.2663 42.6622 12.2605C40.002 11.8767 37.3707 12.715 35.4636 14.4658C33.0599 16.7382 32.1267 20.1581 33.0521 23.3175L13.0608 41.7359C11.3635 43.3599 11.2093 45.9988 12.8653 47.7646C14.4549 49.4598 17.1239 49.5727 18.7507 48.0136L38.9538 29.4006C41.9386 30.3409 45.1836 29.5963 47.446 27.4536C49.4238 25.638 50.3991 23.0338 50.2089 20.4482C50.2199 20.1095 49.8843 19.8918 49.6105 19.8802C49.4737 19.8744 49.403 19.9393 49.264 20.0013ZM15.2712 45.4245C14.6751 44.7888 14.708 43.7727 15.3437 43.1891C15.9794 42.6055 16.9375 42.646 17.5336 43.2817C18.1298 43.9174 18.0968 44.9335 17.4611 45.5171C16.8254 46.1007 15.8673 46.0601 15.2712 45.4245C15.269 45.4922 15.269 45.4922 15.2712 45.4245Z" fill="var(--fill-0, #D5DDEA)"/>
</g>
<path id="Vector_11" opacity="0.4" d="M32.9471 27.1045L18.186 40.4924" stroke="var(--stroke-0, #D6DCE8)" stroke-width="0.525822" stroke-miterlimit="10"/>
<path id="Vector_12" opacity="0.4" d="M35.3115 29.5799L20.4824 42.9638" stroke="var(--stroke-0, #D6DCE8)" stroke-width="0.525822" stroke-miterlimit="10"/>
<path id="Vector_13" d="M132.25 22.3757C131.941 22.1779 131.475 22.1867 131.035 22.3647C130.272 22.8713 129.303 22.635 128.826 21.9481C128.593 21.647 128.529 21.2238 128.659 20.8479C128.789 20.4721 128.635 20.0677 128.234 19.8885L127.408 19.3609L126.087 21.1172L110.384 11.0935C110.177 10.9615 110.048 10.7264 110.022 10.5571L109.959 10.134C109.907 9.79548 109.688 9.57894 109.391 9.46574L105.334 7.94674L103.236 10.7361L106.204 13.7013C106.424 13.9179 106.721 14.0311 107.083 13.9564L107.536 13.863C107.807 13.8069 108.001 13.8542 108.208 13.9861L123.91 24.0098L122.59 25.766L123.416 26.2936C123.726 26.4914 124.191 26.4826 124.54 26.3233C125.304 25.8166 126.273 26.0529 126.75 26.7399C126.982 27.041 127.046 27.4641 126.916 27.84C126.787 28.2159 127.032 28.6016 127.341 28.7995L138.602 35.9875C140.358 37.1086 142.983 36.5668 144.304 34.8106C144.304 34.8106 144.382 34.7073 144.37 34.6227C145.587 32.8005 145.151 30.5343 143.395 29.4132L132.25 22.3757Z" fill="url(#paint2_linear_338_747)"/>
<path id="Vector_14" opacity="0.4" d="M129.691 27.5738L138.163 33.197" stroke="var(--stroke-0, #D6DCE8)" stroke-width="0.525822" stroke-miterlimit="10"/>
<path id="Vector_15" opacity="0.4" d="M131.137 25.5075L139.609 31.1306" stroke="var(--stroke-0, #D6DCE8)" stroke-width="0.525822" stroke-miterlimit="10"/>
<path id="Vector_16" d="M111.474 66.2541C106.454 66.2541 101.639 68.248 98.0889 71.7978C94.5385 75.3481 92.5446 80.1631 92.5446 85.1831C92.5446 90.2042 94.539 95.0186 98.0889 98.5684C101.639 102.118 106.454 104.113 111.474 104.113C116.495 104.113 121.309 102.118 124.859 98.5684C128.409 95.0181 130.403 90.2036 130.403 85.1831C130.398 80.1647 128.403 75.3523 124.854 71.803C121.305 68.2538 116.493 66.2583 111.474 66.2535L111.474 66.2541ZM111.474 68.0566C115.713 68.0797 119.79 69.6871 122.904 72.5639L98.855 96.6129C95.8841 93.3297 94.304 89.0211 94.4465 84.5952C94.589 80.1699 96.4446 75.9723 99.6206 72.8878C102.797 69.8023 107.046 68.0708 111.474 68.0566ZM111.474 102.311C107.248 102.312 103.172 100.737 100.044 97.8933L124.183 73.7538C127.162 77.0455 128.742 81.3662 128.591 85.8015C128.439 90.2373 126.569 94.4407 123.375 97.5215C120.18 100.603 115.912 102.32 111.474 102.311L111.474 102.311Z" fill="var(--fill-0, #A0A9BA)"/>
</g>
<defs>
<filter id="filter0_d_338_747" x="0.13407" y="6.38484" width="61.6663" height="60.0805" filterUnits="userSpaceOnUse" color-interpolation-filters="sRGB">
<feFlood flood-opacity="0" result="BackgroundImageFix"/>
<feColorMatrix in="SourceAlpha" type="matrix" values="0 0 0 0 0 0 0 0 0 0 0 0 0 0 0 0 0 0 127 0" result="hardAlpha"/>
<feOffset dy="5.78404"/>
<feGaussianBlur stdDeviation="5.78404"/>
<feColorMatrix type="matrix" values="0 0 0 0 0.397708 0 0 0 0 0.47749 0 0 0 0 0.575 0 0 0 0.27 0"/>
<feBlend mode="normal" in2="BackgroundImageFix" result="effect1_dropShadow_338_747"/>
<feBlend mode="normal" in="SourceGraphic" in2="effect1_dropShadow_338_747" result="shape"/>
</filter>
<linearGradient id="paint0_linear_338_747" x1="62.7831" y1="41.6208" x2="62.7831" y2="74.6751" gradientUnits="userSpaceOnUse">
<stop stop-color="#B0BACC"/>
<stop offset="1" stop-color="#969EAE"/>
</linearGradient>
<linearGradient id="paint1_linear_338_747" x1="93.3528" y1="21.6527" x2="93.3528" y2="40.3963" gradientUnits="userSpaceOnUse">
<stop stop-color="#B0BACC"/>
<stop offset="1" stop-color="#969EAE"/>
</linearGradient>
<linearGradient id="paint2_linear_338_747" x1="121.786" y1="5.80255" x2="125.788" y2="25.194" gradientUnits="userSpaceOnUse">
<stop stop-color="#B0BACC"/>
<stop offset="1" stop-color="#969EAE"/>
</linearGradient>
</defs>
</svg>
