<svg preserveAspectRatio="none" width="100%" height="100%" overflow="visible" style="display: block;" viewBox="0 0 24 21" fill="none" xmlns="http://www.w3.org/2000/svg">
<g id="SVG">
<g id="Vector">
</g>
<path id="Vector_2" d="M8.5 6.125C8.5 7.05326 8.86875 7.9435 9.52513 8.59987C10.1815 9.25625 11.0717 9.625 12 9.625C12.9283 9.625 13.8185 9.25625 14.4749 8.59987C15.1313 7.9435 15.5 7.05326 15.5 6.125C15.5 5.19674 15.1313 4.3065 14.4749 3.65013C13.8185 2.99375 12.9283 2.625 12 2.625C11.0717 2.625 10.1815 2.99375 9.52513 3.65013C8.86875 4.3065 8.5 5.19674 8.5 6.125Z" stroke="var(--stroke-0, #64748B)" stroke-width="1.3125" stroke-linecap="round" stroke-linejoin="round"/>
<path id="Vector_3" d="M6.75 18.375V16.625C6.75 15.6967 7.11875 14.8065 7.77513 14.1501C8.4315 13.4937 9.32174 13.125 10.25 13.125H13.75C14.6783 13.125 15.5685 13.4937 16.2249 14.1501C16.8813 14.8065 17.25 15.6967 17.25 16.625V18.375" stroke="var(--stroke-0, #64748B)" stroke-width="1.3125" stroke-linecap="round" stroke-linejoin="round"/>
</g>
</svg>
