<svg preserveAspectRatio="none" width="100%" height="100%" overflow="visible" style="display: block;" viewBox="0 0 17.68 17.5" fill="none" xmlns="http://www.w3.org/2000/svg">
<g id="Icon">
<path id="Vector" d="M10.7475 16.205C9.96583 16.1233 9.26583 15.8258 8.6475 15.3125C8.5425 15.2308 7.65292 14.35 5.97875 12.67C4.30458 10.99 3.42667 10.1033 3.345 10.01C3.03 9.61333 2.785 9.22833 2.61 8.855C2.28333 8.155 2.12 7.39083 2.12 6.5625C2.12 5.43083 2.4175 4.42167 3.0125 3.535C3.5725 2.71833 4.31625 2.10292 5.24375 1.68875C6.17125 1.27458 7.125 1.12583 8.105 1.2425C9.155 1.35917 10.0942 1.76167 10.9225 2.45C10.9808 2.49667 11.2725 2.7825 11.7975 3.3075C12.3808 3.87917 12.9875 4.48583 13.6175 5.1275L15.595 7.105C15.8633 7.385 16.0325 7.57167 16.1025 7.665C16.1608 7.72333 16.1958 7.7875 16.2075 7.8575V7.91C16.2425 8.085 16.2075 8.25125 16.1025 8.40875C15.9975 8.56625 15.8546 8.67125 15.6737 8.72375C15.4929 8.77625 15.3092 8.75 15.1225 8.645L13.775 7.315C11.2783 4.84167 9.96 3.5525 9.82 3.4475C9.505 3.21417 9.1725 3.03333 8.8225 2.905C8.21583 2.67167 7.5975 2.60167 6.9675 2.695C6.1975 2.8 5.5325 3.08583 4.9725 3.5525C4.4475 3.9725 4.06542 4.50625 3.82625 5.15375C3.58708 5.80125 3.51417 6.4575 3.6075 7.1225C3.7125 7.83417 3.98667 8.47 4.43 9.03C4.5 9.12333 5.35167 9.98958 6.985 11.6288C8.61833 13.2679 9.4875 14.1283 9.5925 14.21C10.0358 14.5833 10.5433 14.77 11.115 14.77C11.6633 14.7583 12.1562 14.5804 12.5937 14.2363C13.0312 13.8921 13.3083 13.44 13.425 12.88C13.4833 12.6117 13.495 12.3492 13.46 12.0925C13.4133 11.7308 13.285 11.3925 13.075 11.0775C12.9817 10.9258 12.1008 10.0217 10.4325 8.365C8.81083 6.74333 7.97083 5.915 7.9125 5.88C7.7025 5.74 7.48083 5.71083 7.2475 5.7925C7.01417 5.87417 6.84208 6.02292 6.73125 6.23875C6.62042 6.45458 6.62333 6.685 6.74 6.93C6.76333 6.98833 6.90333 7.14583 7.16 7.4025C7.475 7.72917 8.175 8.435 9.26 9.52L11.3425 11.6025C11.5525 11.8358 11.6867 11.9875 11.745 12.0575C11.7917 12.1158 11.8208 12.18 11.8325 12.25V12.285C11.8675 12.4717 11.8296 12.6438 11.7187 12.8013C11.6079 12.9588 11.4562 13.0608 11.2637 13.1075C11.0712 13.1542 10.8875 13.1192 10.7125 13.0025C10.6542 12.9675 9.81417 12.1392 8.1925 10.5175C6.53583 8.8725 5.66667 7.98 5.585 7.84C5.32833 7.46667 5.19708 7.06417 5.19125 6.6325C5.18542 6.20083 5.2875 5.79833 5.4975 5.425C5.7075 5.05167 6.005 4.76 6.39 4.55C6.79833 4.34 7.25333 4.25833 7.755 4.305C8.175 4.375 8.5425 4.5325 8.8575 4.7775C8.95083 4.8475 9.83167 5.71958 11.5 7.39375C13.1683 9.06792 14.0375 9.94583 14.1075 10.0275C14.3292 10.3308 14.4983 10.6108 14.615 10.8675C14.825 11.3342 14.93 11.8417 14.93 12.39C14.93 13.2183 14.7083 13.9475 14.265 14.5775C13.8683 15.1492 13.3375 15.5808 12.6725 15.8725C12.0425 16.1525 11.4008 16.2633 10.7475 16.205Z" fill="var(--fill-0, #334155)"/>
</g>
</svg>
