<svg preserveAspectRatio="none" width="100%" height="100%" overflow="visible" style="display: block;" viewBox="0 0 22 24" fill="none" xmlns="http://www.w3.org/2000/svg">
<g id="SVG">
<path id="Vector" d="M4.125 6.84375C4.125 5.8409 4.52338 4.87912 5.2325 4.17C5.94162 3.46088 6.9034 3.0625 7.90625 3.0625C8.9091 3.0625 9.87088 3.46088 10.58 4.17C11.2891 4.87912 11.6875 5.8409 11.6875 6.84375C11.6875 7.8466 11.2891 8.80838 10.58 9.5175C9.87088 10.2266 8.9091 10.625 7.90625 10.625C6.9034 10.625 5.94162 10.2266 5.2325 9.5175C4.52338 8.80838 4.125 7.8466 4.125 6.84375ZM13.0625 8.90625C13.0625 8.49997 13.1425 8.09767 13.298 7.72232C13.4535 7.34697 13.6814 7.00592 13.9686 6.71864C14.2559 6.43136 14.597 6.20347 14.9723 6.048C15.3477 5.89252 15.75 5.8125 16.1563 5.8125C16.5625 5.8125 16.9648 5.89252 17.3402 6.048C17.7155 6.20347 18.0566 6.43136 18.3439 6.71864C18.6311 7.00592 18.859 7.34697 19.0145 7.72232C19.17 8.09767 19.25 8.49997 19.25 8.90625C19.25 9.72676 18.9241 10.5137 18.3439 11.0939C17.7637 11.6741 16.9768 12 16.1563 12C15.3357 12 14.5488 11.6741 13.9686 11.0939C13.3884 10.5137 13.0625 9.72676 13.0625 8.90625ZM1.375 18.5313C1.375 16.7991 2.06311 15.1378 3.28796 13.913C4.51281 12.6881 6.17405 12 7.90625 12C9.63845 12 11.2997 12.6881 12.5245 13.913C13.7494 15.1378 14.4375 16.7991 14.4375 18.5313V18.534L14.4366 18.6431C14.4346 18.7597 14.4031 18.8738 14.3449 18.9749C14.2867 19.0759 14.2037 19.1604 14.1038 19.2206C12.2331 20.3471 10.09 20.9408 7.90625 20.9375C5.64025 20.9375 3.51908 20.3105 1.70958 19.2206C1.60953 19.1606 1.5264 19.076 1.46803 18.975C1.40966 18.874 1.37796 18.7597 1.37592 18.6431L1.375 18.5313ZM15.8125 18.534L15.8116 18.666C15.8065 18.9715 15.7335 19.2721 15.598 19.546C17.1982 19.6447 18.7966 19.3256 20.2363 18.6202C20.3477 18.5657 20.4422 18.4822 20.51 18.3785C20.5778 18.2747 20.6162 18.1546 20.6213 18.0308C20.6537 17.2619 20.487 16.4977 20.1373 15.8122C19.7876 15.1267 19.2668 14.5431 18.6253 14.118C17.9839 13.6928 17.2435 13.4405 16.4759 13.3855C15.7084 13.3305 14.9396 13.4747 14.2441 13.804C15.2645 15.1685 15.8146 16.8274 15.8116 18.5313L15.8125 18.534Z" fill="var(--fill-0, white)"/>
</g>
</svg>
