<svg preserveAspectRatio="none" width="100%" height="100%" overflow="visible" style="display: block;" viewBox="0 0 17.68 17.5" fill="none" xmlns="http://www.w3.org/2000/svg">
<g id="Icon">
<path id="Vector" d="M7.1775 15.365C7.36417 15.645 7.62667 15.8725 7.965 16.0475C8.30333 16.2225 8.665 16.2983 9.05 16.275C9.47 16.2633 9.855 16.1233 10.205 15.855C10.2867 15.785 10.3742 15.7033 10.4675 15.61C10.5608 15.5167 10.6308 15.435 10.6775 15.365C10.7475 15.26 11.7683 13.5567 13.74 10.255C15.7117 6.95333 16.715 5.2675 16.75 5.1975C16.925 4.8475 16.9833 4.45958 16.925 4.03375C16.8667 3.60792 16.6975 3.23167 16.4175 2.905C16.1142 2.555 15.7233 2.3275 15.245 2.2225C15.1983 2.21083 15.07 2.205 14.86 2.205H2.7325C2.11417 2.345 1.6475 2.61917 1.3325 3.0275C1.06417 3.36583 0.924167 3.7625 0.9125 4.2175C0.900833 4.61417 0.970833 4.95833 1.1225 5.25C1.14583 5.30833 2.14625 6.98542 4.12375 10.2812C6.10125 13.5771 7.11917 15.2717 7.1775 15.365ZM15.0175 3.675C15.2625 3.76833 15.4083 3.92583 15.455 4.1475C15.5017 4.31083 15.49 4.4625 15.42 4.6025C15.385 4.6725 14.3817 6.3525 12.41 9.6425C10.4383 12.9325 9.435 14.595 9.4 14.63C9.295 14.7583 9.14917 14.8225 8.9625 14.8225C8.74083 14.8225 8.57167 14.7525 8.455 14.6125C8.42 14.5775 7.41667 12.9179 5.445 9.63375C3.47333 6.34958 2.46417 4.66083 2.4175 4.5675C2.35917 4.43917 2.3475 4.29333 2.3825 4.13C2.44083 3.92 2.5925 3.76833 2.8375 3.675H15.0175ZM8.21 11.0775C8.25667 11.3342 8.385 11.5092 8.595 11.6025C8.805 11.6958 9.01792 11.6929 9.23375 11.5937C9.44958 11.4946 9.58667 11.3225 9.645 11.0775C9.65667 11.0308 9.6625 10.4942 9.6625 9.4675V8.33C9.6625 8.09667 9.65667 7.945 9.645 7.875C9.63333 7.805 9.61 7.74083 9.575 7.6825L9.5575 7.665C9.53417 7.61833 9.49042 7.56292 9.42625 7.49875C9.36208 7.43458 9.30083 7.38792 9.2425 7.35875C9.18417 7.32958 9.11417 7.315 9.0325 7.315H8.8225C8.74083 7.315 8.67375 7.32958 8.62125 7.35875C8.56875 7.38792 8.5075 7.43458 8.4375 7.49875C8.3675 7.56292 8.32083 7.61833 8.2975 7.665L8.28 7.6825C8.245 7.74083 8.22167 7.805 8.21 7.875C8.19833 7.945 8.1925 8.09667 8.1925 8.33V9.4675C8.1925 10.4942 8.19833 11.0308 8.21 11.0775ZM8.7525 6.545C8.55417 6.51 8.41125 6.40792 8.32375 6.23875C8.23625 6.06958 8.20708 5.88583 8.23625 5.6875C8.26542 5.48917 8.35875 5.33167 8.51625 5.215C8.67375 5.09833 8.88083 5.06917 9.1375 5.1275C9.28917 5.17417 9.41458 5.26458 9.51375 5.39875C9.61292 5.53292 9.6625 5.67583 9.6625 5.8275C9.6625 6.06083 9.56917 6.25042 9.3825 6.39625C9.19583 6.54208 8.98583 6.59167 8.7525 6.545Z" fill="var(--fill-0, #EF4444)"/>
</g>
</svg>
