<svg preserveAspectRatio="none" width="100%" height="100%" overflow="visible" style="display: block;" viewBox="0 0 22 24" fill="none" xmlns="http://www.w3.org/2000/svg">
<g id="SVG">
<path id="Vector" fill-rule="evenodd" clip-rule="evenodd" d="M7.48092 3.365C7.71969 3.24553 7.98301 3.18333 8.25 3.18333C8.51699 3.18333 8.78031 3.24553 9.01908 3.365L13.596 5.65483C13.6932 5.7025 13.8068 5.7025 13.904 5.65483L17.4506 3.88108C17.7126 3.75018 18.0037 3.6884 18.2963 3.70162C18.5889 3.71484 18.8733 3.80262 19.1225 3.95663C19.3716 4.11064 19.5773 4.32576 19.7199 4.58158C19.8625 4.8374 19.9375 5.12543 19.9375 5.41833V16.8629C19.9375 17.5138 19.5699 18.1096 18.9869 18.4002L14.5182 20.6341C14.2796 20.7533 14.0166 20.8153 13.75 20.8153C13.4834 20.8153 13.2204 20.7533 12.9818 20.6341L8.404 18.3452C8.3562 18.3212 8.30347 18.3087 8.25 18.3087C8.19653 18.3087 8.1438 18.3212 8.096 18.3452L4.55033 20.1189C4.28828 20.25 3.99705 20.312 3.70432 20.2989C3.41158 20.2857 3.12706 20.198 2.87778 20.044C2.6285 19.8899 2.42275 19.6747 2.28005 19.4188C2.13736 19.1629 2.06247 18.8747 2.0625 18.5817V7.13708C2.0625 6.48625 2.43008 5.89042 3.01217 5.59983L7.48092 3.36592V3.365ZM8.25 6.5C8.43234 6.5 8.6072 6.57243 8.73614 6.70136C8.86507 6.8303 8.9375 7.00516 8.9375 7.1875V14.75C8.9375 14.9323 8.86507 15.1072 8.73614 15.2361C8.6072 15.3651 8.43234 15.4375 8.25 15.4375C8.06766 15.4375 7.8928 15.3651 7.76386 15.2361C7.63493 15.1072 7.5625 14.9323 7.5625 14.75V7.1875C7.5625 7.00516 7.63493 6.8303 7.76386 6.70136C7.8928 6.57243 8.06766 6.5 8.25 6.5ZM14.4375 9.25C14.4375 9.06766 14.3651 8.8928 14.2361 8.76386C14.1072 8.63493 13.9323 8.5625 13.75 8.5625C13.5677 8.5625 13.3928 8.63493 13.2639 8.76386C13.1349 8.8928 13.0625 9.06766 13.0625 9.25V16.8125C13.0625 16.9948 13.1349 17.1697 13.2639 17.2986C13.3928 17.4276 13.5677 17.5 13.75 17.5C13.9323 17.5 14.1072 17.4276 14.2361 17.2986C14.3651 17.1697 14.4375 16.9948 14.4375 16.8125V9.25Z" fill="var(--fill-0, white)"/>
</g>
</svg>
