<svg preserveAspectRatio="none" width="100%" height="100%" overflow="visible" style="display: block;" viewBox="0 0 17.68 17.5" fill="none" xmlns="http://www.w3.org/2000/svg">
<g id="Icon">
<path id="Vector" d="M7.2125 16.03C7.27083 16.0417 7.83667 16.0475 8.91 16.0475C9.87833 16.0475 10.4558 16.0358 10.6425 16.0125C10.8875 15.9658 11.1062 15.8667 11.2987 15.715C11.4912 15.5633 11.6342 15.3767 11.7275 15.155L11.745 15.12C11.7917 15.0033 11.8208 14.8867 11.8325 14.77C11.8442 14.6533 11.85 14.385 11.85 13.965V13.125H14.7025C14.8425 13.1133 14.9358 13.1017 14.9825 13.09C15.2392 13.0083 15.3996 12.8508 15.4637 12.6175C15.5279 12.3842 15.4871 12.1654 15.3412 11.9613C15.1954 11.7571 14.9825 11.655 14.7025 11.655L14.6675 11.3225C14.2475 6.1075 14.0317 3.47667 14.02 3.43C13.9617 2.94 13.7692 2.51708 13.4425 2.16125C13.1158 1.80542 12.7017 1.58083 12.2 1.4875C12.1183 1.47583 11.0304 1.47 8.93625 1.47C6.84208 1.47 5.74833 1.47583 5.655 1.4875C5.08333 1.60417 4.62833 1.8725 4.29 2.2925C4.02167 2.6425 3.87 3.02167 3.835 3.43C3.82333 3.47667 3.6075 6.1075 3.1875 11.3225L3.1525 11.655C2.8725 11.655 2.65958 11.7542 2.51375 11.9525C2.36792 12.1508 2.32708 12.3696 2.39125 12.6088C2.45542 12.8479 2.61583 13.0083 2.8725 13.09C2.91917 13.1017 3.0125 13.1133 3.1525 13.125H6.005V13.895C6.005 14.3617 6.01667 14.6767 6.04 14.84C6.08667 15.1433 6.21792 15.4029 6.43375 15.6188C6.64958 15.8346 6.90917 15.9717 7.2125 16.03ZM7.475 14.5775V13.125H10.38V14.5775H7.475ZM4.6225 11.6375C4.6225 11.4858 4.73333 10.1208 4.955 7.5425L5.2 4.6025C5.25833 4.01917 5.29917 3.64583 5.3225 3.4825C5.34583 3.36583 5.38083 3.28417 5.4275 3.2375L5.445 3.2025C5.55 3.07417 5.66667 2.9925 5.795 2.9575C5.84167 2.94583 6.005 2.93417 6.285 2.9225H11.57C11.85 2.93417 12.0133 2.94583 12.06 2.9575C12.1883 2.9925 12.305 3.07417 12.41 3.2025L12.4275 3.2375C12.4742 3.28417 12.5092 3.36583 12.5325 3.4825C12.5558 3.64583 12.5967 4.01917 12.655 4.6025L12.9 7.5425C13.1217 10.1208 13.2325 11.4858 13.2325 11.6375C13.2325 11.6492 11.7975 11.655 8.9275 11.655C6.0575 11.655 4.6225 11.6492 4.6225 11.6375ZM6.775 9.695C6.85667 9.92833 7.00542 10.0829 7.22125 10.1588C7.43708 10.2346 7.64417 10.2171 7.8425 10.1063C8.04083 9.99542 8.1575 9.81167 8.1925 9.555C8.20417 9.50833 8.21 8.72667 8.21 7.21V5.565C8.19833 5.23833 8.18667 5.0225 8.175 4.9175C8.16333 4.8475 8.14 4.78333 8.105 4.725L8.07 4.69C7.95333 4.53833 7.80458 4.44208 7.62375 4.40125C7.44292 4.36042 7.27083 4.38375 7.1075 4.47125C6.94417 4.55875 6.83333 4.69583 6.775 4.8825C6.76333 4.92917 6.75167 5.0575 6.74 5.2675V9.2925C6.75167 9.51417 6.76333 9.64833 6.775 9.695ZM10.275 10.2025C10.135 10.1792 10.0037 10.1063 9.88125 9.98375C9.75875 9.86125 9.68583 9.71833 9.6625 9.555C9.65083 9.50833 9.645 8.72667 9.645 7.21V5.565C9.65667 5.23833 9.66833 5.0225 9.68 4.9175C9.69167 4.8475 9.715 4.78333 9.75 4.725L9.785 4.69C9.90167 4.53833 10.0504 4.44208 10.2312 4.40125C10.4121 4.36042 10.5842 4.38375 10.7475 4.47125C10.9108 4.55875 11.0217 4.69583 11.08 4.8825C11.0917 4.92917 11.1033 5.0575 11.115 5.2675V9.275C11.1033 9.50833 11.0917 9.64833 11.08 9.695C11.0217 9.87 10.9196 10.0042 10.7737 10.0975C10.6279 10.1908 10.4617 10.2258 10.275 10.2025Z" fill="var(--fill-0, #EF4444)"/>
</g>
</svg>
