<svg preserveAspectRatio="none" width="100%" height="100%" overflow="visible" style="display: block;" viewBox="0 0 17.68 17.5" fill="none" xmlns="http://www.w3.org/2000/svg">
<g id="Icon">
<path id="Vector" d="M2.96 14.5775C3.065 14.5892 4.56417 14.595 7.4575 14.595C10.3508 14.595 11.85 14.5892 11.955 14.5775C12.41 14.5425 12.76 14.3558 13.005 14.0175C13.1567 13.8192 13.25 13.6033 13.285 13.37C13.2967 13.3233 13.3025 13.02 13.3025 12.46V11.6725H14.0725C14.5275 11.6725 14.8367 11.6608 15 11.6375C15.2917 11.5792 15.5454 11.4538 15.7613 11.2613C15.9771 11.0688 16.12 10.8267 16.19 10.535C16.2017 10.5 16.2075 10.4183 16.2075 10.29V4.13C16.1025 3.71 15.91 3.40083 15.63 3.2025C15.4667 3.08583 15.2392 2.9925 14.9475 2.9225L10.5375 2.905H7.09C6.40167 2.91667 5.9525 2.93417 5.7425 2.9575C5.59083 2.96917 5.4625 3.00417 5.3575 3.0625C5.1475 3.1675 4.9725 3.31625 4.8325 3.50875C4.6925 3.70125 4.605 3.90833 4.57 4.13C4.55833 4.17667 4.5525 4.48 4.5525 5.04V5.8275H3.7825C3.35083 5.8275 3.07083 5.83333 2.9425 5.845C2.81417 5.85667 2.68 5.89167 2.54 5.95C2.30667 6.04333 2.11417 6.18917 1.9625 6.3875C1.81083 6.58583 1.71167 6.8075 1.665 7.0525C1.64167 7.23917 1.63 8.31833 1.63 10.29L1.6475 13.37C1.70583 13.5917 1.805 13.8017 1.945 14C2.20167 14.35 2.54 14.5425 2.96 14.5775ZM3.1 13.125V7.2975H4.5525V10.2375C4.56417 10.4125 4.57583 10.5233 4.5875 10.57C4.6575 10.8033 4.75083 10.99 4.8675 11.13C5.06583 11.375 5.36917 11.55 5.7775 11.655L8.805 11.6725H11.8325V13.125H3.1ZM6.0225 10.2025V4.375H14.755V10.2025H6.0225ZM8.21 7.28C8.21 7.78167 8.34417 8.21917 8.6125 8.5925C8.86917 8.93083 9.19875 9.17583 9.60125 9.3275C10.0038 9.47917 10.4092 9.51417 10.8175 9.4325C11.2492 9.35083 11.6167 9.1525 11.92 8.8375C12.1767 8.58083 12.3633 8.26 12.48 7.875C12.585 7.53667 12.6083 7.21583 12.55 6.9125C12.4567 6.3525 12.1825 5.90333 11.7275 5.565C11.3075 5.23833 10.8263 5.08375 10.2838 5.10125C9.74125 5.11875 9.27167 5.32583 8.875 5.7225C8.43167 6.15417 8.21 6.67333 8.21 7.28ZM10.1525 7.98C9.93083 7.91 9.785 7.77 9.715 7.56C9.645 7.35 9.65958 7.14583 9.75875 6.9475C9.85792 6.74917 10.0358 6.62667 10.2925 6.58C10.5492 6.53333 10.7563 6.60042 10.9138 6.78125C11.0713 6.96208 11.1325 7.175 11.0975 7.42C11.0625 7.665 10.9225 7.84 10.6775 7.945C10.5025 8.02667 10.3275 8.03833 10.1525 7.98Z" fill="var(--fill-0, #475569)"/>
</g>
</svg>
