<svg preserveAspectRatio="none" width="100%" height="100%" overflow="visible" style="display: block;" viewBox="0 0 24 21" fill="none" xmlns="http://www.w3.org/2000/svg">
<g id="SVG">
<g id="Vector">
</g>
<path id="Vector_2" d="M5.875 15.75C5.875 16.2141 6.05937 16.6592 6.38756 16.9874C6.71575 17.3156 7.16087 17.5 7.625 17.5C8.08913 17.5 8.53425 17.3156 8.86244 16.9874C9.19063 16.6592 9.375 16.2141 9.375 15.75C9.375 15.2859 9.19063 14.8408 8.86244 14.5126C8.53425 14.1844 8.08913 14 7.625 14C7.16087 14 6.71575 14.1844 6.38756 14.5126C6.05937 14.8408 5.875 15.2859 5.875 15.75Z" stroke="var(--stroke-0, #64748B)" stroke-width="1.3125" stroke-linecap="round" stroke-linejoin="round"/>
<path id="Vector_3" d="M5.875 5.25C5.875 5.71413 6.05937 6.15925 6.38756 6.48744C6.71575 6.81563 7.16087 7 7.625 7C8.08913 7 8.53425 6.81563 8.86244 6.48744C9.19063 6.15925 9.375 5.71413 9.375 5.25C9.375 4.78587 9.19063 4.34075 8.86244 4.01256C8.53425 3.68437 8.08913 3.5 7.625 3.5C7.16087 3.5 6.71575 3.68437 6.38756 4.01256C6.05937 4.34075 5.875 4.78587 5.875 5.25Z" stroke="var(--stroke-0, #64748B)" stroke-width="1.3125" stroke-linecap="round" stroke-linejoin="round"/>
<path id="Vector_4" d="M14.625 5.25C14.625 5.71413 14.8094 6.15925 15.1376 6.48744C15.4658 6.81563 15.9109 7 16.375 7C16.8391 7 17.2842 6.81563 17.6124 6.48744C17.9406 6.15925 18.125 5.71413 18.125 5.25C18.125 4.78587 17.9406 4.34075 17.6124 4.01256C17.2842 3.68437 16.8391 3.5 16.375 3.5C15.9109 3.5 15.4658 3.68437 15.1376 4.01256C14.8094 4.34075 14.625 4.78587 14.625 5.25Z" stroke="var(--stroke-0, #64748B)" stroke-width="1.3125" stroke-linecap="round" stroke-linejoin="round"/>
<path id="Vector_5" d="M7.625 7V14" stroke="var(--stroke-0, #64748B)" stroke-width="1.3125" stroke-linecap="round" stroke-linejoin="round"/>
<path id="Vector_6" d="M9.375 15.75H14.625C15.0891 15.75 15.5342 15.5656 15.8624 15.2374C16.1906 14.9092 16.375 14.4641 16.375 14V9.625" stroke="var(--stroke-0, #64748B)" stroke-width="1.3125" stroke-linecap="round" stroke-linejoin="round"/>
<path id="Vector_7" d="M13.75 12.25L16.375 9.625L19 12.25" stroke="var(--stroke-0, #64748B)" stroke-width="1.3125" stroke-linecap="round" stroke-linejoin="round"/>
</g>
</svg>
