<svg preserveAspectRatio="none" width="100%" height="100%" overflow="visible" style="display: block;" viewBox="0 0 22 24" fill="none" xmlns="http://www.w3.org/2000/svg">
<g id="SVG">
<path id="Vector" fill-rule="evenodd" clip-rule="evenodd" d="M5.79333 2.67475C9.25283 2.27313 12.7472 2.27313 16.2067 2.67475C17.5789 2.83425 18.5625 4.01308 18.5625 5.36058V18.875C18.5625 19.6043 18.2728 20.3038 17.757 20.8195C17.2413 21.3353 16.5418 21.625 15.8125 21.625H6.1875C5.45815 21.625 4.75868 21.3353 4.24296 20.8195C3.72723 20.3038 3.4375 19.6043 3.4375 18.875V5.36058C3.4375 4.01308 4.42108 2.83425 5.79333 2.67475ZM6.875 11.3125C6.875 11.1302 6.94743 10.9553 7.07636 10.8264C7.2053 10.6974 7.38016 10.625 7.5625 10.625H7.56983C7.75217 10.625 7.92704 10.6974 8.05597 10.8264C8.1849 10.9553 8.25733 11.1302 8.25733 11.3125V11.3198C8.25733 11.5022 8.1849 11.677 8.05597 11.806C7.92704 11.9349 7.75217 12.0073 7.56983 12.0073H7.5625C7.38016 12.0073 7.2053 11.9349 7.07636 11.806C6.94743 11.677 6.875 11.5022 6.875 11.3198V11.3125ZM7.5625 12.6875C7.38016 12.6875 7.2053 12.7599 7.07636 12.8889C6.94743 13.0178 6.875 13.1927 6.875 13.375V13.3823C6.875 13.7618 7.183 14.0698 7.5625 14.0698H7.56983C7.75217 14.0698 7.92704 13.9974 8.05597 13.8685C8.1849 13.7395 8.25733 13.5647 8.25733 13.3823V13.375C8.25733 13.1927 8.1849 13.0178 8.05597 12.8889C7.92704 12.7599 7.75217 12.6875 7.56983 12.6875H7.5625ZM6.875 15.4375C6.875 15.2552 6.94743 15.0803 7.07636 14.9514C7.2053 14.8224 7.38016 14.75 7.5625 14.75H7.56983C7.75217 14.75 7.92704 14.8224 8.05597 14.9514C8.1849 15.0803 8.25733 15.2552 8.25733 15.4375V15.4448C8.25733 15.6272 8.1849 15.802 8.05597 15.931C7.92704 16.0599 7.75217 16.1323 7.56983 16.1323H7.5625C7.38016 16.1323 7.2053 16.0599 7.07636 15.931C6.94743 15.802 6.875 15.6272 6.875 15.4448V15.4375ZM7.5625 16.8125C7.38016 16.8125 7.2053 16.8849 7.07636 17.0139C6.94743 17.1428 6.875 17.3177 6.875 17.5V17.5073C6.875 17.8868 7.183 18.1948 7.5625 18.1948H7.56983C7.75217 18.1948 7.92704 18.1224 8.05597 17.9935C8.1849 17.8645 8.25733 17.6897 8.25733 17.5073V17.5C8.25733 17.3177 8.1849 17.1428 8.05597 17.0139C7.92704 16.8849 7.75217 16.8125 7.56983 16.8125H7.5625ZM9.16483 11.3125C9.16483 11.1302 9.23727 10.9553 9.3662 10.8264C9.49513 10.6974 9.67 10.625 9.85233 10.625H9.85875C10.0411 10.625 10.216 10.6974 10.3449 10.8264C10.4738 10.9553 10.5463 11.1302 10.5463 11.3125V11.3198C10.5463 11.5022 10.4738 11.677 10.3449 11.806C10.216 11.9349 10.0411 12.0073 9.85875 12.0073H9.85233C9.67 12.0073 9.49513 11.9349 9.3662 11.806C9.23727 11.677 9.16483 11.5022 9.16483 11.3198V11.3125ZM9.85233 12.6875C9.67 12.6875 9.49513 12.7599 9.3662 12.8889C9.23727 13.0178 9.16483 13.1927 9.16483 13.375V13.3823C9.16483 13.7618 9.47192 14.0698 9.85233 14.0698H9.85875C10.0411 14.0698 10.216 13.9974 10.3449 13.8685C10.4738 13.7395 10.5463 13.5647 10.5463 13.3823V13.375C10.5463 13.1927 10.4738 13.0178 10.3449 12.8889C10.216 12.7599 10.0411 12.6875 9.85875 12.6875H9.85233ZM9.16483 15.4375C9.16483 15.2552 9.23727 15.0803 9.3662 14.9514C9.49513 14.8224 9.67 14.75 9.85233 14.75H9.85875C10.0411 14.75 10.216 14.8224 10.3449 14.9514C10.4738 15.0803 10.5463 15.2552 10.5463 15.4375V15.4448C10.5463 15.6272 10.4738 15.802 10.3449 15.931C10.216 16.0599 10.0411 16.1323 9.85875 16.1323H9.85233C9.67 16.1323 9.49513 16.0599 9.3662 15.931C9.23727 15.802 9.16483 15.6272 9.16483 15.4448V15.4375ZM9.85233 16.8125C9.67 16.8125 9.49513 16.8849 9.3662 17.0139C9.23727 17.1428 9.16483 17.3177 9.16483 17.5V17.5073C9.16483 17.8868 9.47192 18.1948 9.85233 18.1948H9.85875C10.0411 18.1948 10.216 18.1224 10.3449 17.9935C10.4738 17.8645 10.5463 17.6897 10.5463 17.5073V17.5C10.5463 17.3177 10.4738 17.1428 10.3449 17.0139C10.216 16.8849 10.0411 16.8125 9.85875 16.8125H9.85233ZM11.4602 11.3125C11.4602 11.1302 11.5326 10.9553 11.6615 10.8264C11.7905 10.6974 11.9653 10.625 12.1477 10.625H12.155C12.3373 10.625 12.5122 10.6974 12.6411 10.8264C12.7701 10.9553 12.8425 11.1302 12.8425 11.3125V11.3198C12.8425 11.5022 12.7701 11.677 12.6411 11.806C12.5122 11.9349 12.3373 12.0073 12.155 12.0073H12.1477C11.9653 12.0073 11.7905 11.9349 11.6615 11.806C11.5326 11.677 11.4602 11.5022 11.4602 11.3198V11.3125ZM12.1477 12.6875C11.9653 12.6875 11.7905 12.7599 11.6615 12.8889C11.5326 13.0178 11.4602 13.1927 11.4602 13.375V13.3823C11.4602 13.7618 11.7682 14.0698 12.1477 14.0698H12.155C12.3373 14.0698 12.5122 13.9974 12.6411 13.8685C12.7701 13.7395 12.8425 13.5647 12.8425 13.3823V13.375C12.8425 13.1927 12.7701 13.0178 12.6411 12.8889C12.5122 12.7599 12.3373 12.6875 12.155 12.6875H12.1477ZM11.4602 15.4375C11.4602 15.2552 11.5326 15.0803 11.6615 14.9514C11.7905 14.8224 11.9653 14.75 12.1477 14.75H12.155C12.3373 14.75 12.5122 14.8224 12.6411 14.9514C12.7701 15.0803 12.8425 15.2552 12.8425 15.4375V15.4448C12.8425 15.6272 12.7701 15.802 12.6411 15.931C12.5122 16.0599 12.3373 16.1323 12.155 16.1323H12.1477C11.9653 16.1323 11.7905 16.0599 11.6615 15.931C11.5326 15.802 11.4602 15.6272 11.4602 15.4448V15.4375ZM12.1477 16.8125C11.9653 16.8125 11.7905 16.8849 11.6615 17.0139C11.5326 17.1428 11.4602 17.3177 11.4602 17.5V17.5073C11.4602 17.8868 11.7682 18.1948 12.1477 18.1948H12.155C12.3373 18.1948 12.5122 18.1224 12.6411 17.9935C12.7701 17.8645 12.8425 17.6897 12.8425 17.5073V17.5C12.8425 17.3177 12.7701 17.1428 12.6411 17.0139C12.5122 16.8849 12.3373 16.8125 12.155 16.8125H12.1477ZM13.75 11.3125C13.75 11.1302 13.8224 10.9553 13.9514 10.8264C14.0803 10.6974 14.2552 10.625 14.4375 10.625H14.4448C14.6272 10.625 14.802 10.6974 14.931 10.8264C15.0599 10.9553 15.1323 11.1302 15.1323 11.3125V11.3198C15.1323 11.5022 15.0599 11.677 14.931 11.806C14.802 11.9349 14.6272 12.0073 14.4448 12.0073H14.4375C14.2552 12.0073 14.0803 11.9349 13.9514 11.806C13.8224 11.677 13.75 11.5022 13.75 11.3198V11.3125ZM14.4375 12.6875C14.2552 12.6875 14.0803 12.7599 13.9514 12.8889C13.8224 13.0178 13.75 13.1927 13.75 13.375V13.3823C13.75 13.7618 14.058 14.0698 14.4375 14.0698H14.4448C14.6272 14.0698 14.802 13.9974 14.931 13.8685C15.0599 13.7395 15.1323 13.5647 15.1323 13.3823V13.375C15.1323 13.1927 15.0599 13.0178 14.931 12.8889C14.802 12.7599 14.6272 12.6875 14.4448 12.6875H14.4375ZM6.875 7.1875C6.875 7.09722 6.89278 7.00782 6.92733 6.9244C6.96188 6.84099 7.01252 6.7652 7.07636 6.70136C7.1402 6.63752 7.21599 6.58688 7.2994 6.55233C7.38282 6.51778 7.47222 6.5 7.5625 6.5H14.4375C14.6198 6.5 14.7947 6.57243 14.9236 6.70136C15.0526 6.8303 15.125 7.00516 15.125 7.1875V7.875C15.125 8.05734 15.0526 8.2322 14.9236 8.36114C14.7947 8.49007 14.6198 8.5625 14.4375 8.5625H7.5625C7.38016 8.5625 7.2053 8.49007 7.07636 8.36114C6.94743 8.2322 6.875 8.05734 6.875 7.875V7.1875ZM15.125 15.4375C15.125 15.2552 15.0526 15.0803 14.9236 14.9514C14.7947 14.8224 14.6198 14.75 14.4375 14.75C14.2552 14.75 14.0803 14.8224 13.9514 14.9514C13.8224 15.0803 13.75 15.2552 13.75 15.4375V17.5C13.75 17.6823 13.8224 17.8572 13.9514 17.9861C14.0803 18.1151 14.2552 18.1875 14.4375 18.1875C14.6198 18.1875 14.7947 18.1151 14.9236 17.9861C15.0526 17.8572 15.125 17.6823 15.125 17.5V15.4375Z" fill="var(--fill-0, white)"/>
</g>
</svg>
