<svg preserveAspectRatio="none" width="100%" height="100%" overflow="visible" style="display: block;" viewBox="0 0 17.68 17.5" fill="none" xmlns="http://www.w3.org/2000/svg">
<g id="Icon">
<path id="Vector" d="M8.63 15.9775C8.665 16.0125 8.74667 16.0358 8.875 16.0475C9.00333 16.0592 9.11417 16.0358 9.2075 15.9775C9.61583 15.7792 10.7358 15.155 12.5675 14.105C14.3408 13.1017 15.245 12.5825 15.28 12.5475C15.3383 12.4892 15.4025 12.3783 15.4725 12.215L15.49 8.785V5.355C15.4433 5.22667 15.4083 5.13917 15.385 5.0925C15.3617 5.04583 15.315 4.99333 15.245 4.935C15.21 4.9 14.2067 4.32542 12.235 3.21125C10.2633 2.09708 9.26583 1.53417 9.2425 1.5225C9.16083 1.47583 9.05875 1.4525 8.93625 1.4525C8.81375 1.4525 8.70583 1.47583 8.6125 1.5225C8.58917 1.53417 7.59458 2.09417 5.62875 3.2025C3.66292 4.31083 2.65667 4.88833 2.61 4.935C2.54 4.99333 2.49333 5.04583 2.47 5.0925C2.44667 5.13917 2.41167 5.22667 2.365 5.355V8.785L2.3825 12.215C2.4525 12.3783 2.51667 12.4892 2.575 12.5475C2.65667 12.6292 4.36583 13.5975 7.7025 15.4525L8.63 15.9775ZM8.945 14.4725C8.91 14.4725 8.04667 13.9883 6.355 13.02C5.2 12.3667 4.61667 12.04 4.605 12.04L8.9275 9.59C10.3742 10.4067 11.8208 11.2175 13.2675 12.0225C13.1975 12.0692 12.4625 12.4892 11.0625 13.2825L8.945 14.4725ZM3.8175 8.3475V5.8975L8.1925 3.4475V8.33L3.835 10.78L3.8175 8.3475ZM11.85 9.555L9.6625 8.33V3.4475C9.67417 3.4475 10.4033 3.85583 11.85 4.6725L14.02 5.8975L14.0375 8.3475V10.78L11.85 9.555Z" fill="var(--fill-0, #334155)"/>
</g>
</svg>
