<svg preserveAspectRatio="none" width="100%" height="100%" overflow="visible" style="display: block;" viewBox="0 0 15.91 15.5" fill="none" xmlns="http://www.w3.org/2000/svg">
<g id="Icon">
<path id="Vector" d="M2.4215 11.8885C2.95883 12.6945 3.65117 13.299 4.4985 13.702C5.3045 14.0843 6.16217 14.2471 7.0715 14.1902C7.98083 14.1334 8.8075 13.8622 9.5515 13.3765C10.3575 12.8598 10.9723 12.1572 11.396 11.2685C11.8093 10.4212 11.9721 9.52733 11.8843 8.587C11.7964 7.64667 11.4787 6.79417 10.931 6.0295L10.838 5.8745L13.8915 2.8055C14.1498 2.54717 14.3152 2.3715 14.3875 2.2785C14.4288 2.2165 14.4598 2.14933 14.4805 2.077V2.046C14.5115 1.81867 14.4495 1.63008 14.2945 1.48025C14.1395 1.33042 13.9535 1.271 13.7365 1.302H13.7055C13.6332 1.32267 13.566 1.35367 13.504 1.395C13.411 1.46733 13.2353 1.63267 12.977 1.891L9.908 4.9445L9.7685 4.8515C9.29317 4.52083 8.8385 4.28833 8.4045 4.154C7.4745 3.844 6.5445 3.7975 5.6145 4.0145C4.76717 4.2005 4.0025 4.588 3.3205 5.177C2.6695 5.75567 2.19933 6.42733 1.91 7.192C1.61033 7.98767 1.507 8.79625 1.6 9.61775C1.693 10.4392 1.96683 11.1962 2.4215 11.8885ZM6.405 12.896C6.033 12.8547 5.723 12.7875 5.475 12.6945C4.855 12.4775 4.32283 12.1287 3.8785 11.6482C3.43417 11.1677 3.1345 10.6175 2.9795 9.9975C2.93817 9.8425 2.91233 9.69267 2.902 9.548C2.89167 9.455 2.8865 9.28967 2.8865 9.052C2.8865 8.29767 3.06733 7.62083 3.429 7.0215C3.75967 6.4635 4.20917 6.02433 4.7775 5.704C5.34583 5.38367 5.9555 5.21058 6.6065 5.18475C7.2575 5.15892 7.87233 5.2855 8.451 5.5645C9.071 5.8745 9.5825 6.33433 9.9855 6.944C10.3575 7.51233 10.5642 8.12717 10.6055 8.7885C10.6365 9.41883 10.5203 10.0285 10.2568 10.6175C9.99325 11.2065 9.6135 11.6973 9.1175 12.09C8.5905 12.5137 7.99117 12.7772 7.3195 12.8805C7.24717 12.8908 7.09475 12.8986 6.86225 12.9037C6.62975 12.9089 6.47733 12.9063 6.405 12.896Z" fill="var(--fill-0, #94A3B8)"/>
</g>
</svg>
