<svg preserveAspectRatio="none" width="100%" height="100%" overflow="visible" style="display: block;" viewBox="0 0 21.21 21" fill="none" xmlns="http://www.w3.org/2000/svg">
<g id="Icon">
<path id="Vector" d="M3.738 5.04C3.836 4.718 4.046 4.508 4.368 4.41H10.962C11.13 4.48 11.256 4.564 11.34 4.662C11.396 4.732 11.466 4.844 11.55 4.998L11.571 6.09C11.585 6.678 11.599 7.0315 11.613 7.1505C11.627 7.2695 11.669 7.378 11.739 7.476V7.497C11.837 7.651 11.9875 7.7665 12.1905 7.8435C12.3935 7.9205 12.586 7.917 12.768 7.833C13.006 7.735 13.188 7.532 13.314 7.224L13.335 6.132C13.335 5.6 13.328 5.229 13.314 5.019C13.272 4.683 13.1985 4.3925 13.0935 4.1475C12.9885 3.9025 12.81 3.654 12.558 3.402C12.25 3.094 11.893 2.877 11.487 2.751H11.466C11.326 2.695 11.2 2.667 11.088 2.667C10.92 2.639 10.591 2.625 10.101 2.625H7.644C5.544 2.625 4.382 2.639 4.158 2.667C3.612 2.765 3.143 3.003 2.751 3.381C2.359 3.759 2.107 4.221 1.995 4.767C1.981 4.823 1.974 4.956 1.974 5.166V15.834C1.974 16.044 1.981 16.177 1.995 16.233C2.107 16.779 2.359 17.241 2.751 17.619C3.143 17.997 3.612 18.235 4.158 18.333C4.284 18.361 5.4425 18.375 7.6335 18.375C9.8245 18.375 10.99 18.368 11.13 18.354C11.41 18.312 11.704 18.207 12.012 18.039C12.614 17.689 13.013 17.185 13.209 16.527C13.265 16.345 13.3 16.163 13.314 15.981C13.328 15.799 13.335 15.428 13.335 14.868L13.314 13.776C13.146 13.44 12.943 13.237 12.705 13.167C12.509 13.097 12.313 13.111 12.117 13.209C11.935 13.279 11.809 13.3735 11.739 13.4925C11.669 13.6115 11.627 13.7305 11.613 13.8495C11.599 13.9685 11.585 14.329 11.571 14.931L11.55 16.002C11.452 16.184 11.3645 16.3135 11.2875 16.3905C11.2105 16.4675 11.102 16.534 10.962 16.59H4.347C4.067 16.506 3.864 16.296 3.738 15.96V5.04ZM15.75 13.986C15.526 13.93 15.351 13.804 15.225 13.608C15.099 13.412 15.057 13.202 15.099 12.978C15.113 12.852 15.1585 12.74 15.2355 12.642C15.3125 12.544 15.519 12.327 15.855 11.991L16.443 11.382H12.243C9.415 11.382 7.973 11.375 7.917 11.361C7.623 11.291 7.42 11.13 7.308 10.878C7.196 10.626 7.1925 10.374 7.2975 10.122C7.4025 9.87 7.609 9.709 7.917 9.639C7.973 9.625 9.415 9.618 12.243 9.618H16.443L15.855 9.009C15.519 8.673 15.3125 8.456 15.2355 8.358C15.1585 8.26 15.113 8.148 15.099 8.022C15.071 7.84 15.1025 7.665 15.1935 7.497C15.2845 7.329 15.414 7.1995 15.582 7.1085C15.75 7.0175 15.925 6.986 16.107 7.014H16.149C16.233 7.042 16.3135 7.0805 16.3905 7.1295C16.4675 7.1785 16.611 7.308 16.821 7.518L19.068 9.744C19.222 9.912 19.32 10.0275 19.362 10.0905C19.404 10.1535 19.432 10.234 19.446 10.332V10.353C19.46 10.451 19.46 10.549 19.446 10.647V10.668C19.432 10.766 19.404 10.8465 19.362 10.9095C19.32 10.9725 19.222 11.088 19.068 11.256L16.842 13.482C16.618 13.692 16.471 13.8215 16.401 13.8705C16.331 13.9195 16.247 13.958 16.149 13.986H16.086C15.932 14.014 15.82 14.014 15.75 13.986Z" fill="var(--fill-0, #94A3B8)"/>
</g>
</svg>
