<svg preserveAspectRatio="none" width="100%" height="100%" overflow="visible" style="display: block;" viewBox="0 0 16.16 15.5" fill="none" xmlns="http://www.w3.org/2000/svg">
<g id="Icon">
<path id="Vector" d="M7.9405 12.8805C7.86817 12.8598 7.801 12.8185 7.739 12.7565C7.677 12.6945 7.62533 12.6325 7.584 12.5705V12.555C7.553 12.5033 7.53233 12.4465 7.522 12.3845C7.51167 12.2915 7.5065 12.1003 7.5065 11.811V8.401H4.0965C3.80717 8.401 3.616 8.39583 3.523 8.3855C3.461 8.37517 3.40417 8.35967 3.3525 8.339L3.337 8.3235C3.275 8.2925 3.213 8.246 3.151 8.184C3.058 8.07033 3.0115 7.92567 3.0115 7.75C3.0115 7.57433 3.058 7.42967 3.151 7.316C3.213 7.254 3.275 7.2075 3.337 7.1765L3.3525 7.161C3.40417 7.14033 3.461 7.12483 3.523 7.1145C3.616 7.10417 3.80717 7.099 4.0965 7.099H7.5065V3.689C7.5065 3.39967 7.51167 3.2085 7.522 3.1155C7.53233 3.0535 7.54783 2.99667 7.5685 2.945L7.584 2.9295C7.615 2.8675 7.6615 2.8055 7.7235 2.7435C7.83717 2.6505 7.98183 2.604 8.1575 2.604C8.33317 2.604 8.47783 2.6505 8.5915 2.7435C8.6535 2.8055 8.7 2.8675 8.731 2.9295L8.7465 2.945C8.76717 2.99667 8.78267 3.0535 8.793 3.1155C8.80333 3.2085 8.8085 3.39967 8.8085 3.689V7.099H12.2185C12.5078 7.099 12.699 7.10417 12.792 7.1145C12.854 7.12483 12.9108 7.14033 12.9625 7.161L12.978 7.1765C13.04 7.2075 13.102 7.254 13.164 7.316C13.257 7.42967 13.3035 7.57433 13.3035 7.75C13.3035 7.92567 13.257 8.07033 13.164 8.184C13.102 8.246 13.04 8.2925 12.978 8.3235L12.9625 8.339C12.9108 8.35967 12.854 8.37517 12.792 8.3855C12.699 8.39583 12.5078 8.401 12.2185 8.401H8.8085V11.811C8.8085 12.1003 8.80333 12.2915 8.793 12.3845C8.78267 12.4465 8.76717 12.5033 8.7465 12.555L8.731 12.5705C8.71033 12.6222 8.66383 12.679 8.5915 12.741C8.4675 12.8547 8.33317 12.9115 8.1885 12.9115C8.0645 12.9115 7.98183 12.9012 7.9405 12.8805Z" fill="var(--fill-0, #334155)"/>
</g>
</svg>
