<svg preserveAspectRatio="none" width="100%" height="100%" overflow="visible" style="display: block;" viewBox="0 0 10.0708 10" fill="none" xmlns="http://www.w3.org/2000/svg">
<g id="SVG">
<path id="Vector" d="M8.77085 2.2C9.07085 1.9 9.57085 1.9 9.77085 2.2C10.1708 2.6 10.1708 3.1 9.77085 3.4L5.77085 7.8C5.47085 8.1 4.87085 8.1 4.57085 7.8L0.27085 3.4C0.185724 3.32493 0.117548 3.2326 0.0708497 3.12915C0.0241514 3.0257 0 2.9135 0 2.8C0 2.6865 0.0241514 2.5743 0.0708497 2.47085C0.117548 2.3674 0.185724 2.27507 0.27085 2.2C0.57085 1.9 1.07085 1.9 1.37085 2.2L5.07085 6L8.77085 2.2Z" fill="var(--fill-0, #222F3E)" fill-opacity="0.5"/>
</g>
</svg>
