<svg preserveAspectRatio="none" width="100%" height="100%" overflow="visible" style="display: block;" viewBox="0 0 14.14 14" fill="none" xmlns="http://www.w3.org/2000/svg">
<g id="Icon">
<path id="Vector" d="M6.944 11.634C6.87867 11.6153 6.818 11.578 6.762 11.522C6.706 11.466 6.65933 11.41 6.622 11.354V11.34C6.594 11.2933 6.57533 11.242 6.566 11.186C6.55667 11.102 6.552 10.9293 6.552 10.668V7.588H3.472C3.21067 7.588 3.038 7.58333 2.954 7.574C2.898 7.56467 2.84667 7.55067 2.8 7.532L2.786 7.518C2.73 7.49 2.674 7.448 2.618 7.392C2.534 7.28933 2.492 7.15867 2.492 7C2.492 6.84133 2.534 6.71067 2.618 6.608C2.674 6.552 2.73 6.51 2.786 6.482L2.8 6.468C2.84667 6.44933 2.898 6.43533 2.954 6.426C3.038 6.41667 3.21067 6.412 3.472 6.412H6.552V3.332C6.552 3.07067 6.55667 2.898 6.566 2.814C6.57533 2.758 6.58933 2.70667 6.608 2.66L6.622 2.646C6.65 2.59 6.692 2.534 6.748 2.478C6.85067 2.394 6.98133 2.352 7.14 2.352C7.29867 2.352 7.42933 2.394 7.532 2.478C7.588 2.534 7.63 2.59 7.658 2.646L7.672 2.66C7.69067 2.70667 7.70467 2.758 7.714 2.814C7.72333 2.898 7.728 3.07067 7.728 3.332V6.412H10.808C11.0693 6.412 11.242 6.41667 11.326 6.426C11.382 6.43533 11.4333 6.44933 11.48 6.468L11.494 6.482C11.55 6.51 11.606 6.552 11.662 6.608C11.746 6.71067 11.788 6.84133 11.788 7C11.788 7.15867 11.746 7.28933 11.662 7.392C11.606 7.448 11.55 7.49 11.494 7.518L11.48 7.532C11.4333 7.55067 11.382 7.56467 11.326 7.574C11.242 7.58333 11.0693 7.588 10.808 7.588H7.728V10.668C7.728 10.9293 7.72333 11.102 7.714 11.186C7.70467 11.242 7.69067 11.2933 7.672 11.34L7.658 11.354C7.63933 11.4007 7.59733 11.452 7.532 11.508C7.42 11.6107 7.29867 11.662 7.168 11.662C7.056 11.662 6.98133 11.6527 6.944 11.634Z" fill="var(--fill-0, #64748B)"/>
</g>
</svg>
