<svg preserveAspectRatio="none" width="100%" height="100%" overflow="visible" style="display: block;" viewBox="0 0 24 24" fill="none" xmlns="http://www.w3.org/2000/svg">
<g id="SVG">
<path id="Vector" d="M11.5 20H5C4.46957 20 3.96086 19.7893 3.58579 19.4142C3.21071 19.0391 3 18.5304 3 18V9C3 8.46957 3.21071 7.96086 3.58579 7.58579C3.96086 7.21071 4.46957 7 5 7H6C6.53043 7 7.03914 6.78929 7.41421 6.41421C7.78929 6.03914 8 5.53043 8 5C8 4.73478 8.10536 4.48043 8.29289 4.29289C8.48043 4.10536 8.73478 4 9 4H15C15.2652 4 15.5196 4.10536 15.7071 4.29289C15.8946 4.48043 16 4.73478 16 5C16 5.53043 16.2107 6.03914 16.5858 6.41421C16.9609 6.78929 17.4696 7 18 7H19C19.5304 7 20.0391 7.21071 20.4142 7.58579C20.7893 7.96086 21 8.46957 21 9V12" stroke="var(--stroke-0, #64748B)" stroke-width="2" stroke-linecap="round" stroke-linejoin="round"/>
<path id="Vector_2" d="M9 13C9 13.7956 9.31607 14.5587 9.87868 15.1213C10.4413 15.6839 11.2044 16 12 16C12.7956 16 13.5587 15.6839 14.1213 15.1213C14.6839 14.5587 15 13.7956 15 13C15 12.2044 14.6839 11.4413 14.1213 10.8787C13.5587 10.3161 12.7956 10 12 10C11.2044 10 10.4413 10.3161 9.87868 10.8787C9.31607 11.4413 9 12.2044 9 13Z" stroke="var(--stroke-0, #64748B)" stroke-width="2" stroke-linecap="round" stroke-linejoin="round"/>
<path id="Vector_3" d="M19 22.5C19.2053 21.6513 19.6406 20.8755 20.2581 20.2581C20.8755 19.6406 21.6513 19.2053 22.5 19C21.6513 18.7947 20.8755 18.3594 20.2581 17.7419C19.6406 17.1245 19.2053 16.3487 19 15.5C18.7947 16.3487 18.3594 17.1245 17.7419 17.7419C17.1245 18.3594 16.3487 18.7947 15.5 19C16.3487 19.2053 17.1245 19.6406 17.7419 20.2581C18.3594 20.8755 18.7947 21.6513 19 22.5Z" stroke="var(--stroke-0, #64748B)" stroke-width="2" stroke-linecap="round" stroke-linejoin="round"/>
</g>
</svg>
