<svg preserveAspectRatio="none" width="100%" height="100%" overflow="visible" style="display: block;" viewBox="0 0 17.68 17.5" fill="none" xmlns="http://www.w3.org/2000/svg">
<g id="Icon">
<path id="Vector" d="M8.77 15.295C8.77 15.295 8.78167 15.295 8.805 15.295L8.9625 15.3125L9.12 15.295L15.63 12.39C15.8283 12.2967 15.945 12.2325 15.98 12.1975C16.0617 12.1158 16.1083 12.0575 16.12 12.0225L16.1375 11.9875C16.1725 11.9408 16.1958 11.8475 16.2075 11.7075C16.2192 11.5208 16.225 11.0833 16.225 10.395V6.93C16.225 3.72167 16.2192 2.09417 16.2075 2.0475C16.1492 1.8025 16.015 1.63333 15.805 1.54C15.595 1.44667 15.385 1.44375 15.175 1.53125C14.965 1.61875 14.8308 1.79083 14.7725 2.0475C14.7608 2.09417 14.755 3.63417 14.755 6.6675V11.2L8.945 13.7725C8.93333 13.7725 7.95333 13.3408 6.005 12.4775L3.1 11.2V6.6675C3.1 3.63417 3.09417 2.09417 3.0825 2.0475C3.02417 1.8025 2.89 1.63333 2.68 1.54C2.47 1.44667 2.26 1.44375 2.05 1.53125C1.84 1.61875 1.70583 1.79083 1.6475 2.0475C1.63583 2.09417 1.63 3.72167 1.63 6.93V10.395C1.63 11.0833 1.63583 11.5208 1.6475 11.7075C1.65917 11.8475 1.6825 11.9408 1.7175 11.9875L1.735 12.0225C1.75833 12.0808 1.7875 12.1275 1.8225 12.1625C1.8925 12.2208 2.0325 12.2996 2.2425 12.3988C2.4525 12.4979 2.8025 12.6583 3.2925 12.88L5.3575 13.79C7.62083 14.7933 8.75833 15.295 8.77 15.295ZM4.5525 6.755C4.68083 6.95333 4.77417 7.08167 4.8325 7.14C4.9025 7.21 4.99583 7.25667 5.1125 7.28C5.1825 7.29167 5.34583 7.2975 5.6025 7.2975H6.005V8.1375L6.0225 8.995C6.0925 9.28667 6.215 9.53167 6.39 9.73C6.62333 9.99833 6.93833 10.1558 7.335 10.2025H7.475C7.80167 10.2142 8.07583 10.22 8.2975 10.22C8.7875 10.22 9.1375 10.1908 9.3475 10.1325C9.6975 10.0392 9.96583 9.84667 10.1525 9.555C10.2225 9.45 10.2779 9.33042 10.3188 9.19625C10.3596 9.06208 10.38 8.9425 10.38 8.8375V8.75H12.7425C13.0108 8.63333 13.1975 8.4525 13.3025 8.2075V1.995L13.075 1.645C13.04 1.61 12.9992 1.58083 12.9525 1.5575L12.9175 1.54C12.8708 1.505 12.8125 1.48167 12.7425 1.47C12.6375 1.45833 12.41 1.4525 12.06 1.4525H5.795C5.445 1.4525 5.2175 1.45833 5.1125 1.47C5.0425 1.48167 4.98417 1.505 4.9375 1.54L4.9025 1.5575C4.85583 1.58083 4.815 1.61 4.78 1.645L4.5525 1.995V6.755ZM7.475 8.75V7.2975H8.9275V8.75H7.475ZM10.3975 7.28V2.9225H11.8325V7.28H10.3975ZM6.0225 4.375V2.9225H8.9275V5.8275H6.0225V4.375Z" fill="var(--fill-0, #475569)"/>
</g>
</svg>
