<svg preserveAspectRatio="none" width="100%" height="100%" overflow="visible" style="display: block;" viewBox="0 0 21 20" fill="none" xmlns="http://www.w3.org/2000/svg">
<g id="SVG">
<path id="Vector" d="M7.26676 14.1682H13.9334M9.78151 2.30492L4.12959 6.70086C3.75178 6.99471 3.56288 7.14163 3.42679 7.32563C3.30624 7.48862 3.21643 7.67224 3.16179 7.86746C3.1001 8.08785 3.1001 8.32717 3.1001 8.8058V14.8349C3.1001 15.7683 3.1001 16.235 3.28175 16.5916C3.44154 16.9052 3.69651 17.1601 4.01011 17.3199C4.36663 17.5016 4.83334 17.5016 5.76676 17.5016H15.4334C16.3669 17.5016 16.8336 17.5016 17.1901 17.3199C17.5037 17.1601 17.7587 16.9052 17.9184 16.5916C18.1001 16.235 18.1001 15.7683 18.1001 14.8349V8.8058C18.1001 8.32717 18.1001 8.08785 18.0384 7.86746C17.9838 7.67224 17.894 7.48862 17.7734 7.32563C17.6373 7.14163 17.4484 6.99471 17.0706 6.70086L11.4187 2.30492C11.1259 2.07721 10.9795 1.96335 10.8179 1.91959C10.6753 1.88097 10.5249 1.88097 10.3823 1.91959C10.2207 1.96335 10.0743 2.07721 9.78151 2.30492Z" stroke="var(--stroke-0, #667085)" stroke-width="1.66667" stroke-linecap="round" stroke-linejoin="round"/>
</g>
</svg>
