<svg preserveAspectRatio="none" width="100%" height="100%" overflow="visible" style="display: block;" viewBox="0 0 12.72 12.9898" fill="none" xmlns="http://www.w3.org/2000/svg">
<g id="Icon">
<path id="Vector" d="M11.045 11.734C11.1122 11.7508 11.1877 11.7466 11.2717 11.7214C11.3808 11.6962 11.469 11.6459 11.5362 11.5703C11.6201 11.4779 11.6621 11.3562 11.6621 11.2051V11.1043L9.93671 6.31858C8.81164 3.18685 8.22812 1.58321 8.18614 1.50765C8.11057 1.37331 8.00982 1.26836 7.88388 1.1928C7.75794 1.11723 7.6236 1.07945 7.48087 1.07945C7.36333 1.07945 7.24578 1.10674 7.12824 1.16131C7.01069 1.21588 6.91414 1.28935 6.83857 1.38171C6.82178 1.3985 6.62448 1.78472 6.24665 2.54036L4.98725 5.05917L2.46844 6.31858C1.71279 6.6964 1.32657 6.89371 1.30978 6.9105C1.21743 6.98606 1.14396 7.08262 1.08939 7.20016C1.03481 7.31771 1.00752 7.43525 1.00752 7.5528C1.00752 7.70392 1.04531 7.84036 1.12087 7.9621C1.19644 8.08384 1.30139 8.1825 1.43572 8.25806C1.4777 8.27485 3.07295 8.85838 6.22147 10.0086C9.39517 11.1589 11.003 11.734 11.045 11.734ZM9.06772 9.90788C9.06772 9.90788 6.85956 9.11026 2.44325 7.51501L3.85378 6.79715L5.26432 6.09188L7.17861 7.99359C8.45481 9.26979 9.08451 9.90788 9.06772 9.90788ZM7.93426 7.25054L6.01996 5.33624L7.34234 2.67889C7.40111 2.56135 7.43469 2.50678 7.44309 2.51517L9.84855 9.16483L7.93426 7.25054Z" fill="var(--fill-0, white)"/>
</g>
</svg>
