<svg preserveAspectRatio="none" width="100%" height="100%" overflow="visible" style="display: block;" viewBox="0 0 17.68 17.5" fill="none" xmlns="http://www.w3.org/2000/svg">
<g id="Icon">
<path id="Vector" d="M8.7525 16.03C8.81083 16.0533 8.90417 16.0533 9.0325 16.03H9.1025C9.1725 16.0183 9.24833 15.9775 9.33 15.9075C9.44667 15.8142 9.69167 15.5808 10.065 15.2075L11.9375 13.3525L15.1575 10.1325C15.6358 9.65417 15.9333 9.33917 16.05 9.1875C16.1433 9.0825 16.1958 8.995 16.2075 8.925V8.8725C16.2425 8.68583 16.2017 8.51083 16.085 8.3475C15.9683 8.18417 15.8167 8.07917 15.63 8.0325C15.595 8.02083 15.4317 8.015 15.14 8.015H14.755V3.99C14.755 3.64 14.7433 3.40083 14.72 3.2725C14.72 3.19083 14.6967 3.09167 14.65 2.975V2.9575C14.5333 2.58417 14.3233 2.26625 14.02 2.00375C13.7167 1.74125 13.3667 1.56917 12.97 1.4875C12.9233 1.47583 12.8242 1.47 12.6725 1.47H7.37C6.13333 1.47 5.40125 1.47292 5.17375 1.47875C4.94625 1.48458 4.77417 1.505 4.6575 1.54L4.6225 1.5575C4.40083 1.6275 4.17917 1.73833 3.9575 1.89C3.59583 2.17 3.345 2.52583 3.205 2.9575V2.975C3.15833 3.09167 3.135 3.19083 3.135 3.2725C3.11167 3.40083 3.1 3.64 3.1 3.99V8.015H2.715C2.42333 8.015 2.26 8.02083 2.225 8.0325C2.03833 8.07917 1.88667 8.18417 1.77 8.3475C1.65333 8.51083 1.6125 8.68583 1.6475 8.8725V8.9075C1.65917 8.9775 1.7 9.05917 1.77 9.1525C1.86333 9.26917 2.09667 9.51417 2.47 9.8875L8 15.4175C8.26833 15.6858 8.44917 15.855 8.5425 15.925C8.6125 15.9833 8.67667 16.0183 8.735 16.03H8.7525ZM13.3025 8.925C13.4308 9.18167 13.5825 9.35083 13.7575 9.4325L8.9275 14.2625L4.0975 9.4325C4.2725 9.35083 4.42417 9.18167 4.5525 8.925V6.2125C4.5525 4.40417 4.56417 3.47667 4.5875 3.43C4.66917 3.19667 4.7975 3.05083 4.9725 2.9925C5.08917 2.94583 5.29333 2.9225 5.585 2.9225H6.005V4.8825C6.005 5.74583 6.01083 6.31167 6.0225 6.58C6.0225 6.76667 6.03417 6.90083 6.0575 6.9825V7C6.1625 7.44333 6.36958 7.81667 6.67875 8.12C6.98792 8.42333 7.36417 8.62167 7.8075 8.715C7.90083 8.73833 8.27708 8.75 8.93625 8.75C9.59542 8.75 9.96583 8.73833 10.0475 8.715C10.4908 8.62167 10.8671 8.42333 11.1763 8.12C11.4854 7.81667 11.6925 7.44333 11.7975 7V6.9825C11.8208 6.90083 11.8325 6.76667 11.8325 6.58C11.8442 6.31167 11.85 5.74583 11.85 4.8825V2.9225H12.27C12.5617 2.9225 12.7658 2.94583 12.8825 2.9925C13.0458 3.05083 13.1742 3.19083 13.2675 3.4125C13.2792 3.4475 13.2908 3.61083 13.3025 3.9025V6.2125V8.925ZM8.0875 7.28C7.92417 7.25667 7.79 7.18667 7.685 7.07C7.62667 7.01167 7.5625 6.90667 7.4925 6.755L7.475 4.83V2.9225H10.38V4.83L10.3625 6.755C10.2925 6.90667 10.2225 7.01167 10.1525 7.07C10.0475 7.18667 9.91333 7.25667 9.75 7.28C9.68 7.29167 9.40292 7.2975 8.91875 7.2975C8.43458 7.2975 8.1575 7.29167 8.0875 7.28Z" fill="var(--fill-0, #475569)"/>
</g>
</svg>
