<svg preserveAspectRatio="none" width="100%" height="100%" overflow="visible" style="display: block;" viewBox="0 0 17.68 17.5" fill="none" xmlns="http://www.w3.org/2000/svg">
<g id="Icon">
<path id="Vector" d="M5.34 15.6275C5.41 15.7558 5.5325 15.8696 5.7075 15.9688C5.8825 16.0679 6.0575 16.0883 6.2325 16.03C6.4425 15.96 6.60583 15.785 6.7225 15.505L6.74 15.05V14.595H11.115V15.05L11.1325 15.505C11.2842 15.8083 11.465 15.9833 11.675 16.03C11.8267 16.065 11.99 16.0417 12.165 15.96C12.2583 15.9017 12.3283 15.8492 12.375 15.8025C12.4683 15.7092 12.5267 15.6071 12.55 15.4963C12.5733 15.3854 12.585 15.2017 12.585 14.945V14.595H12.935C13.3433 14.595 13.6817 14.5542 13.95 14.4725C14.4283 14.3325 14.8075 14.0642 15.0875 13.6675C15.1458 13.5858 15.2071 13.4867 15.2713 13.37C15.3354 13.2533 15.3792 13.1483 15.4025 13.055L15.42 13.02C15.455 12.9033 15.4754 12.7138 15.4813 12.4513C15.4871 12.1888 15.49 11.3283 15.49 9.87V4.7075C15.49 4.0425 15.4783 3.61083 15.455 3.4125C15.455 3.26083 15.4375 3.13833 15.4025 3.045L15.385 2.9925C15.14 2.19917 14.5975 1.70333 13.7575 1.505L13.5825 1.47H4.465C4.29 1.47 4.17917 1.47583 4.1325 1.4875C3.77083 1.56917 3.45583 1.715 3.1875 1.925C2.84917 2.18167 2.61 2.5375 2.47 2.9925L2.4525 3.045C2.4175 3.13833 2.4 3.26083 2.4 3.4125C2.37667 3.61083 2.365 4.0425 2.365 4.7075V9.87C2.365 11.3283 2.36792 12.1888 2.37375 12.4513C2.37958 12.7138 2.4 12.9033 2.435 13.02L2.4525 13.055C2.53417 13.3467 2.6975 13.6208 2.9425 13.8775C3.16417 14.1108 3.39167 14.28 3.625 14.385C3.81167 14.4667 3.9925 14.5221 4.1675 14.5513C4.3425 14.5804 4.59333 14.595 4.92 14.595H5.27V14.945C5.27 15.1667 5.27583 15.3125 5.2875 15.3825C5.2875 15.4758 5.305 15.5575 5.34 15.6275ZM4.8675 13.125C4.5525 13.125 4.33083 13.0958 4.2025 13.0375C4.0625 12.9792 3.94583 12.8333 3.8525 12.6L3.835 11.41V10.22H14.02V11.41L14.0025 12.6C13.9092 12.8333 13.7692 12.985 13.5825 13.055C13.4658 13.1017 13.2617 13.125 12.97 13.125H12.585V12.7575C12.585 12.4892 12.5733 12.3142 12.55 12.2325C12.5267 12.1042 12.4625 11.9875 12.3575 11.8825C12.2758 11.8008 12.165 11.7425 12.025 11.7075C11.8617 11.6492 11.7042 11.655 11.5525 11.725C11.3775 11.8067 11.2375 11.97 11.1325 12.215L11.115 12.67V13.125H6.74V12.67L6.7225 12.215C6.59417 11.9117 6.41333 11.7308 6.18 11.6725C5.98167 11.6258 5.78917 11.6696 5.6025 11.8038C5.41583 11.9379 5.31083 12.0983 5.2875 12.285C5.27583 12.3317 5.27 12.4892 5.27 12.7575V13.125H4.8675ZM3.835 6.1075L3.8525 3.465C3.89917 3.34833 3.94 3.26667 3.975 3.22C4.03333 3.13833 4.0975 3.07417 4.1675 3.0275L4.2025 3.01C4.24917 2.975 4.31333 2.95167 4.395 2.94C4.51167 2.92833 4.78 2.9225 5.2 2.9225H12.8125C13.2325 2.93417 13.4658 2.94583 13.5125 2.9575C13.6758 3.01583 13.7983 3.0975 13.88 3.2025C13.9267 3.26083 13.9675 3.34833 14.0025 3.465L14.02 6.1075V8.75H3.835V6.1075ZM5.8475 7.28C5.7425 7.245 5.6375 7.18667 5.5325 7.105C5.3925 6.98833 5.31083 6.8425 5.2875 6.6675C5.27583 6.5975 5.27 6.32042 5.27 5.83625C5.27 5.35208 5.27583 5.075 5.2875 5.005C5.31083 4.865 5.36333 4.74833 5.445 4.655C5.50333 4.585 5.62583 4.49167 5.8125 4.375H7.6675C7.8775 4.515 8.01167 4.61708 8.07 4.68125C8.12833 4.74542 8.16917 4.85333 8.1925 5.005C8.20417 5.09833 8.21 5.36667 8.21 5.81C8.21 6.38167 8.18667 6.7375 8.14 6.8775C8.09333 6.97083 8.02042 7.05833 7.92125 7.14C7.82208 7.22167 7.72 7.26833 7.615 7.28C7.545 7.30333 7.2475 7.315 6.7225 7.315C6.1975 7.315 5.90583 7.30333 5.8475 7.28Z" fill="var(--fill-0, #697D95)"/>
</g>
</svg>
