<svg preserveAspectRatio="none" width="100%" height="100%" overflow="visible" style="display: block;" viewBox="0 0 16.17 15.5096" fill="none" xmlns="http://www.w3.org/2000/svg">
<g id="Icon">
<path id="Vector" d="M2.47053 9.61595C2.68766 10.6396 3.14778 11.5391 3.85088 12.3146C4.50228 13.0177 5.28293 13.5347 6.19283 13.8656C7.08205 14.1964 7.95058 14.2998 8.79844 14.1758C9.92547 14.0517 10.9129 13.6484 11.7608 12.966C12.5673 12.3353 13.1618 11.5366 13.5444 10.5698C13.9269 9.60302 14.0562 8.61816 13.9321 7.61521C13.7874 6.55022 13.3789 5.59896 12.7069 4.76144C12.6035 4.62703 12.0219 4.03508 10.962 2.9856C9.90221 1.93611 9.33094 1.38035 9.24822 1.31832C8.92769 1.11152 8.59165 0.997784 8.2401 0.977104C7.97126 0.966765 7.7076 1.01846 7.44911 1.1322C7.27333 1.19424 7.12858 1.27179 7.01484 1.36484C6.85974 1.48892 6.29623 2.03693 5.32429 3.00886C4.52813 3.80502 4.02666 4.31167 3.81986 4.5288C3.64409 4.72526 3.48382 4.93205 3.33907 5.14918C2.89446 5.81093 2.59719 6.52954 2.44726 7.30502C2.29734 8.0805 2.30509 8.85081 2.47053 9.61595ZM12.6603 8.91802C12.5776 9.66248 12.3191 10.3397 11.8848 10.9498C11.4816 11.5391 10.9646 12.007 10.3339 12.3534C9.70317 12.6998 9.03109 12.8885 8.31764 12.9195C7.56284 12.9402 6.83906 12.7799 6.1463 12.4387C5.48456 12.1078 4.94172 11.6529 4.51779 11.0738C4.12488 10.5362 3.86381 9.94165 3.73456 9.29025C3.60531 8.63884 3.61565 7.98744 3.76558 7.33604C3.9155 6.68463 4.20243 6.10044 4.62636 5.58345C4.70908 5.48006 5.24933 4.92688 6.24711 3.92393C7.2449 2.92097 7.76964 2.40399 7.82134 2.37297C7.92473 2.31093 8.04881 2.27991 8.19357 2.27991H8.2401C8.32281 2.27991 8.39002 2.30059 8.44172 2.34195C8.52444 2.40399 8.6847 2.54357 8.92252 2.76071L10.0547 3.89291C10.9646 4.8028 11.5126 5.36632 11.6987 5.58345C11.9469 5.89365 12.1589 6.26588 12.3346 6.70014C12.6448 7.4446 12.7534 8.18389 12.6603 8.91802ZM7.83685 10.9653H8.22459C8.86565 10.9653 9.40849 10.7637 9.85309 10.3604C10.2667 9.99852 10.5381 9.53323 10.6673 8.96454C10.7966 8.39586 10.7475 7.85302 10.52 7.33604C10.2822 6.77769 9.87894 6.35893 9.31026 6.07976C8.89667 5.87297 8.45982 5.78766 7.9997 5.82385C7.53958 5.86004 7.11824 6.00221 6.73567 6.25037C6.3531 6.49852 6.05841 6.82939 5.85162 7.24298C5.60347 7.72895 5.52075 8.23559 5.60347 8.76292C5.68618 9.29025 5.9059 9.75295 6.26262 10.151C6.61934 10.5491 7.06654 10.805 7.6042 10.9188L7.83685 10.9653ZM7.9299 9.67799C7.74379 9.63663 7.56284 9.55391 7.38707 9.42983C7.0562 9.18168 6.89076 8.84047 6.89076 8.4062C6.89076 8.09601 6.96831 7.83751 7.12341 7.63072C7.24748 7.45494 7.41809 7.32053 7.63522 7.22747C7.811 7.15509 7.98677 7.1189 8.16255 7.1189C8.50376 7.1189 8.79844 7.23264 9.04659 7.46011C9.30509 7.69793 9.43433 8.01329 9.43433 8.4062C9.43433 8.73707 9.34128 9.01107 9.15516 9.22821C8.98973 9.41432 8.77776 9.54874 8.51927 9.63146C8.30213 9.70383 8.10568 9.71934 7.9299 9.67799Z" fill="var(--fill-0, #1E293B)"/>
</g>
</svg>
