<svg preserveAspectRatio="none" width="100%" height="100%" overflow="visible" style="display: block;" viewBox="0 0 24 24" fill="none" xmlns="http://www.w3.org/2000/svg">
<g id="SVG">
<path id="Vector" fill-rule="evenodd" clip-rule="evenodd" d="M10 17H18C18.6 17 19 17.4 19 18C19 18.6 18.6 19 18 19H10C9.73478 19 9.48043 18.8946 9.29289 18.7071C9.10536 18.5196 9 18.2652 9 18C9 17.7348 9.10536 17.4804 9.29289 17.2929C9.48043 17.1054 9.73478 17 10 17ZM10 11H18C18.6 11 19 11.4 19 12C19 12.6 18.6 13 18 13H10C9.73478 13 9.48043 12.8946 9.29289 12.7071C9.10536 12.5196 9 12.2652 9 12C9 11.7348 9.10536 11.4804 9.29289 11.2929C9.48043 11.1054 9.73478 11 10 11ZM10 5H18C18.6 5 19 5.4 19 6C19 6.6 18.6 7 18 7H10C9.73478 7 9.48043 6.89464 9.29289 6.70711C9.10536 6.51957 9 6.26522 9 6C9 5.73478 9.10536 5.48043 9.29289 5.29289C9.48043 5.10536 9.73478 5 10 5ZM6 4V7.5C6 7.8 5.8 8 5.5 8C5.36739 8 5.24021 7.94732 5.14645 7.85355C5.05268 7.75979 5 7.63261 5 7.5V5H4.5C4.36739 5 4.24021 4.94732 4.14645 4.85355C4.05268 4.75979 4 4.63261 4 4.5C4 4.36739 4.05268 4.24021 4.14645 4.14645C4.24021 4.05268 4.36739 4 4.5 4H6ZM5 12.8L5.2 13H6.5C6.8 13 7 13.2 7 13.5C7 13.8 6.8 14 6.5 14H4.9C4.65248 13.9751 4.42311 13.8589 4.25669 13.674C4.09027 13.4891 3.99875 13.2488 4 13C4 12.6 4.3 12.2 4.6 12L5.8 11.6L6 11.3C6 11.247 5.97893 11.1961 5.94142 11.1586C5.90391 11.1211 5.85304 11.1 5.8 11.1H4.5C4.36739 11.1 4.24021 11.0473 4.14645 10.9536C4.05268 10.8598 4 10.7326 4 10.6C4 10.3 4.2 10.1 4.5 10.1H6.1C6.6 10.1 7 10.5 7 11.1V11.2C7 11.6 6.7 12 6.4 12.2L5.2 12.6L5 12.9V12.8ZM7 17V19C7 19.6 6.6 20 6 20H4.5C4.36739 20 4.24021 19.9473 4.14645 19.8536C4.05268 19.7598 4 19.6326 4 19.5C4 19.3674 4.05268 19.2402 4.14645 19.1464C4.24021 19.0527 4.36739 19 4.5 19H5.7C5.9 19 6 18.9 6 18.7C6 18.5 5.9 18.4 5.7 18.4H4.4C4.29391 18.4 4.19217 18.3579 4.11716 18.2828C4.04214 18.2078 4 18.1061 4 18C4 17.8939 4.04214 17.7922 4.11716 17.7172C4.19217 17.6421 4.29391 17.6 4.4 17.6H5.7C5.9 17.6 6 17.5 6 17.3C6 17.1 5.9 17 5.7 17H4.5C4.36739 17 4.24021 16.9473 4.14645 16.8536C4.05268 16.7598 4 16.6326 4 16.5C4 16.3674 4.05268 16.2402 4.14645 16.1464C4.24021 16.0527 4.36739 16 4.5 16H6C6.6 16 7 16.4 7 17Z" fill="var(--fill-0, #222F3E)"/>
</g>
</svg>
