<svg preserveAspectRatio="none" width="100%" height="100%" overflow="visible" style="display: block;" viewBox="0 0 17.68 17.5" fill="none" xmlns="http://www.w3.org/2000/svg">
<g id="Icon">
<path id="Vector" d="M8.9275 1.47C7.5975 1.47 6.36667 1.79667 5.235 2.45C4.13833 3.09167 3.26917 3.96083 2.6275 5.0575C1.97417 6.18917 1.6475 7.42 1.6475 8.75C1.6475 9.74167 1.83708 10.6925 2.21625 11.6025C2.59542 12.5125 3.135 13.3117 3.835 14C4.55833 14.7 5.40417 15.225 6.3725 15.575C7.39917 15.9483 8.50167 16.0942 9.68 16.0125C10.87 15.8842 11.9492 15.4992 12.9175 14.8575C13.8275 14.2625 14.5683 13.4925 15.14 12.5475C15.7 11.6258 16.0442 10.6313 16.1725 9.56375C16.3008 8.49625 16.1958 7.46667 15.8575 6.475C15.5425 5.51833 15.0496 4.66083 14.3787 3.9025C13.7079 3.14417 12.9117 2.555 11.99 2.135C11.0333 1.69167 10.0125 1.47 8.9275 1.47ZM14.7025 7.9975C14.8425 9.10583 14.685 10.1558 14.23 11.1475C13.7983 12.0925 13.1567 12.8713 12.305 13.4838C11.4533 14.0963 10.5142 14.455 9.4875 14.56C8.39083 14.665 7.32917 14.4608 6.3025 13.9475C5.62583 13.5975 5.07167 13.1833 4.64 12.705C3.82333 11.8183 3.3275 10.7975 3.1525 9.6425C3.00083 8.5575 3.14375 7.50167 3.58125 6.475C4.01875 5.44833 4.675 4.62 5.55 3.99C6.495 3.31333 7.5625 2.9575 8.7525 2.9225C9.7325 2.8875 10.6512 3.08583 11.5087 3.5175C12.3662 3.94917 13.075 4.55 13.635 5.32C14.2067 6.11333 14.5625 7.00583 14.7025 7.9975ZM9.6625 7.7175C9.6625 7.5425 9.61 7.37917 9.505 7.2275C9.37667 7.02917 9.18125 6.93 8.91875 6.93C8.65625 6.93 8.46083 7.02917 8.3325 7.2275C8.20417 7.42583 8.16333 7.67375 8.21 7.97125C8.25667 8.26875 8.37333 8.54583 8.56 8.8025C8.77 9.0825 9.0325 9.28958 9.3475 9.42375C9.6625 9.55792 9.89 9.75333 10.03 10.01C10.1467 10.2433 10.1758 10.4913 10.1175 10.7538C10.0592 11.0163 9.92792 11.235 9.72375 11.41C9.51958 11.585 9.2775 11.6725 8.9975 11.6725C8.76417 11.6725 8.57167 11.6258 8.42 11.5325C8.32667 11.4858 8.21 11.3925 8.07 11.2525C7.965 11.1358 7.8775 11.06 7.8075 11.025C7.7025 10.955 7.57417 10.9258 7.4225 10.9375C7.23583 10.9492 7.07833 11.0192 6.95 11.1475C6.82167 11.2758 6.74875 11.4304 6.73125 11.6113C6.71375 11.7921 6.76333 11.9583 6.88 12.11C7.195 12.5183 7.5975 12.81 8.0875 12.985C8.55417 13.1483 9.03542 13.1775 9.53125 13.0725C10.0271 12.9675 10.4558 12.7458 10.8175 12.4075C11.2025 12.0342 11.4533 11.5617 11.57 10.99C11.64 10.71 11.64 10.395 11.57 10.045C11.4883 9.625 11.325 9.2575 11.08 8.9425C10.7883 8.5575 10.4033 8.26583 9.925 8.0675C9.87833 8.05583 9.83167 8.02667 9.785 7.98C9.70333 7.91 9.6625 7.8225 9.6625 7.7175ZM8.6825 5.7925C8.51917 5.73417 8.39375 5.63208 8.30625 5.48625C8.21875 5.34042 8.18375 5.18583 8.20125 5.0225C8.21875 4.85917 8.28583 4.71333 8.4025 4.585C8.5425 4.43333 8.7175 4.3575 8.9275 4.3575C9.1375 4.3575 9.3125 4.43333 9.4525 4.585C9.6275 4.76 9.69458 4.96125 9.65375 5.18875C9.61292 5.41625 9.49625 5.59417 9.30375 5.7225C9.11125 5.85083 8.90417 5.87417 8.6825 5.7925Z" fill="var(--fill-0, #475569)"/>
</g>
</svg>
