<svg preserveAspectRatio="none" width="100%" height="100%" overflow="visible" style="display: block;" viewBox="0 0 12.38 12" fill="none" xmlns="http://www.w3.org/2000/svg">
<g id="Icon">
<path id="Vector" d="M1.906 9.204C2.322 9.828 2.858 10.296 3.514 10.608C4.138 10.904 4.802 11.03 5.506 10.986C6.21 10.942 6.85 10.732 7.426 10.356C8.05 9.956 8.526 9.412 8.854 8.724C9.174 8.068 9.3 7.376 9.232 6.648C9.164 5.92 8.918 5.26 8.494 4.668L8.422 4.548L10.786 2.172C10.986 1.972 11.114 1.836 11.17 1.764C11.202 1.716 11.226 1.664 11.242 1.608V1.584C11.266 1.408 11.218 1.262 11.098 1.146C10.978 1.03 10.834 0.984 10.666 1.008H10.642C10.586 1.024 10.534 1.048 10.486 1.08C10.414 1.136 10.278 1.264 10.078 1.464L7.702 3.828L7.594 3.756C7.226 3.5 6.874 3.32 6.538 3.216C5.818 2.976 5.098 2.94 4.378 3.108C3.722 3.252 3.13 3.552 2.602 4.008C2.098 4.456 1.734 4.976 1.51 5.568C1.278 6.184 1.198 6.81 1.27 7.446C1.342 8.082 1.554 8.668 1.906 9.204ZM4.99 9.984C4.702 9.952 4.462 9.9 4.27 9.828C3.79 9.66 3.378 9.39 3.034 9.018C2.69 8.646 2.458 8.22 2.338 7.74C2.306 7.62 2.286 7.504 2.278 7.392C2.27 7.32 2.266 7.192 2.266 7.008C2.266 6.424 2.406 5.9 2.686 5.436C2.942 5.004 3.29 4.664 3.73 4.416C4.17 4.168 4.642 4.034 5.146 4.014C5.65 3.994 6.126 4.092 6.574 4.308C7.054 4.548 7.45 4.904 7.762 5.376C8.05 5.816 8.21 6.292 8.242 6.804C8.266 7.292 8.176 7.764 7.972 8.22C7.768 8.676 7.474 9.056 7.09 9.36C6.682 9.688 6.218 9.892 5.698 9.972C5.642 9.98 5.524 9.986 5.344 9.99C5.164 9.994 5.046 9.992 4.99 9.984Z" fill="var(--fill-0, #94A3B8)"/>
</g>
</svg>
