<svg preserveAspectRatio="none" width="100%" height="100%" overflow="visible" style="display: block;" viewBox="0 0 12.73 13" fill="none" xmlns="http://www.w3.org/2000/svg">
<g id="Icon">
<path id="Vector" d="M3.15099 8.59226C3.01655 8.55865 2.91151 8.48302 2.83589 8.36539C2.76027 8.24775 2.73506 8.12171 2.76027 7.98727V7.96206C2.77707 7.90324 2.80648 7.84442 2.8485 7.7856C2.90731 7.70998 3.05436 7.55033 3.28963 7.30665L5.65918 4.93711C5.90285 4.70184 6.0625 4.55479 6.13813 4.49597C6.19695 4.45396 6.25577 4.42455 6.31458 4.40774H6.33979C6.39861 4.39934 6.45743 4.39934 6.51625 4.40774H6.54146C6.59187 4.41615 6.63809 4.43715 6.6801 4.47076C6.73051 4.50437 6.83135 4.5968 6.98259 4.74805L7.72623 5.47908L9.67984 7.43269C9.8647 7.61755 9.97814 7.74359 10.0201 7.81081C10.0538 7.86123 10.079 7.91164 10.0958 7.96206V7.98727C10.1126 8.0965 10.0937 8.20153 10.0391 8.30237C9.98444 8.4032 9.90671 8.48092 9.80588 8.53554C9.70505 8.59016 9.60002 8.60906 9.49078 8.59226H9.46557C9.40676 8.57545 9.35214 8.55024 9.30172 8.51663C9.2261 8.45782 9.08325 8.32757 8.87319 8.12591L6.42802 5.68074L3.97025 8.12591C3.76018 8.32757 3.62154 8.45782 3.55432 8.51663C3.5039 8.55024 3.44928 8.57545 3.39047 8.59226H3.35265C3.26022 8.60906 3.193 8.60906 3.15099 8.59226Z" fill="var(--fill-0, white)"/>
</g>
</svg>
