<svg preserveAspectRatio="none" width="100%" height="100%" overflow="visible" style="display: block;" viewBox="0 0 22 24" fill="none" xmlns="http://www.w3.org/2000/svg">
<g id="SVG">
<path id="Vector" fill-rule="evenodd" clip-rule="evenodd" d="M10.1548 3.0625C9.31425 3.0625 8.59742 3.67025 8.459 4.49892L8.29583 5.48158C8.2775 5.59158 8.19042 5.71992 8.02358 5.80058C7.70949 5.95157 7.40734 6.12624 7.11975 6.32308C6.96758 6.4285 6.81358 6.43858 6.70725 6.39917L5.775 6.049C5.39389 5.90622 4.97447 5.90331 4.59141 6.04078C4.20836 6.17826 3.88651 6.44721 3.68317 6.79975L2.838 8.26367C2.63458 8.616 2.56274 9.02906 2.63525 9.42938C2.70776 9.8297 2.91992 10.1913 3.234 10.4499L4.004 11.0843C4.09108 11.1558 4.15983 11.2942 4.14517 11.4784C4.11904 11.826 4.11904 12.175 4.14517 12.5225C4.15892 12.7058 4.09108 12.8452 4.00492 12.9167L3.234 13.551C2.91992 13.8096 2.70776 14.1712 2.63525 14.5715C2.56274 14.9719 2.63458 15.3849 2.838 15.7372L3.68317 17.2012C3.88665 17.5535 4.20856 17.8223 4.59161 17.9596C4.97465 18.0969 5.39399 18.0939 5.775 17.951L6.70908 17.6008C6.8145 17.5614 6.9685 17.5724 7.12158 17.676C7.40758 17.8722 7.70917 18.0472 8.0245 18.1985C8.19133 18.2792 8.27842 18.4075 8.29675 18.5193L8.45992 19.5011C8.59833 20.3298 9.31517 20.9375 10.1558 20.9375H11.8461C12.6858 20.9375 13.4035 20.3298 13.5419 19.5011L13.7051 18.5184C13.7234 18.4084 13.8096 18.2801 13.9773 18.1985C14.2927 18.0472 14.5943 17.8722 14.8803 17.676C15.0333 17.5715 15.1873 17.5614 15.2928 17.6008L16.2277 17.951C16.6086 18.0933 17.0276 18.0959 17.4103 17.9585C17.7929 17.821 18.1145 17.5524 18.3178 17.2003L19.1638 15.7363C19.3673 15.384 19.4391 14.9709 19.3666 14.5706C19.2941 14.1703 19.0819 13.8087 18.7678 13.5501L17.9978 12.9157C17.9108 12.8442 17.842 12.7058 17.8567 12.5216C17.8827 12.174 17.8827 11.825 17.8567 11.4775C17.842 11.2942 17.9108 11.1548 17.9969 11.0833L18.7669 10.449C19.4159 9.9155 19.5837 8.9915 19.1638 8.26275L18.3187 6.79883C18.1152 6.44646 17.7933 6.1777 17.4102 6.0404C17.0272 5.90309 16.6078 5.90614 16.2268 6.049L15.2918 6.39917C15.1873 6.43858 15.0333 6.42758 14.8803 6.32308C14.593 6.12627 14.2911 5.9516 13.9773 5.80058C13.8096 5.72083 13.7234 5.5925 13.7051 5.48158L13.541 4.49892C13.4741 4.09748 13.267 3.73278 12.9565 3.46974C12.6459 3.20671 12.2521 3.0624 11.8452 3.0625H10.1558H10.1548ZM11 15.4375C11.9117 15.4375 12.786 15.0753 13.4307 14.4307C14.0753 13.786 14.4375 12.9117 14.4375 12C14.4375 11.0883 14.0753 10.214 13.4307 9.56932C12.786 8.92466 11.9117 8.5625 11 8.5625C10.0883 8.5625 9.21398 8.92466 8.56932 9.56932C7.92466 10.214 7.5625 11.0883 7.5625 12C7.5625 12.9117 7.92466 13.786 8.56932 14.4307C9.21398 15.0753 10.0883 15.4375 11 15.4375Z" fill="var(--fill-0, white)"/>
</g>
</svg>
