<svg preserveAspectRatio="none" width="100%" height="100%" overflow="visible" style="display: block;" viewBox="0 0 17.68 17.5" fill="none" xmlns="http://www.w3.org/2000/svg">
<g id="Icon">
<path id="Vector" d="M8.1925 13.86C8.1925 13.475 8.06417 13.1425 7.8075 12.8625C7.53917 12.5592 7.18333 12.4075 6.74 12.4075C6.33167 12.4075 5.99333 12.5417 5.725 12.81C5.49167 13.0433 5.35167 13.3408 5.305 13.7025C5.25833 14.0642 5.32833 14.385 5.515 14.665C5.725 14.98 6.04 15.1842 6.46 15.2775C6.71667 15.3358 6.98208 15.3154 7.25625 15.2162C7.53042 15.1171 7.74917 14.9508 7.9125 14.7175C8.09917 14.4725 8.1925 14.1867 8.1925 13.86ZM12.5675 13.86C12.5675 13.475 12.4392 13.1425 12.1825 12.8625C11.9142 12.5592 11.5583 12.4075 11.115 12.4075C10.7067 12.4075 10.3683 12.5417 10.1 12.81C9.86667 13.0433 9.72667 13.3408 9.68 13.7025C9.63333 14.0642 9.70333 14.385 9.89 14.665C10.1 14.98 10.415 15.1842 10.835 15.2775C11.0917 15.3358 11.3571 15.3154 11.6312 15.2162C11.9054 15.1171 12.1242 14.9508 12.2875 14.7175C12.4742 14.4725 12.5675 14.1867 12.5675 13.86ZM5.2875 8.75C5.2875 9.17 5.4275 9.51417 5.7075 9.7825C5.92917 9.9925 6.19167 10.1267 6.495 10.185H6.53C6.635 10.1967 6.7225 10.2025 6.7925 10.2025C6.97917 10.2025 7.17167 10.1558 7.37 10.0625C7.60333 9.94583 7.79 9.78833 7.93 9.59C8.105 9.35667 8.1925 9.07667 8.1925 8.75C8.1925 8.35333 8.07 8.02083 7.825 7.7525C7.545 7.46083 7.18333 7.315 6.74 7.315C6.40167 7.315 6.11 7.4025 5.865 7.5775C5.67833 7.7175 5.5325 7.91 5.4275 8.155C5.33417 8.35333 5.2875 8.55167 5.2875 8.75ZM9.6625 8.75C9.6625 9.17 9.8025 9.51417 10.0825 9.7825C10.3042 9.9925 10.5667 10.1267 10.87 10.185H10.905C11.01 10.1967 11.0975 10.2025 11.1675 10.2025C11.3542 10.2025 11.5467 10.1558 11.745 10.0625C11.9783 9.94583 12.165 9.78833 12.305 9.59C12.48 9.35667 12.5675 9.07667 12.5675 8.75C12.5675 8.35333 12.445 8.02083 12.2 7.7525C11.92 7.46083 11.5583 7.315 11.115 7.315C10.7767 7.315 10.485 7.4025 10.24 7.5775C10.0533 7.7175 9.9075 7.91 9.8025 8.155C9.70917 8.35333 9.6625 8.55167 9.6625 8.75ZM8.1925 3.64C8.1925 3.465 8.15167 3.27833 8.07 3.08C7.97667 2.835 7.83083 2.63667 7.6325 2.485C7.39917 2.29833 7.10167 2.205 6.74 2.205C6.29667 2.205 5.94667 2.33917 5.69 2.6075C5.445 2.86417 5.31375 3.17625 5.29625 3.54375C5.27875 3.91125 5.375 4.235 5.585 4.515C5.81833 4.83 6.13917 5.0225 6.5475 5.0925C6.81583 5.1275 7.07542 5.0925 7.32625 4.9875C7.57708 4.8825 7.78417 4.71042 7.9475 4.47125C8.11083 4.23208 8.1925 3.955 8.1925 3.64ZM10.9225 5.0925C10.5492 5.03417 10.2458 4.87083 10.0125 4.6025C9.8025 4.3575 9.68875 4.06875 9.67125 3.73625C9.65375 3.40375 9.72667 3.10333 9.89 2.835C10.0767 2.54333 10.3508 2.345 10.7125 2.24C10.8058 2.21667 10.94 2.205 11.115 2.205C11.4767 2.205 11.7742 2.29833 12.0075 2.485C12.2058 2.63667 12.3517 2.835 12.445 3.08C12.5267 3.27833 12.5675 3.465 12.5675 3.64C12.5675 3.955 12.4858 4.23208 12.3225 4.47125C12.1592 4.71042 11.9521 4.8825 11.7012 4.9875C11.4504 5.0925 11.1908 5.1275 10.9225 5.0925Z" fill="var(--fill-0, #CBD5E1)"/>
</g>
</svg>
