<svg preserveAspectRatio="none" width="100%" height="100%" overflow="visible" style="display: block;" viewBox="0 0 16.17 15.5096" fill="none" xmlns="http://www.w3.org/2000/svg">
<g id="Icon">
<path id="Vector" d="M7.94541 12.8885C7.87304 12.8678 7.80583 12.8264 7.74379 12.7644C7.68175 12.7024 7.63005 12.6403 7.58869 12.5783V12.5628C7.55767 12.5111 7.53699 12.4542 7.52665 12.3922C7.51631 12.2991 7.51115 12.1078 7.51115 11.8183V8.4062H4.09904C3.80952 8.4062 3.61824 8.40103 3.52518 8.39069C3.46314 8.38035 3.40627 8.36484 3.35457 8.34416L3.33907 8.32865C3.27703 8.29763 3.21499 8.2511 3.15295 8.18906C3.05989 8.07533 3.01336 7.93057 3.01336 7.7548C3.01336 7.57902 3.05989 7.43426 3.15295 7.32053C3.21499 7.25849 3.27703 7.21196 3.33907 7.18094L3.35457 7.16543C3.40627 7.14475 3.46314 7.12924 3.52518 7.1189C3.61824 7.10856 3.80952 7.10339 4.09904 7.10339H7.51115V3.69128C7.51115 3.40177 7.51631 3.21049 7.52665 3.11743C7.53699 3.05539 7.5525 2.99852 7.57318 2.94682L7.58869 2.93131C7.61971 2.86927 7.66624 2.80724 7.72828 2.7452C7.84202 2.65214 7.98677 2.60561 8.16255 2.60561C8.33832 2.60561 8.48308 2.65214 8.59682 2.7452C8.65885 2.80724 8.70538 2.86927 8.7364 2.93131L8.75191 2.94682C8.77259 2.99852 8.7881 3.05539 8.79844 3.11743C8.80878 3.21049 8.81395 3.40177 8.81395 3.69128V7.10339H12.2261C12.5156 7.10339 12.7069 7.10856 12.7999 7.1189C12.862 7.12924 12.9188 7.14475 12.9705 7.16543L12.986 7.18094C13.0481 7.21196 13.1101 7.25849 13.1721 7.32053C13.2652 7.43426 13.3117 7.57902 13.3117 7.7548C13.3117 7.93057 13.2652 8.07533 13.1721 8.18906C13.1101 8.2511 13.0481 8.29763 12.986 8.32865L12.9705 8.34416C12.9188 8.36484 12.862 8.38035 12.7999 8.39069C12.7069 8.40103 12.5156 8.4062 12.2261 8.4062H8.81395V11.8183C8.81395 12.1078 8.80878 12.2991 8.79844 12.3922C8.7881 12.4542 8.77259 12.5111 8.75191 12.5628L8.7364 12.5783C8.71572 12.63 8.66919 12.6868 8.59682 12.7489C8.47274 12.8626 8.33832 12.9195 8.19357 12.9195C8.06949 12.9195 7.98677 12.9092 7.94541 12.8885Z" fill="var(--fill-0, #334155)"/>
</g>
</svg>
