<svg preserveAspectRatio="none" width="100%" height="100%" overflow="visible" style="display: block;" viewBox="0 0 21.46 21" fill="none" xmlns="http://www.w3.org/2000/svg">
<g id="Icon">
<path id="Vector" d="M4.43 18.354C4.43 18.354 4.444 18.354 4.472 18.354C5.13 18.368 5.781 18.375 6.425 18.375C7.713 18.375 8.392 18.3645 8.462 18.3435C8.532 18.3225 8.6125 18.277 8.7035 18.207C8.7945 18.137 8.861 18.074 8.903 18.018C8.973 17.934 9.309 17.136 9.911 15.624C10.471 14.224 10.772 13.468 10.814 13.356C10.856 13.216 10.8525 13.0655 10.8035 12.9045C10.7545 12.7435 10.674 12.607 10.562 12.495C10.534 12.467 10.254 12.292 9.722 11.97L8.945 11.487L9.113 11.235C9.771 10.255 10.59 9.436 11.57 8.778L11.822 8.61L12.305 9.387C12.627 9.919 12.802 10.199 12.83 10.227C12.942 10.339 13.0785 10.4195 13.2395 10.4685C13.4005 10.5175 13.551 10.521 13.691 10.479C13.803 10.437 14.559 10.136 15.959 9.576C17.471 8.974 18.269 8.638 18.353 8.568C18.409 8.526 18.4685 8.463 18.5315 8.379C18.5945 8.295 18.64 8.2215 18.668 8.1585C18.696 8.0955 18.71 7.399 18.71 6.069C18.71 4.739 18.696 4.018 18.668 3.906C18.598 3.556 18.458 3.227 18.248 2.919C18.024 2.569 17.744 2.296 17.408 2.1C17.016 1.876 16.582 1.764 16.106 1.764C15.574 1.764 14.93 1.834 14.174 1.974C12.802 2.24 11.486 2.688 10.226 3.318C8.49 4.2 6.964 5.39 5.648 6.888C3.632 9.24 2.456 11.984 2.12 15.12C2.092 15.456 2.085 15.7325 2.099 15.9495C2.113 16.1665 2.155 16.38 2.225 16.59C2.351 16.968 2.561 17.304 2.855 17.598C3.093 17.836 3.373 18.025 3.695 18.165C3.975 18.291 4.22 18.354 4.43 18.354ZM4.577 16.611C4.395 16.583 4.2305 16.499 4.0835 16.359C3.9365 16.219 3.856 16.058 3.842 15.876C3.828 15.792 3.842 15.561 3.884 15.183C3.94 14.623 4.045 14.049 4.199 13.461C4.409 12.649 4.689 11.865 5.039 11.109C5.473 10.157 6.005 9.282 6.635 8.484C7.391 7.518 8.273 6.671 9.281 5.943C9.855 5.537 10.478 5.166 11.15 4.83C11.822 4.494 12.501 4.228 13.187 4.032C13.677 3.892 14.195 3.773 14.741 3.675C15.287 3.577 15.721 3.528 16.043 3.528C16.365 3.528 16.603 3.626 16.757 3.822C16.855 3.948 16.918 4.095 16.946 4.263C16.974 4.375 16.988 4.9035 16.988 5.8485C16.988 6.7935 16.9705 7.2765 16.9355 7.2975C16.9005 7.3185 16.3755 7.5285 15.3605 7.9275C14.3455 8.3265 13.831 8.519 13.817 8.505C13.775 8.463 13.67 8.295 13.502 8.001C13.306 7.637 13.145 7.371 13.019 7.203C12.823 6.909 12.6585 6.727 12.5255 6.657C12.3925 6.587 12.256 6.5555 12.116 6.5625C11.976 6.5695 11.808 6.622 11.612 6.72C10.632 7.224 9.7535 7.8645 8.9765 8.6415C8.1995 9.4185 7.559 10.297 7.055 11.277C6.915 11.557 6.8625 11.788 6.8975 11.97C6.9325 12.152 7.048 12.32 7.244 12.474C7.37 12.586 7.636 12.761 8.042 12.999L8.84 13.482C8.854 13.496 8.6615 14.0105 8.2625 15.0255C7.8635 16.0405 7.6535 16.562 7.6325 16.59C7.6115 16.618 7.118 16.632 6.152 16.632C5.732 16.632 5.249 16.625 4.703 16.611H4.577Z" fill="var(--fill-0, #1E293B)"/>
</g>
</svg>
