<svg preserveAspectRatio="none" width="100%" height="100%" overflow="visible" style="display: block;" viewBox="0 0 18.3706 18.3755" fill="none" xmlns="http://www.w3.org/2000/svg">
<g id="Group">
<path id="Vector" d="M16.6206 9.01303C16.6734 7.43357 16.2497 5.87472 15.4047 4.53924C14.5596 3.20377 13.3324 2.15343 11.8824 1.52481C10.4324 0.896184 8.82691 0.718367 7.27457 1.01446C5.72217 1.31056 4.29479 2.06687 3.17801 3.18506C2.06123 4.30326 1.30673 5.73159 1.0126 7.28438C0.718468 8.83707 0.898324 10.4424 1.52878 11.8916C2.15924 13.3408 3.21112 14.5667 4.54767 15.4101C5.88421 16.2534 7.44353 16.6751 9.023 16.6203" stroke="var(--stroke-0, #64748B)" stroke-width="1.75" stroke-linecap="round" stroke-linejoin="round"/>
<path id="Vector_2" d="M8.74562 4.37553V8.75053L10.4956 10.5005" stroke="var(--stroke-0, #64748B)" stroke-width="1.75" stroke-linecap="round" stroke-linejoin="round"/>
<path id="Vector_3" d="M12.2456 14.8755C12.2456 15.5717 12.5222 16.2394 13.0145 16.7317C13.5068 17.2239 14.1745 17.5005 14.8706 17.5005C15.5668 17.5005 16.2345 17.2239 16.7268 16.7317C17.219 16.2394 17.4956 15.5717 17.4956 14.8755C17.4956 14.1794 17.219 13.5117 16.7268 13.0194C16.2345 12.5271 15.5668 12.2505 14.8706 12.2505C14.1745 12.2505 13.5068 12.5271 13.0145 13.0194C12.5222 13.5117 12.2456 14.1794 12.2456 14.8755Z" stroke="var(--stroke-0, #64748B)" stroke-width="1.75" stroke-linecap="round" stroke-linejoin="round"/>
</g>
</svg>
