<svg preserveAspectRatio="none" width="100%" height="100%" overflow="visible" style="display: block;" viewBox="0 0 24 24" fill="none" xmlns="http://www.w3.org/2000/svg">
<g id="SVG">
<path id="Vector" fill-rule="evenodd" clip-rule="evenodd" d="M7.8 19C7.5 19 7.3 19 7.2 18.8L7 18.3V5.7C7 5.5 7 5.3 7.2 5.2L7.8 5H12.8C14.3 5 15.5 5.3 16.3 6C17 6.6 17.4 7.4 17.4 8.5C17.4223 9.18319 17.2106 9.85352 16.8 10.4C16.4 11 15.8 11.4 15.2 11.6C15.6 11.7 16.1 11.9 16.5 12.2C16.9 12.5 17.3 12.9 17.5 13.4C17.9 13.8 18 14.4 18 15C18 16.3 17.6 17.3 16.7 18C15.9 18.7 14.6 19 12.9 19H7.8ZM12.8 10.7C13.4 10.7 14 10.6 14.4 10.2C14.8 9.9 15 9.5 15 8.9C15 7.8 14.2 7.2 12.7 7.2H9.3V10.7H12.7H12.8ZM13.3 16.7C14 16.7 14.6 16.6 15 16.3C15.4 15.9 15.6 15.4 15.6 14.8C15.6 14.2 15.4 13.8 14.9 13.4C14.5 13.1 13.9 13 12.9 13H9.4V16.8H13.4L13.3 16.7Z" fill="var(--fill-0, #222F3E)"/>
</g>
</svg>
