<svg preserveAspectRatio="none" width="100%" height="100%" overflow="visible" style="display: block;" viewBox="0 0 14.14 14" fill="none" xmlns="http://www.w3.org/2000/svg">
<g id="Icon">
<path id="Vector" d="M5.768 12.824C5.81467 12.8333 6.26733 12.838 7.126 12.838C7.90067 12.838 8.36267 12.8287 8.512 12.81C8.708 12.7727 8.883 12.6933 9.037 12.572C9.191 12.4507 9.30533 12.3013 9.38 12.124L9.394 12.096C9.43133 12.0027 9.45467 11.9093 9.464 11.816C9.47333 11.7227 9.478 11.508 9.478 11.172V10.5H11.76C11.872 10.4907 11.9467 10.4813 11.984 10.472C12.1893 10.4067 12.3177 10.2807 12.369 10.094C12.4203 9.90733 12.3877 9.73233 12.271 9.569C12.1543 9.40567 11.984 9.324 11.76 9.324L11.732 9.058C11.396 4.886 11.2233 2.78133 11.214 2.744C11.1673 2.352 11.0133 2.01367 10.752 1.729C10.4907 1.44433 10.1593 1.26467 9.758 1.19C9.69267 1.18067 8.82233 1.176 7.147 1.176C5.47167 1.176 4.59667 1.18067 4.522 1.19C4.06467 1.28333 3.70067 1.498 3.43 1.834C3.21533 2.114 3.094 2.41733 3.066 2.744C3.05667 2.78133 2.884 4.886 2.548 9.058L2.52 9.324C2.296 9.324 2.12567 9.40333 2.009 9.562C1.89233 9.72067 1.85967 9.89567 1.911 10.087C1.96233 10.2783 2.09067 10.4067 2.296 10.472C2.33333 10.4813 2.408 10.4907 2.52 10.5H4.802V11.116C4.802 11.4893 4.81133 11.7413 4.83 11.872C4.86733 12.1147 4.97233 12.3223 5.145 12.495C5.31767 12.6677 5.52533 12.7773 5.768 12.824ZM5.978 11.662V10.5H8.302V11.662H5.978ZM3.696 9.31C3.696 9.18867 3.78467 8.09667 3.962 6.034L4.158 3.682C4.20467 3.21533 4.23733 2.91667 4.256 2.786C4.27467 2.69267 4.30267 2.62733 4.34 2.59L4.354 2.562C4.438 2.45933 4.53133 2.394 4.634 2.366C4.67133 2.35667 4.802 2.34733 5.026 2.338H9.254C9.478 2.34733 9.60867 2.35667 9.646 2.366C9.74867 2.394 9.842 2.45933 9.926 2.562L9.94 2.59C9.97733 2.62733 10.0053 2.69267 10.024 2.786C10.0427 2.91667 10.0753 3.21533 10.122 3.682L10.318 6.034C10.4953 8.09667 10.584 9.18867 10.584 9.31C10.584 9.31933 9.436 9.324 7.14 9.324C4.844 9.324 3.696 9.31933 3.696 9.31ZM5.418 7.756C5.48333 7.94267 5.60233 8.06633 5.775 8.127C5.94767 8.18767 6.11333 8.17367 6.272 8.085C6.43067 7.99633 6.524 7.84933 6.552 7.644C6.56133 7.60667 6.566 6.98133 6.566 5.768V4.452C6.55667 4.19067 6.54733 4.018 6.538 3.934C6.52867 3.878 6.51 3.82667 6.482 3.78L6.454 3.752C6.36067 3.63067 6.24167 3.55367 6.097 3.521C5.95233 3.48833 5.81467 3.507 5.684 3.577C5.55333 3.647 5.46467 3.75667 5.418 3.906C5.40867 3.94333 5.39933 4.046 5.39 4.214V7.434C5.39933 7.61133 5.40867 7.71867 5.418 7.756ZM8.218 8.162C8.106 8.14333 8.001 8.085 7.903 7.987C7.805 7.889 7.74667 7.77467 7.728 7.644C7.71867 7.60667 7.714 6.98133 7.714 5.768V4.452C7.72333 4.19067 7.73267 4.018 7.742 3.934C7.75133 3.878 7.77 3.82667 7.798 3.78L7.826 3.752C7.91933 3.63067 8.03833 3.55367 8.183 3.521C8.32767 3.48833 8.46533 3.507 8.596 3.577C8.72667 3.647 8.81533 3.75667 8.862 3.906C8.87133 3.94333 8.88067 4.046 8.89 4.214V7.42C8.88067 7.60667 8.87133 7.71867 8.862 7.756C8.81533 7.896 8.73367 8.00333 8.617 8.078C8.50033 8.15267 8.36733 8.18067 8.218 8.162Z" fill="var(--fill-0, #DC2626)"/>
</g>
</svg>
