<svg preserveAspectRatio="none" width="100%" height="100%" overflow="visible" style="display: block;" viewBox="0 0 17.68 17.5" fill="none" xmlns="http://www.w3.org/2000/svg">
<g id="Icon">
<path id="Vector" d="M8.5775 15.9425C8.70583 16.0242 8.84583 16.0592 8.9975 16.0475C9.07917 16.0358 9.14917 16.0125 9.2075 15.9775C9.61583 15.7792 10.7358 15.155 12.5675 14.105C14.3408 13.1017 15.245 12.5825 15.28 12.5475C15.3383 12.4892 15.4025 12.3783 15.4725 12.215L15.49 10.4475V9.1175C15.49 8.84917 15.4783 8.66833 15.455 8.575C15.455 8.51667 15.4375 8.4525 15.4025 8.3825L15.385 8.365C15.2917 8.20167 15.1575 8.09667 14.9825 8.05C14.8075 8.00333 14.6354 8.015 14.4663 8.085C14.2971 8.155 14.1717 8.2775 14.09 8.4525L14.0375 8.54V10.78L9.6625 8.33V2.94C9.6625 2.485 9.65083 2.19333 9.6275 2.065C9.6275 1.97167 9.61 1.89583 9.575 1.8375L9.5575 1.82C9.46417 1.65667 9.32417 1.54583 9.1375 1.4875C8.95083 1.42917 8.77583 1.44083 8.6125 1.5225C8.56583 1.53417 7.55375 2.10292 5.57625 3.22875C3.59875 4.35458 2.59833 4.92917 2.575 4.9525C2.49333 5.03417 2.42917 5.15083 2.3825 5.3025C2.37083 5.3375 2.365 6.50417 2.365 8.8025L2.3825 12.215C2.4525 12.3783 2.51667 12.4892 2.575 12.5475C2.65667 12.6292 4.38333 13.6092 7.755 15.4875L8.5775 15.9425ZM8.945 14.4725C8.91 14.4725 8.04667 13.9883 6.355 13.02C5.2 12.3667 4.61667 12.04 4.605 12.04L8.9275 9.59C10.3742 10.4067 11.8208 11.2175 13.2675 12.0225C13.1975 12.0692 12.4625 12.4892 11.0625 13.2825L8.945 14.4725ZM3.8175 8.3475V5.8975L8.1925 3.4475V8.33L3.835 10.78L3.8175 8.3475ZM13.88 7.28C13.7517 7.25667 13.6321 7.18958 13.5213 7.07875C13.4104 6.96792 13.3404 6.83667 13.3113 6.685C13.2821 6.53333 13.3083 6.37583 13.39 6.2125C13.4133 6.16583 13.5942 5.9675 13.9325 5.6175L14.44 5.11H12.76C11.6167 5.11 11.0217 5.10417 10.975 5.0925C10.73 5.03417 10.5608 4.9 10.4675 4.69C10.3742 4.48 10.3713 4.27 10.4588 4.06C10.5463 3.85 10.7183 3.71583 10.975 3.6575C11.0217 3.64583 11.6167 3.64 12.76 3.64H14.44L13.9325 3.1325C13.5942 2.79417 13.4133 2.59583 13.39 2.5375C13.2967 2.35083 13.2763 2.17 13.3288 1.995C13.3813 1.82 13.4863 1.68292 13.6438 1.58375C13.8013 1.48458 13.9675 1.44667 14.1425 1.47H14.16C14.2417 1.48167 14.3117 1.505 14.37 1.54C14.4517 1.58667 14.5858 1.70333 14.7725 1.89C14.9242 2.04167 15.2217 2.33917 15.665 2.7825C16.1667 3.28417 16.4992 3.6225 16.6625 3.7975C16.7908 3.9375 16.8667 4.03083 16.89 4.0775C16.9833 4.29917 16.9775 4.50333 16.8725 4.69C16.8025 4.80667 16.3883 5.24417 15.63 6.0025L14.65 6.965C14.51 7.09333 14.4138 7.175 14.3613 7.21C14.3088 7.245 14.2475 7.26833 14.1775 7.28H14.16C14.0667 7.29167 13.9733 7.29167 13.88 7.28Z" fill="var(--fill-0, #697D95)"/>
</g>
</svg>
