<svg preserveAspectRatio="none" width="100%" height="100%" overflow="visible" style="display: block;" viewBox="0 0 17.68 17.5" fill="none" xmlns="http://www.w3.org/2000/svg">
<g id="Icon">
<path id="Vector" d="M5.305 11.97C5.2 12.67 5.3225 13.3583 5.6725 14.035C6.0225 14.7117 6.51833 15.2308 7.16 15.5925C7.87167 15.9892 8.64167 16.1233 9.47 15.995C10.0417 15.9017 10.5317 15.715 10.94 15.435C11.605 14.9917 12.0717 14.4142 12.34 13.7025C12.585 13.0375 12.6317 12.3463 12.48 11.6288C12.3283 10.9112 11.9958 10.3017 11.4825 9.8C10.9458 9.25167 10.2808 8.91333 9.4875 8.785C8.97417 8.69167 8.42 8.73833 7.825 8.925C7.18333 9.14667 6.64667 9.49667 6.215 9.975C5.71333 10.5233 5.41 11.1883 5.305 11.97ZM11.0625 12.8275C10.9808 13.2592 10.7883 13.6238 10.485 13.9213C10.1817 14.2188 9.82583 14.4171 9.4175 14.5163C9.00917 14.6154 8.60667 14.6008 8.21 14.4725C7.79 14.3208 7.44 14.0496 7.16 13.6588C6.88 13.2679 6.74583 12.845 6.7575 12.39C6.7575 11.97 6.87417 11.5792 7.1075 11.2175C7.34083 10.8558 7.64417 10.5875 8.0175 10.4125C8.42583 10.2258 8.8575 10.1733 9.3125 10.255C9.7325 10.3367 10.0883 10.5087 10.38 10.7712C10.6717 11.0337 10.8787 11.3487 11.0012 11.7163C11.1237 12.0838 11.1442 12.4542 11.0625 12.8275ZM7.1425 7.28C6.60583 7.23333 6.10708 7.07292 5.64625 6.79875C5.18542 6.52458 4.7975 6.16583 4.4825 5.7225C4.1675 5.27917 3.96333 4.78333 3.87 4.235C3.84667 4.11833 3.835 4.0075 3.835 3.9025C3.82333 3.75083 3.8175 3.4825 3.8175 3.0975C3.8175 2.45583 3.82333 2.11167 3.835 2.065C3.88167 1.80833 4.01 1.63333 4.22 1.54C4.43 1.44667 4.64292 1.44667 4.85875 1.54C5.07458 1.63333 5.21167 1.8025 5.27 2.0475C5.28167 2.09417 5.2875 2.40917 5.2875 2.9925C5.2875 3.50583 5.305 3.8675 5.34 4.0775C5.39833 4.40417 5.52083 4.69 5.7075 4.935C5.87083 5.15667 6.07208 5.34333 6.31125 5.495C6.55042 5.64667 6.80417 5.74583 7.0725 5.7925C7.1425 5.80417 7.76083 5.81 8.9275 5.81C10.0942 5.81 10.7125 5.80417 10.7825 5.7925C11.2142 5.69917 11.5875 5.50083 11.9025 5.1975C12.2175 4.89417 12.4275 4.52667 12.5325 4.095C12.5442 4.03667 12.5558 3.80917 12.5675 3.4125V3.01C12.5675 2.36833 12.5792 2.02417 12.6025 1.9775C12.6958 1.72083 12.8475 1.56042 13.0575 1.49625C13.2675 1.43208 13.4717 1.45542 13.67 1.56625C13.8683 1.67708 13.985 1.84333 14.02 2.065C14.0317 2.11167 14.0375 2.45 14.0375 3.08C14.0375 3.52333 14.0258 3.86167 14.0025 4.095C13.9558 4.48 13.8625 4.83 13.7225 5.145C13.5475 5.54167 13.2967 5.90333 12.97 6.23C12.4333 6.76667 11.7625 7.105 10.9575 7.245H10.9225C10.8175 7.26833 10.6833 7.28 10.52 7.28C10.2633 7.29167 9.76167 7.2975 9.015 7.2975C8.51333 7.2975 7.93583 7.29167 7.2825 7.28H7.1425Z" fill="var(--fill-0, #334155)"/>
</g>
</svg>
