<svg preserveAspectRatio="none" width="100%" height="100%" overflow="visible" style="display: block;" viewBox="0 0 17.68 17.5" fill="none" xmlns="http://www.w3.org/2000/svg">
<g id="Icon">
<path id="Vector" d="M6.5825 13.8425C6.39583 13.7958 6.24708 13.6908 6.13625 13.5275C6.02542 13.3642 5.9875 13.1892 6.0225 13.0025V12.9675C6.04583 12.8858 6.08083 12.81 6.1275 12.74C6.20917 12.635 6.39 12.4367 6.67 12.145L10.065 8.75L6.67 5.355C6.39 5.06333 6.20917 4.865 6.1275 4.76C6.08083 4.69 6.04583 4.61417 6.0225 4.5325V4.4975C5.99917 4.34583 6.02542 4.2 6.10125 4.06C6.17708 3.92 6.285 3.81208 6.425 3.73625C6.565 3.66042 6.71083 3.63417 6.8625 3.6575H6.8975C6.9675 3.66917 7.03167 3.69833 7.09 3.745C7.16 3.79167 7.3 3.92 7.51 4.13L8.5425 5.145L11.255 7.8575C11.5117 8.11417 11.6692 8.28917 11.7275 8.3825C11.7742 8.4525 11.8092 8.5225 11.8325 8.5925V8.6275C11.8442 8.70917 11.8442 8.79083 11.8325 8.8725V8.9075C11.8092 8.9775 11.7742 9.0475 11.7275 9.1175C11.6692 9.21083 11.5117 9.38583 11.255 9.6425L7.79 13.1075C7.46333 13.4342 7.24167 13.6383 7.125 13.72C7.055 13.7783 6.985 13.8192 6.915 13.8425H6.845C6.72833 13.8658 6.64083 13.8658 6.5825 13.8425Z" fill="var(--fill-0, #64748B)"/>
</g>
</svg>
