<svg preserveAspectRatio="none" width="100%" height="100%" overflow="visible" style="display: block;" viewBox="0 0 22 24" fill="none" xmlns="http://www.w3.org/2000/svg">
<g id="SVG">
<path id="Vector" d="M6.875 4.09375C6.875 3.14408 7.645 2.375 8.59375 2.375H8.9375C9.84918 2.375 10.7235 2.73716 11.3682 3.38182C12.0128 4.02648 12.375 4.90082 12.375 5.8125V7.53125C12.375 8.48092 13.145 9.25 14.0938 9.25H15.8125C16.7242 9.25 17.5985 9.61216 18.2432 10.2568C18.8878 10.9015 19.25 11.7758 19.25 12.6875V15.7813C19.25 16.73 18.48 17.5 17.5313 17.5H8.59375C8.13791 17.5 7.70074 17.3189 7.37841 16.9966C7.05608 16.6743 6.875 16.2371 6.875 15.7813V4.09375Z" fill="var(--fill-0, white)"/>
<path id="Vector_2" d="M13.75 5.8125C13.7516 4.65617 13.3352 3.53822 12.5776 2.66467C14.1114 3.06797 15.5106 3.87144 16.6321 4.9929C17.7536 6.11436 18.557 7.51357 18.9603 9.04742C18.0868 8.28978 16.9688 7.87339 15.8125 7.875H14.0937C14.0026 7.875 13.9151 7.83878 13.8507 7.77432C13.7862 7.70985 13.75 7.62242 13.75 7.53125V5.8125ZM4.46875 6.5H5.5V15.7812C5.5 16.6018 5.82595 17.3887 6.40614 17.9689C6.98633 18.5491 7.77324 18.875 8.59375 18.875H15.125V19.9062C15.125 20.855 14.355 21.625 13.4062 21.625H4.46875C4.01291 21.625 3.57574 21.4439 3.25341 21.1216C2.93108 20.7993 2.75 20.3621 2.75 19.9062V8.21875C2.75 7.26908 3.52 6.5 4.46875 6.5Z" fill="var(--fill-0, white)"/>
</g>
</svg>
