<svg preserveAspectRatio="none" width="100%" height="100%" overflow="visible" style="display: block;" viewBox="0 0 17.68 17.5" fill="none" xmlns="http://www.w3.org/2000/svg">
<g id="Icon">
<path id="Vector" d="M5.305 12.8975C5.39833 13.5392 5.655 14.1283 6.075 14.665C6.495 15.2017 7.02 15.5867 7.65 15.82C8.33833 16.0767 9.06167 16.1117 9.82 15.925C10.4733 15.7617 11.0421 15.435 11.5263 14.945C12.0104 14.455 12.3283 13.8892 12.48 13.2475C12.5267 13.0608 12.5529 12.8888 12.5588 12.7313C12.5646 12.5738 12.5733 12.1625 12.585 11.4975L12.6025 10.22C12.9292 10.185 13.18 10.1325 13.355 10.0625C13.6583 9.9575 13.9267 9.77667 14.16 9.52C14.4633 9.205 14.6558 8.83167 14.7375 8.4C14.7492 8.33 14.7608 8.16083 14.7725 7.8925V3.78C14.7608 3.52333 14.7492 3.35417 14.7375 3.2725C14.6792 2.96917 14.5567 2.6775 14.37 2.3975C14.0433 1.93083 13.5942 1.63333 13.0225 1.505L12.8475 1.47H5.1475C5.0075 1.47 4.91417 1.47583 4.8675 1.4875C4.4475 1.58083 4.08 1.77917 3.765 2.0825C3.42667 2.3975 3.21083 2.78833 3.1175 3.255C3.10583 3.325 3.09417 3.48833 3.0825 3.745V7.6125C3.0825 7.97417 3.09417 8.21917 3.1175 8.3475C3.1175 8.44083 3.135 8.54 3.17 8.645L3.1875 8.68C3.38583 9.26333 3.73583 9.68333 4.2375 9.94C4.5175 10.08 4.85583 10.1733 5.2525 10.22L5.2875 12.005C5.2875 12.5183 5.29333 12.8158 5.305 12.8975ZM11.0625 12.845C10.9342 13.405 10.66 13.8425 10.24 14.1575C9.855 14.4375 9.41458 14.5746 8.91875 14.5688C8.42292 14.5629 7.9825 14.42 7.5975 14.14C7.18917 13.825 6.92083 13.3933 6.7925 12.845C6.76917 12.7517 6.7575 12.6467 6.7575 12.53C6.74583 12.3433 6.74 11.9817 6.74 11.445V10.22H11.115V11.445C11.115 11.9817 11.1092 12.3433 11.0975 12.53C11.0975 12.6467 11.0858 12.7517 11.0625 12.845ZM13.3025 8.19C13.1858 8.44667 12.9992 8.63333 12.7425 8.75H8.9625C7.72583 8.75 6.47167 8.74417 5.2 8.7325H5.13C4.99 8.70917 4.8675 8.64208 4.7625 8.53125C4.6575 8.42042 4.59333 8.295 4.57 8.155C4.55833 8.12 4.5525 7.34417 4.5525 5.8275V4.165C4.5525 3.83833 4.56417 3.6225 4.5875 3.5175C4.5875 3.4475 4.605 3.3775 4.64 3.3075L4.6575 3.29C4.70417 3.19667 4.77417 3.12083 4.8675 3.0625C4.92583 3.0275 5.0075 2.98667 5.1125 2.94H12.7425C12.8708 2.99833 12.97 3.05667 13.04 3.115C13.1683 3.20833 13.25 3.33667 13.285 3.5C13.2967 3.54667 13.3025 4.34583 13.3025 5.8975V8.19ZM8.6825 7.28C8.32083 7.22167 8.02917 7.05833 7.8075 6.79C7.58583 6.52167 7.475 6.20667 7.475 5.845C7.475 5.41333 7.60917 5.06333 7.8775 4.795C8.1225 4.55 8.42583 4.41583 8.7875 4.3925C9.14917 4.36917 9.47583 4.45667 9.7675 4.655C10.0825 4.865 10.2808 5.16833 10.3625 5.565C10.4208 5.85667 10.38 6.14833 10.24 6.44C10.1 6.73167 9.89583 6.95917 9.6275 7.1225C9.33583 7.28583 9.02083 7.33833 8.6825 7.28Z" fill="var(--fill-0, #475569)"/>
</g>
</svg>
