<svg preserveAspectRatio="none" width="100%" height="100%" overflow="visible" style="display: block;" viewBox="0 0 22 24" fill="none" xmlns="http://www.w3.org/2000/svg">
<g id="SVG">
<path id="Vector" d="M16.8438 3.0625C15.895 3.0625 15.125 3.8325 15.125 4.78125V19.2188C15.125 20.1675 15.895 20.9375 16.8438 20.9375H17.5313C18.48 20.9375 19.25 20.1675 19.25 19.2188V4.78125C19.25 3.83158 18.48 3.0625 17.5313 3.0625H16.8438ZM8.9375 8.90625C8.9375 7.95658 9.7075 7.1875 10.6562 7.1875H11.3437C12.2934 7.1875 13.0625 7.9575 13.0625 8.90625V19.2188C13.0625 20.1675 12.2925 20.9375 11.3437 20.9375H10.6562C10.2004 20.9375 9.76324 20.7564 9.44091 20.4341C9.11858 20.1118 8.9375 19.6746 8.9375 19.2188V8.90625ZM2.75 13.0312C2.75 12.0816 3.52 11.3125 4.46875 11.3125H5.15625C6.10592 11.3125 6.875 12.0825 6.875 13.0312V19.2188C6.875 20.1675 6.105 20.9375 5.15625 20.9375H4.46875C4.01291 20.9375 3.57574 20.7564 3.25341 20.4341C2.93108 20.1118 2.75 19.6746 2.75 19.2188V13.0312Z" fill="var(--fill-0, white)"/>
</g>
</svg>
