<svg preserveAspectRatio="none" width="100%" height="100%" overflow="visible" style="display: block;" viewBox="0 0 17.68 17.5" fill="none" xmlns="http://www.w3.org/2000/svg">
<g id="Icon">
<path id="Vector" d="M8.7175 15.2775C8.8575 15.3125 8.99167 15.3125 9.12 15.2775C9.17833 15.2658 10.1962 14.7642 12.1737 13.7725C14.1512 12.7808 15.1633 12.2675 15.21 12.2325C15.3383 12.1275 15.4258 11.9933 15.4725 11.83C15.5192 11.6667 15.5017 11.5092 15.42 11.3575L15.4025 11.3225C15.3675 11.2525 15.315 11.1883 15.245 11.13C15.14 11.06 14.895 10.9258 14.51 10.7275L12.6025 9.765L9.9425 8.4525C9.51083 8.2425 9.225 8.11417 9.085 8.0675C8.99167 8.0325 8.91 8.02083 8.84 8.0325H8.805C8.75833 8.04417 8.5425 8.14333 8.1575 8.33L3.345 10.7275C2.96 10.9258 2.715 11.06 2.61 11.13C2.54 11.1883 2.4875 11.2525 2.4525 11.3225L2.435 11.3575C2.365 11.5092 2.34458 11.6608 2.37375 11.8125C2.40292 11.9642 2.48167 12.0983 2.61 12.215C2.645 12.2383 3.65417 12.7488 5.6375 13.7463C7.62083 14.7438 8.6475 15.2542 8.7175 15.2775ZM8.9275 13.755C8.91583 13.755 7.57417 13.0783 4.9025 11.725L4.745 11.655L8.9275 9.5725L13.11 11.655C13.1217 11.6667 12.4333 12.0196 11.045 12.7138C9.65667 13.4079 8.95083 13.755 8.9275 13.755ZM2.61 8.19C2.42333 8.34167 2.34167 8.53708 2.365 8.77625C2.38833 9.01542 2.49333 9.20792 2.68 9.35375C2.86667 9.49958 3.0825 9.53167 3.3275 9.45L3.3625 9.4325C4.3075 8.96583 5.24083 8.49917 6.1625 8.0325L8.9275 6.65L11.71 8.0325C12.6083 8.4875 13.5417 8.94833 14.51 9.415L14.5625 9.45C14.7492 9.50833 14.9417 9.47917 15.14 9.3625C15.3383 9.24583 15.455 9.0825 15.49 8.8725C15.5367 8.63917 15.4492 8.41167 15.2275 8.19C15.2042 8.16667 14.1775 7.6475 12.1475 6.6325L9.1375 5.11H8.7175L5.7075 6.6325C3.6775 7.6475 2.645 8.16667 2.61 8.19ZM2.925 6.545C2.77333 6.52167 2.63917 6.43708 2.5225 6.29125C2.40583 6.14542 2.35042 5.97917 2.35625 5.7925C2.36208 5.60583 2.44667 5.43667 2.61 5.285C2.645 5.25 3.65708 4.73667 5.64625 3.745C7.63542 2.75333 8.665 2.24583 8.735 2.2225C8.86333 2.1875 8.99167 2.1875 9.12 2.2225C9.155 2.23417 9.47 2.38583 10.065 2.6775C10.7533 3.01583 11.465 3.36583 12.2 3.7275L14.3525 4.8125C14.7842 5.03417 15.0642 5.18583 15.1925 5.2675C15.2742 5.31417 15.3325 5.36667 15.3675 5.425L15.385 5.46C15.49 5.64667 15.5162 5.83333 15.4637 6.02C15.4112 6.20667 15.3033 6.3525 15.14 6.4575C14.9767 6.5625 14.7958 6.59167 14.5975 6.545C14.5275 6.52167 13.5708 6.04917 11.7275 5.1275L8.9275 3.745L6.1275 5.1275C5.24083 5.57083 4.3075 6.03167 3.3275 6.51L3.2575 6.545C3.1525 6.56833 3.04167 6.56833 2.925 6.545Z" fill="var(--fill-0, #475569)"/>
</g>
</svg>
