<svg preserveAspectRatio="none" width="100%" height="100%" overflow="visible" style="display: block;" viewBox="0 0 140 131.975" fill="none" xmlns="http://www.w3.org/2000/svg">
<g id="attachment_placeholder.svg" clip-path="url(#clip0_257_467)">
<g id="Group" filter="url(#filter0_d_257_467)">
<path id="Vector" d="M100.853 96.1755H116.476C118.438 96.1755 120.12 94.4946 120.12 92.5329V19.6826C120.12 17.7211 118.438 16.04 116.476 16.04H101.338" fill="url(#paint0_linear_257_467)"/>
</g>
<g id="Group_2" filter="url(#filter1_d_257_467)">
<path id="Vector_2" d="M38.822 96.1755H23.6837C21.7213 96.1755 20.0394 94.4946 20.0394 92.5329V19.6826C20.0394 17.7211 21.7213 16.04 23.6837 16.04H38.5102" fill="url(#paint1_linear_257_467)"/>
</g>
<path id="Vector_3" d="M30.571 30.6101H38.1401" stroke="var(--stroke-0, #D6DCE8)" stroke-width="1.78344" stroke-miterlimit="10" stroke-linecap="round"/>
<path id="Vector_4" d="M30.571 40.4168H38.1401" stroke="var(--stroke-0, #D6DCE8)" stroke-width="1.78344" stroke-miterlimit="10" stroke-linecap="round"/>
<path id="Vector_5" d="M30.571 50.5039H38.1401" stroke="var(--stroke-0, #D6DCE8)" stroke-width="1.78344" stroke-miterlimit="10" stroke-linecap="round"/>
<path id="Vector_6" d="M30.571 60.591H38.1401" stroke="var(--stroke-0, #D6DCE8)" stroke-width="1.78344" stroke-miterlimit="10" stroke-linecap="round"/>
<path id="Vector_7" d="M30.571 80.2045H38.1401" stroke="var(--stroke-0, #D6DCE8)" stroke-width="1.78344" stroke-miterlimit="10" stroke-linecap="round"/>
<path id="Vector_8" d="M108.626 30.6101H101.338" stroke="var(--stroke-0, #D6DCE8)" stroke-width="1.78344" stroke-miterlimit="10"/>
<path id="Vector_9" d="M108.626 40.4168H101.338" stroke="var(--stroke-0, #D6DCE8)" stroke-width="1.78344" stroke-miterlimit="10" stroke-linecap="round"/>
<path id="Vector_10" d="M108.626 50.5039H101.338" stroke="var(--stroke-0, #D6DCE8)" stroke-width="1.78344" stroke-miterlimit="10" stroke-linecap="round"/>
<path id="Vector_11" d="M108.626 60.591H101.338" stroke="var(--stroke-0, #D6DCE8)" stroke-width="1.78344" stroke-miterlimit="10" stroke-linecap="round"/>
<path id="Vector_12" d="M108.626 80.2045H101.338" stroke="var(--stroke-0, #D6DCE8)" stroke-width="1.78344" stroke-miterlimit="10" stroke-linecap="round"/>
<g id="Group_3" filter="url(#filter2_d_257_467)">
<path id="Vector_13" d="M97.6933 102.34H42.186C40.2237 102.34 38.5416 100.658 38.5416 98.6973V14.0787C38.5416 12.1174 40.2237 10.4362 42.186 10.4362H97.6933C99.655 10.4362 101.338 12.1174 101.338 14.0787V98.6973C101.338 100.658 99.655 102.34 97.6933 102.34Z" fill="url(#paint2_linear_257_467)"/>
</g>
<path id="Vector_14" d="M90.9643 37.8506H52.278C51.4371 37.8506 50.8764 37.3428 50.8764 36.5811V33.2805C50.8764 32.5188 51.4371 32.011 52.278 32.011H90.9643C91.8061 32.011 92.3661 32.5188 92.3661 33.2805V36.5811C92.3661 37.0889 91.8061 37.8506 90.9643 37.8506Z" fill="var(--fill-0, #D5DDEA)"/>
<path id="Vector_15" d="M90.9643 52.9812H52.278C51.4371 52.9812 50.8764 52.4733 50.8764 51.7116V48.4109C50.8764 47.6492 51.4371 47.1415 52.278 47.1415H90.9643C91.8061 47.1415 92.3661 47.6492 92.3661 48.4109V51.7116C92.3661 52.4733 91.8061 52.9812 90.9643 52.9812Z" fill="var(--fill-0, #D5DDEA)"/>
<path id="Vector_16" d="M90.9643 68.3917H52.278C51.4371 68.3917 50.8764 67.8839 50.8764 67.1222V63.8215C50.8764 63.0598 51.4371 62.552 52.278 62.552H90.9643C91.8061 62.552 92.3661 63.0598 92.3661 63.8215V67.1222C92.3661 67.8839 91.8061 68.3917 90.9643 68.3917Z" fill="var(--fill-0, #D5DDEA)"/>
<path id="Vector_17" d="M90.9652 84.0826H75.5466C74.7056 84.0826 74.1449 83.5747 74.1449 82.813V79.5123C74.1449 78.7506 74.7056 78.2429 75.5466 78.2429H90.9652C91.8061 78.2429 92.367 78.7506 92.367 79.5123V82.813C92.367 83.5747 91.8061 84.0826 90.9652 84.0826Z" fill="var(--fill-0, #D5DDEA)"/>
<path id="Vector_18" d="M86.9849 111.972C86.6349 113.46 86.1099 115.035 85.4974 116.347C83.8349 119.585 81.2098 122.123 77.9722 123.785C74.6471 125.448 70.7095 126.148 66.7719 125.272C57.4966 123.348 51.5465 114.247 53.4715 104.972C55.3966 95.6967 64.4093 89.6589 73.6846 91.6715C77.0096 92.3715 79.8973 94.0345 82.3473 96.3093C86.4599 100.422 88.21 106.372 86.9849 111.972Z" fill="url(#paint3_linear_257_467)"/>
<path id="Vector_19" d="M75.6972 106.985H71.7595V103.047C71.7595 102.26 71.1471 101.56 70.2721 101.56C69.4845 101.56 68.7845 102.172 68.7845 103.047V106.985H64.8469C64.0594 106.985 63.3594 107.598 63.3594 108.472C63.3594 109.347 63.9719 109.96 64.8469 109.96H68.7845V113.898C68.7845 114.685 69.397 115.385 70.2721 115.385C71.0595 115.385 71.7595 114.772 71.7595 113.898V109.96H75.6972C76.4847 109.96 77.1848 109.347 77.1848 108.472C77.1848 107.598 76.4847 106.985 75.6972 106.985Z" fill="var(--fill-0, white)"/>
</g>
<defs>
<filter id="filter0_d_257_467" x="81.2348" y="6.23107" width="58.5031" height="119.371" filterUnits="userSpaceOnUse" color-interpolation-filters="sRGB">
<feFlood flood-opacity="0" result="BackgroundImageFix"/>
<feColorMatrix in="SourceAlpha" type="matrix" values="0 0 0 0 0 0 0 0 0 0 0 0 0 0 0 0 0 0 127 0" result="hardAlpha"/>
<feOffset dy="9.80892"/>
<feGaussianBlur stdDeviation="9.80892"/>
<feColorMatrix type="matrix" values="0 0 0 0 0.397708 0 0 0 0 0.47749 0 0 0 0 0.575 0 0 0 0.27 0"/>
<feBlend mode="normal" in2="BackgroundImageFix" result="effect1_dropShadow_257_467"/>
<feBlend mode="normal" in="SourceGraphic" in2="effect1_dropShadow_257_467" result="shape"/>
</filter>
<filter id="filter1_d_257_467" x="0.421516" y="6.23107" width="58.0183" height="119.371" filterUnits="userSpaceOnUse" color-interpolation-filters="sRGB">
<feFlood flood-opacity="0" result="BackgroundImageFix"/>
<feColorMatrix in="SourceAlpha" type="matrix" values="0 0 0 0 0 0 0 0 0 0 0 0 0 0 0 0 0 0 127 0" result="hardAlpha"/>
<feOffset dy="9.80892"/>
<feGaussianBlur stdDeviation="9.80892"/>
<feColorMatrix type="matrix" values="0 0 0 0 0.397708 0 0 0 0 0.47749 0 0 0 0 0.575 0 0 0 0.27 0"/>
<feBlend mode="normal" in2="BackgroundImageFix" result="effect1_dropShadow_257_467"/>
<feBlend mode="normal" in="SourceGraphic" in2="effect1_dropShadow_257_467" result="shape"/>
</filter>
<filter id="filter2_d_257_467" x="18.9238" y="0.627325" width="102.032" height="131.139" filterUnits="userSpaceOnUse" color-interpolation-filters="sRGB">
<feFlood flood-opacity="0" result="BackgroundImageFix"/>
<feColorMatrix in="SourceAlpha" type="matrix" values="0 0 0 0 0 0 0 0 0 0 0 0 0 0 0 0 0 0 127 0" result="hardAlpha"/>
<feOffset dy="9.80892"/>
<feGaussianBlur stdDeviation="9.80892"/>
<feColorMatrix type="matrix" values="0 0 0 0 0.397708 0 0 0 0 0.47749 0 0 0 0 0.575 0 0 0 0.27 0"/>
<feBlend mode="normal" in2="BackgroundImageFix" result="effect1_dropShadow_257_467"/>
<feBlend mode="normal" in="SourceGraphic" in2="effect1_dropShadow_257_467" result="shape"/>
</filter>
<linearGradient id="paint0_linear_257_467" x1="110.48" y1="14.1864" x2="110.48" y2="97.0396" gradientUnits="userSpaceOnUse">
<stop stop-color="#FDFEFF"/>
<stop offset="0.9964" stop-color="#ECF0F5"/>
</linearGradient>
<linearGradient id="paint1_linear_257_467" x1="29.4245" y1="14.1864" x2="29.4245" y2="97.0396" gradientUnits="userSpaceOnUse">
<stop stop-color="#FDFEFF"/>
<stop offset="0.9964" stop-color="#ECF0F5"/>
</linearGradient>
<linearGradient id="paint2_linear_257_467" x1="69.919" y1="8.31042" x2="69.919" y2="103.331" gradientUnits="userSpaceOnUse">
<stop stop-color="#FDFEFF"/>
<stop offset="0.9964" stop-color="#ECF0F5"/>
</linearGradient>
<linearGradient id="paint3_linear_257_467" x1="53.0941" y1="108.471" x2="87.3751" y2="108.471" gradientUnits="userSpaceOnUse">
<stop stop-color="#B0BACC"/>
<stop offset="1" stop-color="#969EAE"/>
</linearGradient>
<clipPath id="clip0_257_467">
<rect width="140" height="131.975" fill="white"/>
</clipPath>
</defs>
</svg>
