<svg preserveAspectRatio="none" width="100%" height="100%" overflow="visible" style="display: block;" viewBox="0 0 22 24" fill="none" xmlns="http://www.w3.org/2000/svg">
<g id="SVG">
<path id="Vector" fill-rule="evenodd" clip-rule="evenodd" d="M2.0625 13.375C2.0625 11.3693 2.85926 9.44575 4.2775 8.0275C5.69575 6.60926 7.6193 5.8125 9.625 5.8125C9.80734 5.8125 9.9822 5.88493 10.1111 6.01386C10.2401 6.1428 10.3125 6.31766 10.3125 6.5V12.6875H16.5C16.6823 12.6875 16.8572 12.7599 16.9861 12.8889C17.1151 13.0178 17.1875 13.1927 17.1875 13.375C17.1875 15.3807 16.3907 17.3043 14.9725 18.7225C13.5543 20.1407 11.6307 20.9375 9.625 20.9375C7.6193 20.9375 5.69575 20.1407 4.2775 18.7225C2.85926 17.3043 2.0625 15.3807 2.0625 13.375Z" fill="var(--fill-0, white)"/>
<path id="Vector_2" fill-rule="evenodd" clip-rule="evenodd" d="M11.6875 3.75C11.6875 3.56766 11.7599 3.3928 11.8889 3.26386C12.0178 3.13493 12.1927 3.0625 12.375 3.0625C14.3807 3.0625 16.3043 3.85926 17.7225 5.2775C19.1407 6.69575 19.9375 8.6193 19.9375 10.625C19.9375 10.8073 19.8651 10.9822 19.7361 11.1111C19.6072 11.2401 19.4323 11.3125 19.25 11.3125H12.375C12.1927 11.3125 12.0178 11.2401 11.8889 11.1111C11.7599 10.9822 11.6875 10.8073 11.6875 10.625V3.75Z" fill="var(--fill-0, white)"/>
</g>
</svg>
