<svg preserveAspectRatio="none" width="100%" height="100%" overflow="visible" style="display: block;" viewBox="0 0 24 24" fill="none" xmlns="http://www.w3.org/2000/svg">
<g id="SVG">
<g id="Vector">
</g>
<path id="Vector_2" d="M12 8V12L14 14" stroke="var(--stroke-0, #64748B)" stroke-width="2" stroke-linecap="round" stroke-linejoin="round"/>
<path id="Vector_3" d="M3.05 11C3.27409 8.80006 4.30026 6.75961 5.93273 5.26797C7.5652 3.77632 9.68969 2.93788 11.9009 2.91263C14.1121 2.88737 16.2552 3.67706 17.9213 5.13103C19.5874 6.585 20.6599 8.60148 20.9342 10.7957C21.2085 12.99 20.6653 15.2084 19.4084 17.0278C18.1514 18.8471 16.2686 20.14 14.1193 20.6599C11.9699 21.1797 9.70441 20.89 7.755 19.8461C5.80558 18.8022 4.30872 17.0771 3.55 15M3.05 20V15H8.05" stroke="var(--stroke-0, #64748B)" stroke-width="2" stroke-linecap="round" stroke-linejoin="round"/>
</g>
</svg>
