<svg preserveAspectRatio="none" width="100%" height="100%" overflow="visible" style="display: block;" viewBox="0 0 17.5 17.5" fill="none" xmlns="http://www.w3.org/2000/svg">
<g id="SVG">
<path id="Vector" fill-rule="evenodd" clip-rule="evenodd" d="M7 3.5C6.07174 3.5 5.1815 3.86875 4.52513 4.52513C3.86875 5.1815 3.5 6.07174 3.5 7C3.5 7.92826 3.86875 8.8185 4.52513 9.47487C5.1815 10.1313 6.07174 10.5 7 10.5C7.92826 10.5 8.8185 10.1313 9.47487 9.47487C10.1313 8.8185 10.5 7.92826 10.5 7C10.5 6.07174 10.1313 5.1815 9.47487 4.52513C8.8185 3.86875 7.92826 3.5 7 3.5ZM1.75 7C1.74989 6.17374 1.94481 5.35912 2.3189 4.6224C2.69299 3.88567 3.23568 3.24765 3.90285 2.76021C4.57001 2.27277 5.3428 1.94969 6.15838 1.81723C6.97395 1.68477 7.80927 1.74668 8.59641 1.99793C9.38354 2.24918 10.1003 2.68266 10.6883 3.26313C11.2763 3.8436 11.719 4.55467 11.9804 5.33849C12.2418 6.12232 12.3145 6.95677 12.1925 7.77398C12.0706 8.5912 11.7575 9.3681 11.2787 10.0415L15.4936 14.2564C15.653 14.4214 15.7412 14.6424 15.7392 14.8719C15.7372 15.1013 15.6452 15.3207 15.483 15.483C15.3207 15.6452 15.1013 15.7372 14.8718 15.7392C14.6424 15.7412 14.4214 15.653 14.2564 15.4936L10.0424 11.2796C9.25694 11.8381 8.33293 12.1696 7.37159 12.2379C6.41025 12.3061 5.44869 12.1083 4.59226 11.6664C3.73584 11.2244 3.0176 10.5551 2.51626 9.73206C2.01492 8.90897 1.74981 7.96376 1.75 7Z" fill="var(--fill-0, #94A3B8)"/>
</g>
</svg>
