<svg preserveAspectRatio="none" width="100%" height="100%" overflow="visible" style="display: block;" viewBox="0 0 24 21" fill="none" xmlns="http://www.w3.org/2000/svg">
<g id="SVG">
<path id="Vector" d="M14.7755 6.125L9.01275 11.8878C8.84561 12.0492 8.71229 12.2423 8.62057 12.4558C8.52886 12.6693 8.48058 12.8989 8.47856 13.1313C8.47654 13.3637 8.52082 13.5941 8.60881 13.8092C8.6968 14.0242 8.82675 14.2196 8.99106 14.3839C9.15537 14.5483 9.35076 14.6782 9.56583 14.7662C9.7809 14.8542 10.0113 14.8985 10.2437 14.8964C10.4761 14.8944 10.7057 14.8461 10.9192 14.7544C11.1327 14.6627 11.3258 14.5294 11.4872 14.3622L17.0995 8.5995C17.7371 7.93939 18.0898 7.05528 18.0819 6.1376C18.0739 5.21991 17.7058 4.34206 17.0569 3.69313C16.4079 3.04421 15.5301 2.67612 14.6124 2.66814C13.6947 2.66017 12.8106 3.01295 12.1505 3.6505L6.53738 9.41238C5.55273 10.397 4.99956 11.7325 4.99956 13.125C4.99956 14.5175 5.55273 15.853 6.53738 16.8376C7.52202 17.8223 8.8575 18.3754 10.25 18.3754C11.6425 18.3754 12.978 17.8223 13.9626 16.8376L19.4375 11.375" stroke="var(--stroke-0, #64748B)" stroke-width="1.3125" stroke-linecap="round" stroke-linejoin="round"/>
</g>
</svg>
