<svg preserveAspectRatio="none" width="100%" height="100%" overflow="visible" style="display: block;" viewBox="0 0 24 24" fill="none" xmlns="http://www.w3.org/2000/svg">
<g id="SVG">
<g id="Vector">
</g>
<path id="Vector_2" d="M9 4H5C4.44772 4 4 4.44772 4 5V9C4 9.55228 4.44772 10 5 10H9C9.55228 10 10 9.55228 10 9V5C10 4.44772 9.55228 4 9 4Z" stroke="var(--stroke-0, #E44A19)" stroke-width="2" stroke-linecap="round" stroke-linejoin="round"/>
<path id="Vector_3" d="M7 17V17.01" stroke="var(--stroke-0, #E44A19)" stroke-width="2" stroke-linecap="round" stroke-linejoin="round"/>
<path id="Vector_4" d="M19 4H15C14.4477 4 14 4.44772 14 5V9C14 9.55228 14.4477 10 15 10H19C19.5523 10 20 9.55228 20 9V5C20 4.44772 19.5523 4 19 4Z" stroke="var(--stroke-0, #E44A19)" stroke-width="2" stroke-linecap="round" stroke-linejoin="round"/>
<path id="Vector_5" d="M7 7V7.01" stroke="var(--stroke-0, #E44A19)" stroke-width="2" stroke-linecap="round" stroke-linejoin="round"/>
<path id="Vector_6" d="M9 14H5C4.44772 14 4 14.4477 4 15V19C4 19.5523 4.44772 20 5 20H9C9.55228 20 10 19.5523 10 19V15C10 14.4477 9.55228 14 9 14Z" stroke="var(--stroke-0, #E44A19)" stroke-width="2" stroke-linecap="round" stroke-linejoin="round"/>
<path id="Vector_7" d="M17 7V7.01" stroke="var(--stroke-0, #E44A19)" stroke-width="2" stroke-linecap="round" stroke-linejoin="round"/>
<path id="Vector_8" d="M14 14H17" stroke="var(--stroke-0, #E44A19)" stroke-width="2" stroke-linecap="round" stroke-linejoin="round"/>
<path id="Vector_9" d="M20 14V14.01" stroke="var(--stroke-0, #E44A19)" stroke-width="2" stroke-linecap="round" stroke-linejoin="round"/>
<path id="Vector_10" d="M14 14V17" stroke="var(--stroke-0, #E44A19)" stroke-width="2" stroke-linecap="round" stroke-linejoin="round"/>
<path id="Vector_11" d="M14 20H17" stroke="var(--stroke-0, #E44A19)" stroke-width="2" stroke-linecap="round" stroke-linejoin="round"/>
<path id="Vector_12" d="M17 17H20" stroke="var(--stroke-0, #E44A19)" stroke-width="2" stroke-linecap="round" stroke-linejoin="round"/>
<path id="Vector_13" d="M20 17V20" stroke="var(--stroke-0, #E44A19)" stroke-width="2" stroke-linecap="round" stroke-linejoin="round"/>
</g>
</svg>
