<svg preserveAspectRatio="none" width="100%" height="100%" overflow="visible" style="display: block;" viewBox="0 0 22 24" fill="none" xmlns="http://www.w3.org/2000/svg">
<g id="SVG">
<path id="Vector" fill-rule="evenodd" clip-rule="evenodd" d="M6.875 5.8125C6.875 5.08315 7.16473 4.38368 7.68046 3.86796C8.19618 3.35223 8.89565 3.0625 9.625 3.0625H12.375C13.1043 3.0625 13.8038 3.35223 14.3195 3.86796C14.8353 4.38368 15.125 5.08315 15.125 5.8125V6.00042C15.9803 6.07833 16.8273 6.181 17.6678 6.30658C19.0007 6.50642 19.9375 7.666 19.9375 8.9805V11.7608C19.9375 12.8708 19.2647 13.9168 18.1628 14.2834C15.8527 15.0502 13.4341 15.4399 11 15.4375C8.4975 15.4375 6.08942 15.0323 3.83717 14.2834C2.73533 13.9168 2.0625 12.8708 2.0625 11.7608V8.9805C2.0625 7.666 2.99933 6.5055 4.33217 6.30658C5.17668 6.18029 6.02464 6.07819 6.875 6.00042V5.8125ZM13.75 5.8125V5.895C11.9184 5.78376 10.0816 5.78376 8.25 5.895V5.8125C8.25 5.44783 8.39487 5.09809 8.65273 4.84023C8.91059 4.58237 9.26033 4.4375 9.625 4.4375H12.375C12.7397 4.4375 13.0894 4.58237 13.3473 4.84023C13.6051 5.09809 13.75 5.44783 13.75 5.8125ZM11 13.375C11.1823 13.375 11.3572 13.3026 11.4861 13.1736C11.6151 13.0447 11.6875 12.8698 11.6875 12.6875C11.6875 12.5052 11.6151 12.3303 11.4861 12.2014C11.3572 12.0724 11.1823 12 11 12C10.8177 12 10.6428 12.0724 10.5139 12.2014C10.3849 12.3303 10.3125 12.5052 10.3125 12.6875C10.3125 12.8698 10.3849 13.0447 10.5139 13.1736C10.6428 13.3026 10.8177 13.375 11 13.375Z" fill="var(--fill-0, white)"/>
<path id="Vector_2" d="M2.75 17.8667V15.3037C2.95883 15.4179 3.17759 15.513 3.40358 15.5878C5.85355 16.4013 8.41853 16.8148 11 16.8125C13.651 16.8125 16.2067 16.3835 18.5964 15.5888C18.8274 15.5118 19.0456 15.4155 19.25 15.3037V17.8667C19.25 19.1977 18.2902 20.3673 16.9372 20.5461C14.9939 20.8046 13.0121 20.9375 11 20.9375C9.01446 20.9379 7.03106 20.8071 5.06275 20.5461C3.70975 20.3673 2.75 19.1977 2.75 17.8667Z" fill="var(--fill-0, white)"/>
</g>
</svg>
