<svg preserveAspectRatio="none" width="100%" height="100%" overflow="visible" style="display: block;" viewBox="0 0 21 21" fill="none" xmlns="http://www.w3.org/2000/svg">
<g id="SVG">
<path id="Vector" fill-rule="evenodd" clip-rule="evenodd" d="M6.56425 5.25H12.8013C13.5837 5.25116 14.3337 5.5628 14.8866 6.1165C15.4395 6.67019 15.75 7.42066 15.75 8.20312V16.4062C16.4462 16.4062 17.1139 16.1297 17.6062 15.6374C18.0984 15.1451 18.375 14.4774 18.375 13.7812V5.3445C18.375 4.02762 17.3906 2.88487 16.044 2.772C15.8478 2.75606 15.6515 2.74148 15.4551 2.72825C15.2336 2.3015 14.8992 1.94378 14.4883 1.69412C14.0774 1.44446 13.6058 1.31246 13.125 1.3125H11.8125C11.3317 1.31246 10.8601 1.44446 10.4492 1.69412C10.0383 1.94378 9.70387 2.3015 9.48238 2.72825C9.2855 2.74138 9.08862 2.75625 8.8935 2.772C7.57925 2.88312 6.60975 3.97425 6.56425 5.25ZM11.8125 2.625C11.4644 2.625 11.1306 2.76328 10.8844 3.00942C10.6383 3.25556 10.5 3.5894 10.5 3.9375H14.4375C14.4375 3.5894 14.2992 3.25556 14.0531 3.00942C13.8069 2.76328 13.4731 2.625 13.125 2.625H11.8125Z" fill="var(--fill-0, white)"/>
<path id="Vector_2" fill-rule="evenodd" clip-rule="evenodd" d="M2.625 8.20312C2.625 7.29662 3.36 6.5625 4.26562 6.5625H12.7969C13.7034 6.5625 14.4375 7.2975 14.4375 8.20312V18.0469C14.4375 18.9525 13.7025 19.6875 12.7969 19.6875H4.26562C3.8305 19.6875 3.4132 19.5146 3.10553 19.207C2.79785 18.8993 2.625 18.482 2.625 18.0469V8.20312ZM11.0128 12.2229C11.1216 12.0869 11.1719 11.9132 11.1527 11.7401C11.1335 11.567 11.0464 11.4086 10.9104 11.2997C10.7744 11.1909 10.6007 11.1406 10.4276 11.1598C10.2545 11.179 10.0961 11.2661 9.98725 11.4021L7.82075 14.1111L7.02625 13.3175C6.90185 13.2016 6.73731 13.1385 6.56729 13.1415C6.39728 13.1445 6.23507 13.2133 6.11483 13.3336C5.99459 13.4538 5.92572 13.616 5.92272 13.786C5.91972 13.9561 5.98283 14.1206 6.09875 14.245L7.41125 15.5575C7.47652 15.6228 7.55483 15.6735 7.64105 15.7064C7.72727 15.7394 7.81947 15.7538 7.91163 15.7486C8.00378 15.7435 8.09382 15.719 8.17586 15.6767C8.25791 15.6344 8.33011 15.5753 8.38775 15.5033L11.0128 12.2229Z" fill="var(--fill-0, white)"/>
</g>
</svg>
