<svg preserveAspectRatio="none" width="100%" height="100%" overflow="visible" style="display: block;" viewBox="0 0 22 24" fill="none" xmlns="http://www.w3.org/2000/svg">
<g id="SVG">
<path id="Vector" fill-rule="evenodd" clip-rule="evenodd" d="M11 3.0625C6.06375 3.0625 2.0625 7.06375 2.0625 12C2.0625 16.9363 6.06375 20.9375 11 20.9375C15.9363 20.9375 19.9375 16.9363 19.9375 12C19.9375 7.06375 15.9363 3.0625 11 3.0625ZM11.6875 6.5C11.6875 6.31766 11.6151 6.1428 11.4861 6.01386C11.3572 5.88493 11.1823 5.8125 11 5.8125C10.8177 5.8125 10.6428 5.88493 10.5139 6.01386C10.3849 6.1428 10.3125 6.31766 10.3125 6.5V12C10.3125 12.3795 10.6205 12.6875 11 12.6875H15.125C15.3073 12.6875 15.4822 12.6151 15.6111 12.4861C15.7401 12.3572 15.8125 12.1823 15.8125 12C15.8125 11.8177 15.7401 11.6428 15.6111 11.5139C15.4822 11.3849 15.3073 11.3125 15.125 11.3125H11.6875V6.5Z" fill="var(--fill-0, white)"/>
</g>
</svg>
