<svg preserveAspectRatio="none" width="100%" height="100%" overflow="visible" style="display: block;" viewBox="0 0 12.72 12.9898" fill="none" xmlns="http://www.w3.org/2000/svg">
<g id="Icon">
<path id="Vector" d="M3.14852 8.58551C3.01418 8.55192 2.90923 8.47636 2.83366 8.35881C2.7581 8.24127 2.73291 8.11533 2.7581 7.98099V7.95581C2.77489 7.89703 2.80428 7.83826 2.84626 7.77949C2.90503 7.70392 3.05196 7.5444 3.28705 7.30091L5.65473 4.93323C5.89822 4.69814 6.05774 4.55121 6.13331 4.49244C6.19208 4.45046 6.25085 4.42107 6.30962 4.40428H6.33481C6.39358 4.39588 6.45236 4.39588 6.51113 4.40428H6.53632C6.58669 4.41268 6.63287 4.43367 6.67485 4.46725C6.72523 4.50083 6.82598 4.59319 6.97711 4.74432L7.72016 5.47478L9.67224 7.42685C9.85695 7.61157 9.9703 7.73751 10.0123 7.80468C10.0459 7.85505 10.071 7.90543 10.0878 7.95581V7.98099C10.1046 8.09014 10.0857 8.19509 10.0312 8.29584C9.97659 8.3966 9.89893 8.47426 9.79818 8.52883C9.69743 8.58341 9.59248 8.6023 9.48333 8.58551H9.45814C9.39937 8.56872 9.34479 8.54353 9.29442 8.50994C9.21885 8.45117 9.07612 8.32103 8.86622 8.11953L6.42297 5.67628L3.96713 8.11953C3.75723 8.32103 3.61869 8.45117 3.55152 8.50994C3.50115 8.54353 3.44657 8.56872 3.3878 8.58551H3.35002C3.25766 8.6023 3.1905 8.6023 3.14852 8.58551Z" fill="var(--fill-0, #334155)"/>
</g>
</svg>
