<svg preserveAspectRatio="none" width="100%" height="100%" overflow="visible" style="display: block;" viewBox="0 0 22 24" fill="none" xmlns="http://www.w3.org/2000/svg">
<g id="SVG">
<g id="Vector">
</g>
<path id="Vector_2" d="M4.58333 17.5C4.58333 17.9862 4.77649 18.4525 5.1203 18.7964C5.46412 19.1402 5.93044 19.3333 6.41667 19.3333C6.9029 19.3333 7.36921 19.1402 7.71303 18.7964C8.05685 18.4525 8.25 17.9862 8.25 17.5C8.25 17.0138 8.05685 16.5475 7.71303 16.2036C7.36921 15.8598 6.9029 15.6667 6.41667 15.6667C5.93044 15.6667 5.46412 15.8598 5.1203 16.2036C4.77649 16.5475 4.58333 17.0138 4.58333 17.5Z" stroke="var(--stroke-0, white)" stroke-width="1.83333" stroke-linecap="round" stroke-linejoin="round"/>
<path id="Vector_3" d="M4.58333 6.5C4.58333 6.98623 4.77649 7.45255 5.1203 7.79636C5.46412 8.14018 5.93044 8.33333 6.41667 8.33333C6.9029 8.33333 7.36921 8.14018 7.71303 7.79636C8.05685 7.45255 8.25 6.98623 8.25 6.5C8.25 6.01377 8.05685 5.54745 7.71303 5.20364C7.36921 4.85982 6.9029 4.66667 6.41667 4.66667C5.93044 4.66667 5.46412 4.85982 5.1203 5.20364C4.77649 5.54745 4.58333 6.01377 4.58333 6.5Z" stroke="var(--stroke-0, white)" stroke-width="1.83333" stroke-linecap="round" stroke-linejoin="round"/>
<path id="Vector_4" d="M13.75 6.5C13.75 6.98623 13.9432 7.45255 14.287 7.79636C14.6308 8.14018 15.0971 8.33333 15.5833 8.33333C16.0696 8.33333 16.5359 8.14018 16.8797 7.79636C17.2235 7.45255 17.4167 6.98623 17.4167 6.5C17.4167 6.01377 17.2235 5.54745 16.8797 5.20364C16.5359 4.85982 16.0696 4.66667 15.5833 4.66667C15.0971 4.66667 14.6308 4.85982 14.287 5.20364C13.9432 5.54745 13.75 6.01377 13.75 6.5Z" stroke="var(--stroke-0, white)" stroke-width="1.83333" stroke-linecap="round" stroke-linejoin="round"/>
<path id="Vector_5" d="M6.41667 8.33333V15.6667" stroke="var(--stroke-0, white)" stroke-width="1.83333" stroke-linecap="round" stroke-linejoin="round"/>
<path id="Vector_6" d="M8.25 17.5H13.75C14.2362 17.5 14.7025 17.3068 15.0464 16.963C15.3902 16.6192 15.5833 16.1529 15.5833 15.6667V11.0833" stroke="var(--stroke-0, white)" stroke-width="1.83333" stroke-linecap="round" stroke-linejoin="round"/>
<path id="Vector_7" d="M12.8333 13.8333L15.5833 11.0833L18.3333 13.8333" stroke="var(--stroke-0, white)" stroke-width="1.83333" stroke-linecap="round" stroke-linejoin="round"/>
</g>
</svg>
