<svg preserveAspectRatio="none" width="100%" height="100%" overflow="visible" style="display: block;" viewBox="0 0 22 24" fill="none" xmlns="http://www.w3.org/2000/svg">
<g id="SVG">
<path id="Vector" d="M3.3 2.1C3.00826 2.1 2.72847 2.21589 2.52218 2.42218C2.31589 2.62847 2.2 2.90826 2.2 3.2C2.2 3.49174 2.31589 3.77153 2.52218 3.97782C2.72847 4.18411 3.00826 4.3 3.3 4.3H4.642L4.9775 5.6442C4.98083 5.65968 4.9845 5.67508 4.9885 5.6904L6.4823 11.6634L5.5 12.6446C4.114 14.0306 5.0952 16.4 7.0554 16.4H16.5C16.7917 16.4 17.0715 16.2841 17.2778 16.0778C17.4841 15.8715 17.6 15.5917 17.6 15.3C17.6 15.0083 17.4841 14.7285 17.2778 14.5222C17.0715 14.3159 16.7917 14.2 16.5 14.2H7.0554L8.1554 13.1H15.4C15.6042 13.0999 15.8044 13.0429 15.9781 12.9355C16.1518 12.8281 16.2921 12.6744 16.3834 12.4917L19.6834 5.8917C19.7672 5.72404 19.8067 5.53775 19.7983 5.35051C19.7899 5.16327 19.7337 4.98129 19.6352 4.82183C19.5367 4.66238 19.3991 4.53075 19.2354 4.43942C19.0717 4.34809 18.8874 4.3001 18.7 4.3H6.908L6.567 2.9327C6.50741 2.69483 6.37005 2.48369 6.17673 2.33282C5.98341 2.18195 5.74522 2.10001 5.5 2.1H3.3ZM17.6 19.15C17.6 19.5876 17.4262 20.0073 17.1167 20.3167C16.8073 20.6262 16.3876 20.8 15.95 20.8C15.5124 20.8 15.0927 20.6262 14.7833 20.3167C14.4738 20.0073 14.3 19.5876 14.3 19.15C14.3 18.7124 14.4738 18.2927 14.7833 17.9833C15.0927 17.6738 15.5124 17.5 15.95 17.5C16.3876 17.5 16.8073 17.6738 17.1167 17.9833C17.4262 18.2927 17.6 18.7124 17.6 19.15ZM7.15 20.8C7.58761 20.8 8.00729 20.6262 8.31673 20.3167C8.62616 20.0073 8.8 19.5876 8.8 19.15C8.8 18.7124 8.62616 18.2927 8.31673 17.9833C8.00729 17.6738 7.58761 17.5 7.15 17.5C6.71239 17.5 6.29271 17.6738 5.98327 17.9833C5.67384 18.2927 5.5 18.7124 5.5 19.15C5.5 19.5876 5.67384 20.0073 5.98327 20.3167C6.29271 20.6262 6.71239 20.8 7.15 20.8Z" fill="var(--fill-0, white)"/>
</g>
</svg>
